/* XPM */
static char *result[] = {
/* columns rows colors chars-per-pixel */
"64 64 234 2 ",
"   c #040C26",
".  c #080F28",
"X  c #0D132B",
"o  c #12162C",
"O  c #15192F",
"+  c #1A192E",
"@  c #1A172C",
"#  c #151A31",
"$  c #1A1D34",
"%  c #171F3B",
"&  c #231E32",
"*  c #2C1F32",
"=  c #241B2E",
"-  c #1C223B",
";  c #182137",
":  c #252336",
">  c #2B2335",
",  c #21253E",
"<  c #2D2A3B",
"1  c #2D2739",
"2  c #312235",
"3  c #342A3B",
"4  c #3A2A3A",
"5  c #372737",
"6  c #38323F",
"7  c #4C2C3B",
"8  c #432D3C",
"9  c #4C323E",
"0  c #55343E",
"q  c #1E324A",
"w  c #242943",
"e  c #252C4A",
"r  c #2A2E4A",
"t  c #272942",
"y  c #302E43",
"u  c #2D324E",
"i  c #23354C",
"p  c #3C3542",
"a  c #3B3A4C",
"s  c #373448",
"d  c #2E3450",
"f  c #263A55",
"g  c #313654",
"h  c #343956",
"j  c #3B3C54",
"k  c #353B5B",
"l  c #3A3F5E",
"z  c #3A3F60",
"x  c #423A45",
"c  c #433B4B",
"v  c #4A3E49",
"b  c #483744",
"n  c #533541",
"m  c #593B45",
"M  c #453D52",
"N  c #643C45",
"B  c #6A3B48",
"V  c #723D49",
"C  c #3C405F",
"Z  c #34445B",
"A  c #3B4060",
"S  c #344861",
"D  c #32576F",
"F  c #306278",
"G  c #4D424B",
"H  c #55464D",
"J  c #43435D",
"K  c #4B4558",
"L  c #5A4C59",
"P  c #564955",
"I  c #5A525C",
"U  c #67434A",
"Y  c #77454C",
"T  c #694A55",
"R  c #784B52",
"E  c #645255",
"W  c #6B545B",
"Q  c #6A5659",
"!  c #735C5C",
"~  c #785A5E",
"^  c #79615F",
"/  c #444661",
"(  c #4C4B64",
")  c #474864",
"_  c #524E64",
"`  c #46526A",
"'  c #545067",
"]  c #595469",
"[  c #585468",
"{  c #425A76",
"}  c #5C5C73",
"|  c #645B6C",
" . c #675A68",
".. c #735B66",
"X. c #6E5769",
"o. c #4A637C",
"O. c #596278",
"+. c #6D616E",
"@. c #7C6462",
"#. c #78656A",
"$. c #696475",
"%. c #736572",
"&. c #7B6B75",
"*. c #796A78",
"=. c #74727D",
"-. c #84484E",
";. c #8A4A54",
":. c #854A54",
">. c #8A5354",
",. c #87555A",
"<. c #92525B",
"1. c #9D5C5C",
"2. c #955858",
"3. c #9A615D",
"4. c #A5635E",
"5. c #B0655F",
"6. c #895962",
"7. c #995B61",
"8. c #856A65",
"9. c #8A6E6B",
"0. c #856867",
"q. c #9A6666",
"w. c #8E716A",
"e. c #98756D",
"r. c #836E76",
"t. c #8A7579",
"y. c #8B757A",
"u. c #987977",
"i. c #9A6872",
"p. c #A96866",
"a. c #B46B65",
"s. c #B86D69",
"d. c #BC746B",
"f. c #B8756B",
"g. c #A36A73",
"h. c #A67877",
"j. c #B87976",
"k. c #A7776D",
"l. c #A35E5D",
"z. c #C6786D",
"x. c #D17C6F",
"c. c #C77D71",
"v. c #A98478",
"b. c #B48C7D",
"n. c #BA877B",
"m. c #BB907F",
"M. c #CD8475",
"N. c #C98A7B",
"B. c #D58A79",
"V. c #D0907E",
"C. c #E1917E",
"Z. c #58748B",
"A. c #47718A",
"S. c #74758A",
"D. c #9A7A86",
"F. c #46869B",
"G. c #59849B",
"H. c #5193A7",
"J. c #7696A9",
"K. c #5DA9BB",
"L. c #7596A9",
"P. c #7EB1C2",
"I. c #9D8180",
"U. c #898798",
"Y. c #988E9B",
"T. c #A98984",
"R. c #B48B85",
"E. c #BC9282",
"W. c #B9948A",
"Q. c #B8958B",
"!. c #B48A92",
"~. c #B9969C",
"^. c #A98F96",
"/. c #9494A4",
"(. c #9BAAB8",
"). c #B7ACB2",
"_. c #A29CAE",
"`. c #C78883",
"'. c #C29684",
"]. c #C39A8D",
"[. c #CC9E8B",
"{. c #C99985",
"}. c #DD9985",
"|. c #D89986",
" X c #C69D98",
".X c #D08F80",
"XX c #E29982",
"oX c #E69B86",
"OX c #D5A48E",
"+X c #DAA48D",
"@X c #CDA294",
"#X c #DCAB94",
"$X c #D4A491",
"%X c #E9A68D",
"&X c #E3AD94",
"*X c #E6A993",
"=X c #EAB296",
"-X c #ECB59A",
";X c #E7B29A",
":X c #F2B295",
">X c #F4B699",
",X c #F4BA9C",
"<X c #FBBC9D",
"1X c #FDB496",
"2X c #F4AA8F",
"3X c #CCA7A7",
"4X c #CAB4BC",
"5X c #CDABAE",
"6X c #F5BDA6",
"7X c #C09DA4",
"8X c #FFC4A2",
"9X c #FFCAA6",
"0X c #FFCDAA",
"qX c #FFC5AB",
"wX c #F8CCB3",
"eX c #FFC29F",
"rX c #82BBCB",
"tX c #A4BECB",
"yX c #CFBBC3",
"uX c #84C3D3",
"iX c #A9CAD7",
"pX c #AED5E1",
"aX c #D8C7CB",
"sX c #D8CDD4",
"dX c #D9D2DA",
"fX c #C6CAD4",
"gX c #EED0C8",
"hX c #D7D9E2",
"jX c #D6E1EA",
"kX c #E3E5ED",
"lX c #E7EBF3",
"zX c #EBF0F8",
"xX c #E0DFE6",
"cX c None",
/* pixels */
"cXcXcXcXcXcXcXcXcXcXcXcXcXcXcXcXcXcXcXcXcXo o o o o o o o o o o o o o o o o o o o o o o o o o cXcXcXcXcXcXcXcXcXcXcXcXcXcXcXcXcX",
"cXcXcXcXcXcXcXcXcXcXcXcXcXcXcXcXcXcXcXcXcXO O O O O O O # # O O O O # # o # O O # # # O O O # cXcXcXcXcXcXcXcXcXcXcXcXcXcXcXcXcX",
"cXcXcXcXcXcXcXcXcXcXcXcXcXcXcXcXcXcXcXcXcX$ $ # $ $ $ $ $ $ $ $ $ $ $ $ $ $ $ $ $ $ $ $ $ $ # cXcXcXcXcXcXcXcXcXcXcXcXcXcXcXcXcX",
"cXcXcXcXcXcXcXcXcXcXcXcXcXcXcXcXcXcXcXcX$ , w w w w w w t w w t t t w w w t w w w w w t w w , $ cXcXcXcXcXcXcXcXcXcXcXcXcXcXcXcX",
"cXcXcXcXcXcXcXcXcXcXcXcXcXcXcXcXcXcXO # % t r d d g g u u u d u u g u u d d d u u g u g u r w - $ o cXcXcXcXcXcXcXcXcXcXcXcXcXcX",
"cXcXcXcXcXcXcXcXcXcXcXcXcXcXcXcXcXO O $ , t g h k k k k j k k k h l j k k k l h k l k j k h r w $ # o cXcXcXcXcXcXcXcXcXcXcXcXcX",
"cXcXcXcXcXcXcXcXcXcXcXcXcXcXcXcX$ $ $ , t r h z z / z C A A A l A z C A C A z l C l A l l k u t w $ $ $ cXcXcXcXcXcXcXcXcXcXcXcX",
"cXcXcXcXcXcXcXcXcXcXcXcXcXcXcX$ % , w r r h h l A A z z A A A A A A A z A z z z A A A / l k g g r w w - $ cXcXcXcXcXcXcXcXcXcXcX",
"cXcXcXcXcXcXcXcXcXcXcXcXcXo # $ , t u g h h l l C A A A C A z z A A C C z l z z z J z z z l h h g d r , ; O o cXcXcXcXcXcXcXcXcX",
"cXcXcXcXcXcXcXcXcXcXcXcXcXo O $ , r g l z z l z l l l l l l l l l l l l l l l l l l l l z k z z l h r t $ O O cXcXcXcXcXcXcXcXcX",
"cXcXcXcXcXcXcXcXcXcXcXcXcXo O $ , r h l z z l l k l l l l l z l l C l l l z z z l l l l z z z z l h u w - + o o cXcXcXcXcXcXcXcX",
"cXcXcXcXcXcXcXcXcXcXcXcXcXX # $ w r h l z z k k k k l l C l k z l l z l l z k z z l k k k k z z z h u w $ # o o cXcXcXcXcXcXcXcX",
"cXcXcXcXcXcXcXcXcXcXcXcXcXo # $ , r h l A A A k z l l C z z z z l C z k z l z z l l z l l l z z z h d w - O O cXcXcXcXcXcXcXcXcX",
"cXcXcXcXcXcXcXcXcXcXcXcXcXo # $ , r h l / ) ( ( ) ) A C z k k z l l z z l z z k l / / ) ( ( ) / / h r t $ # o cXcXcXcXcXcXcXcXcX",
"cXcXcXcXcXcXcXcXcXcXcXcXcXo # $ w e g / ( | $.%.%.] ( C k k k k l k k k k k k k l / [ +.%.%.| ' / k u w - # O cXcXcXcXcXcXcXcXcX",
"cXcXcXcXcXcXcXcXcXcXcXcXcXX # $ - e h / } r.I.T.v.&.] C k k f k k k k k k k f k l _ %.y.T.T.y.+.( h e w $ # o cXcXcXcXcXcXcXcXcX",
"cXcXcXcXcXcXcXcXcXcXcXcXcXO O $ - e h ) %.I.].$X].I.$.) z k z z C C C C C C k C / | u.W.OX XT.&._ k e w # O O cXcXcXcXcXcXcXcXcX",
"cXcXcXcXcXcXcXcXcXcXcXcXcXo O # ; e h ( *.T.#X-X#XQ.t.+.[ ' ' [ ] ] ] ] ' ' ' ' } r.T.$X-X;XQ.&.[ k r % ; # o cXcXcXcXcXcXcXcXcX",
"cXcXcXcXcXcXcXcXcXcXcXcXcXX X # % w f ( *.Q.;X6X,X$XQ.v.y.y.t.y.t.t.y.t.t.t.t.y.u.R.@X-XeX;X].D.' k e % # X X cXcXcXcXcXcXcXcXcX",
"cXcXcXcXcXcXcXcXcXcXcXcXcXX X o % e g ) *.R.#X<X8X,X#X@X[.].].].].].].].Q.].].].@X#X-X8X8X;XQ.y.[ h e w ; X X cXcXcXcXcXcXcXcXcX",
"cXcXcXcXcXcXcXcXcXcXcXcXcX@ + & w e h ( %.T.@X-XeX,X,X-X-X;X;X;X-X-X-X-X-X-X-X-X;X,X,XeX,X#XT.r.' k r t - $ + + cXcXcXcXcXcXcXcX",
"cXcXcXcXcXcXcXcXcXcXcXcX6 Z 9 Z a j j ) | t.T.[.OX+X$X$X#X-X,XeX8X8X9X9X8X,X-X&X$X$XOXOX[.E.u.$.( M j a c x 9 6 cXcXcXcXcXcXcXcX",
"cXcXcXcXcXcXcXcXcXcXcX6 H ^ ^ @. .L J / '  .#.e.u.u.u.v.b.[.&XeX9X9X9X9X8X=X[.E.v.u.u.u.y.9..._ ) / _  .@.@.! L x cXcXcXcXcXcXcX",
"cXcXcXcXcXcXcXcXcXo ; 6 ! e.b.b.u.%._ / J J K L L L I Q #.v.[.-XeX9X9X8X,X+XT.9...E L I L L J J A (  .y.v.R.v.^ G : X cXcXcXcXcX",
"cXcXcXcXcXcXcXcXcXX $ x ^ b.OX#XW.t.] C h j M M a s y a H 8.E.;XeX9X9X9X-X{.u.E c s s s M j j h Z ' &.T.$X#Xm.8.G : X . cXcXcXcX",
"cXcXcXcXcXcXcXcX  X $ x ^ m.=X-X Xy.] J C K K L K s t y G ^ b.#X8X9X0X8X-X'.9.P y t s M P L K J C ' r.Q.;X-XV.w.H : X   cXcXcXcX",
"cXcXcXcXcXcXcXcX  X ; b ^ m.-X,X@XD.] ) _  .r.r...P s 1 Z ^ b.&X8X0X0X9X-XE.#.G < y G ! 9.r...' J ' &.Q.;X,X[.w.G : O   cXcXcXcX",
"cXcXcXcXcXcXcXcX  X ; b ^ m.&X;XQ.y.] (  .y.R.'.v...v < p ! v.&X8X0X0X9X-XE.@.G y p Q u.E.W.u.$.' ' =.Q.#X-X{.8.G : X . cXcXcXcX",
"cXcXcXcXcXcXcXcXcXX $ x ! v.{.[.R.r. .] &.T.$X&X{.w.H < 6 Q v.C.<X8XeX<X&Xb.! x < x @.b.#X#XQ.r.| ] #.v.[.OXb.8.G : X cXcXcXcXcX",
"cXcXcXcXcXcXcXcXcXcX: p Q w.v.v.u.0.....u.`.;X-X[.w.G < 3 H w.N.%X2X2X2X|.k.Q 6 1 x @.'.-X-X[.h.#...#.i.h.v.e.! G : o cXcXcXcXcX",
"cXcXcXcXcXcXcXcXcXcXcXcXG I Q ! ! ,.6.e.j.+X>X,X[.w.G : 1 H ,.n.B.C.C.B.n.3.U 5 : p @.E.-X>X*XN.p.0.,...! Q E H p cXcXcXcXcXcXcX",
"cXcXcXcXcXcXcXcXcXcXcXcX1 < 6 9 m R 2.a.B.oX:X-X{.w.H 3 5 0 >.5.z.x.x.z.a.2.N 4 1 v @.E.&X>X%XB.f.3.:.U v 6 < < cXcXcXcXcXcXcXcX",
"cXcXcXcXcXcXcXcXcXcXcXcX. X o * 8 N >.4.M.C.%X*X{.e.E G v U 6.s.z.z.M.z.s.3.R G b L 8.m.%X%XC.N.5.2.U 9 > + o cXcXcXcXcXcXcXcXcX",
"cXcXcXcXcXcXcXcXcXcXcXcX    . o * 8 N >.3.z.V.}.V.n.w.@.0.q.j.`.B.B.C.B.B.f.k.8.8.9.k.V.+XC.M.5.>.U 0 2 + .   cXcXcXcXcXcXcXcXcX",
"cXcXcXcXcXcXcXcXcXcX. .     . o @ * 4 0 R 3.f.M.V.N.N.E.'.{.|.oX2X%X2X%X%X+XV.m.b.m.N.V.M.c.4.R m 4 * @ o . . cXcXcXcXcXcXcXcXcX",
"cXcXcXcXcXcXcXcXcX; + $ $ + $ $ & & : 3 0 R l.s.M.V.XX*X*X=X:X6X1X,X,X1X>X>X,X=X*X%X}.M.d.4.>.H 8 : & = + ; ; O cXcXcXcXcXcXcXcX",
"cXcXcXcXcXcXcXcX6 6 x x x x x a 6 s i Z v T <.l.d.M.|.%X:X:X:X2X:X:X:X:X:X,X=X>X%X}.N.f.l.>.Y H G Z Z p x p x 6 cXcXcXcXcXcXcXcX",
"cXcXcXcXcXcXcXx E Q ^ ^ ^ 8.8.@.+.$.+.] X.X.R <.1.a.n.V..X|.}.oXC.XXC.XXC.C.+XC..Xn.p.,.R T W  .$.=.=.%.@.^ ! H G cXcXcXcXcXcXcX",
"cXcXcXcXcXo - G ^ e.m.E.{.{.'.Q.T.Y.U.L.S.X.W Y Y >.1.p.z.z.z.x.M.M.M.x.x.c.z.f.a.7.R m 9 H | L./.).).).].b.v.! G ; X cXcXcXcXcX",
"cXcXcXcX  o : G ^ m.&X,X<X,X=X&X3X7X_.U.S.$.T N N Y -.<.7.l.s.s.z.z.z.z.d.a.a.1.<.Y n 4 1 a $.U.4XfXgXwXwX#Xb.^ G : O . cXcXcXcX",
"cXcXcXcX. X : G 8.{.,X9X8XeX1X*X$X~./.D.Z.| M m 0 V V ;.<.5.g.`.N.`.`.`.`.D.s.l.;.V 7 * & y ] U.5XaXgXgX0X,XV.8.G : X   cXcXcXcX",
"cXcXcXcX  X : G 8.{.<X9XeX1X2XV.T.v.*.} ' K m n 7 B V ;.7.g.`. X3X3X5X3X7X`.D.l.;.V 7 * $ y I r.!.;X6XqX9X,XE.9.G : o   cXcXcXcX",
"cXcXcXcX  o : H 8.'.>X<X1X%XB.d.0.W M s s y b n B B -.;.g.D.3XyXaXsXsXaXyX7X`.g.;.V 7 2 & < m ~ h.`.oX>X,X-X'.8.G : o   cXcXcXcX",
"cXcXcXcXcXX : G 8.b.+X*XC.M.a.1.R 0 3 : * 2 b n B V V <.g.D.5XsXxXkXkXkXsXyX~.D.<.V 7 2 : < n ,.p.c.XX2X,X-X'.8.G : o   cXcXcXcX",
"cXcXcXcXcXX : G ! w.v.v.k.q.>.V n 5 & @ & 5 n B V V -.;.g.!.4XdXkXlXzXkXhXyX~.h.<.V 7 2 * 2 m ,.d.B.2X1X<X>X'.8.G : X   cXcXcXcX",
"cXcXcXcXcXcXcXp H E Q Q T U m b 5 * @ @ * b B V -.-.;.<.i.!.4XdXkXzXzXkXxXyX~.D.<.V 7 2 & 2 U q.B.%X1X<XeX,X'.8.H : X   cXcXcXcX",
"cXcXcXcXcXcXcXcX3 p p 4 3 1 2 * & @ @ & 2 n B :.:.;.;.<.i.!.4XfXxXkXlXjXdXyX~.g.<.B 7 2 , 5 T u.|.:X8X8X8X-XE.8.G : O   cXcXcXcX",
"cXcXcXcXcXcXcXcXcXO O O O O # # # X o % 2 n B V :.:.;.6.i.D.).fXhXjXjXjXfX4X^.D.6.T 7 r t M X.i.'.#X=X-X&XOXv.@.G : X cXcXcXcXcX",
"cXcXcXcXcXcXcXcXcXcX. . . X X X o X O $ : 5 n m B V X.X.r.U.(.tXiXpXpXiXiX(./.S...] K J g K I #.u.v.v.v.v.e.8.Q x : cXcXcXcXcXcX",
"cXcXcXcXcXcXcXcXcXcXcXcXcXcXcXcXX X O # $ * 2 4 a M _ } $.L.J.P.uXuXuXuXrXJ.L.S.S.} [ ` D D ` I I E E E E E P G 6 cXcXcXcXcXcXcX",
"cXcXcXcXcXcXcXcXcXcXcXcXcXcXcXcXcXO O O + + & : u M ` Z.Z.G.H.K.K.K.K.K.K.H.G.Z.A.} o.o.{ ` S j y < 1 1 < < < < cXcXcXcXcXcXcXcX",
"cXcXcXcXcXcXcXcXcXcXcXcXcXcXcXcXcXo O + + = > 3 s M ' } Z.Z.G.F.F.F.H.F.F.A.A.F { D { { ` D Z e ; o X o X o o cXcXcXcXcXcXcXcXcX",
"cXcXcXcXcXcXcXcXcXcXcXcXcXcXcXcXcXo O + > 4 9 m T ~ ..r.%.$.o.F F F F F F D D S z Z S S Z Z i q ; .         cXcXcXcXcXcXcXcXcXcX",
"cXcXcXcXcXcXcXcXcXcXcXcXcXcXcXcXcXo O ; 5 0 Y >.7.l.p.q.0. .K Z f f q f f i q q e e q e i w w - cXcXcXcXcXcXcXcXcXcXcXcXcXcXcXcX",
"cXcXcXcXcXcXcXcXcXcXcXcXcXcXcXcXcXX o : 4 U >.l.a.a.5.5.2.R v < ; ; ; ; $ ; ; ; $ $ # # $ ; $ cXcXcXcXcXcXcXcXcXcXcXcXcXcXcXcXcX",
"cXcXcXcXcXcXcXcXcXcXcXcXcXcXcXcXcXcXo > 4 N -.2.<.l.1.<.:.U 7 & X X X X o o o O X o o o o o cXcXcXcXcXcXcXcXcXcXcXcXcXcXcXcXcXcX",
"cXcXcXcXcXcXcXcXcXcXcXcXcXcXcXcXcXcXcX: 4 n m U U U U U N 0 4 : cXcXcXcXcXcXcXcXcXcXo o cXcXcXcXcXcXcXcXcXcXcXcXcXcXcXcXcXcXcXcX",
"cXcXcXcXcXcXcXcXcXcXcXcXcXcXcXcXcXcXcXcXcX3 4 4 8 4 5 4 3 3 cXcXcXcXcXcXcXcXcXcXcXcXcXcXcXcXcXcXcXcXcXcXcXcXcXcXcXcXcXcXcXcXcXcX",
"cXcXcXcXcXcXcXcXcXcXcXcXcXcXcXcXcXcXcXcXcX$ + $ @ = $ $ = + cXcXcXcXcXcXcXcXcXcXcXcXcXcXcXcXcXcXcXcXcXcXcXcXcXcXcXcXcXcXcXcXcXcX",
"cXcXcXcXcXcXcXcXcXcXcXcXcXcXcXcXcXcXcXcXcXcXX X X X X X X cXcXcXcXcXcXcXcXcXcXcXcXcXcXcXcXcXcXcXcXcXcXcXcXcXcXcXcXcXcXcXcXcXcXcX",
"cXcXcXcXcXcXcXcXcXcXcXcXcXcXcXcXcXcXcXcXcXcXcXcXcXcXcXcXcXcXcXcXcXcXcXcXcXcXcXcXcXcXcXcXcXcXcXcXcXcXcXcXcXcXcXcXcXcXcXcXcXcXcXcX",
"cXcXcXcXcXcXcXcXcXcXcXcXcXcXcXcXcXcXcXcXcXcXcXcXcXcXcXcXcXcXcXcXcXcXcXcXcXcXcXcXcXcXcXcXcXcXcXcXcXcXcXcXcXcXcXcXcXcXcXcXcXcXcXcX",
"cXcXcXcXcXcXcXcXcXcXcXcXcXcXcXcXcXcXcXcXcXcXcXcXcXcXcXcXcXcXcXcXcXcXcXcXcXcXcXcXcXcXcXcXcXcXcXcXcXcXcXcXcXcXcXcXcXcXcXcXcXcXcXcX",
"cXcXcXcXcXcXcXcXcXcXcXcXcXcXcXcXcXcXcXcXcXcXcXcXcXcXcXcXcXcXcXcXcXcXcXcXcXcXcXcXcXcXcXcXcXcXcXcXcXcXcXcXcXcXcXcXcXcXcXcXcXcXcXcX"
};
