/* XPM */
static char *result[] = {
/* columns rows colors chars-per-pixel */
"64 64 148 2 ",
"   c #010100",
".  c #070802",
"X  c #0A0B03",
"o  c #0E1105",
"O  c #111506",
"+  c #151907",
"@  c #171B08",
"#  c #181D09",
"$  c #1D230A",
"%  c #20270C",
"&  c #242B0D",
"*  c #2A320F",
"=  c #282F10",
"-  c #2D3610",
";  c #2F3810",
":  c #323C12",
">  c #364113",
",  c #3A4615",
"<  c #3E4A16",
"1  c #414D17",
"2  c #424E19",
"3  c #455319",
"4  c #49571A",
"5  c #4E5D1C",
"6  c #505F1C",
"7  c #52631D",
"8  c #57681F",
"9  c #58691F",
"0  c #4D5A23",
"q  c #5B6D20",
"w  c #5E7121",
"e  c #627623",
"r  c #667A24",
"t  c #697D25",
"y  c #697D29",
"u  c #677637",
"i  c #6C8226",
"p  c #6F8528",
"a  c #728927",
"s  c #718728",
"d  c #758C2A",
"f  c #788E2D",
"g  c #7C952C",
"h  c #7F982E",
"j  c #738634",
"k  c #758A35",
"l  c #798F33",
"z  c #7B9035",
"x  c #839D2E",
"c  c #809930",
"v  c #86A02F",
"b  c #88A42F",
"n  c #87A130",
"m  c #8AA432",
"M  c #8EAA32",
"N  c #8AA239",
"B  c #91AD33",
"V  c #94B134",
"C  c #98B736",
"Z  c #9BBA37",
"A  c #97B33A",
"S  c #9AB73D",
"D  c #9DBD38",
"F  c #A0BE3D",
"G  c #9FC039",
"H  c #A2C337",
"J  c #A4C53B",
"K  c #A7C83C",
"L  c #AACC3C",
"P  c #AED13E",
"I  c #B1D53F",
"U  c #B8DD3F",
"Y  c #8DA542",
"T  c #96AF45",
"R  c #92A84D",
"E  c #97B141",
"W  c #9AB442",
"Q  c #9DB847",
"!  c #9DB649",
"~  c #8DA051",
"^  c #96AA55",
"/  c #91A258",
"(  c #A0BB49",
")  c #A5BB5B",
"_  c #AFBF7A",
"`  c #A4C241",
"'  c #ABCB44",
"]  c #A7C34E",
"[  c #A9C64C",
"{  c #ACC94D",
"}  c #B2D542",
"|  c #B6DA42",
" . c #B9DE43",
".. c #B2D24E",
"X. c #B8D94E",
"o. c #ADC953",
"O. c #AFC95B",
"+. c #B1CF53",
"@. c #B2D053",
"#. c #B6D15D",
"$. c #B9D75A",
"%. c #BBD85F",
"&. c #BDE343",
"*. c #BDE04B",
"=. c #BFE055",
"-. c #B3CB66",
";. c #B9D363",
":. c #BFD96E",
">. c #AFC271",
",. c #B1C373",
"<. c #BCD276",
"1. c #C0E645",
"2. c #C6EE46",
"3. c #C6EC49",
"4. c #CBF348",
"5. c #C7EB51",
"6. c #C3E35B",
"7. c #C3DE6C",
"8. c #C1D67F",
"9. c #C5E367",
"0. c #C8E371",
"q. c #B7C781",
"w. c #B9C887",
"e. c #C7DC85",
"r. c #C8DE86",
"t. c #CCDF8D",
"y. c #CCDD93",
"u. c #C7D699",
"i. c #CDDD9D",
"p. c #CAE081",
"a. c #D0E68A",
"s. c #D5E79C",
"d. c #CFDEA0",
"f. c #D0DEA3",
"g. c #D4E4A0",
"h. c #D8E8A3",
"j. c #D5E3AA",
"k. c #DBE8AF",
"l. c #DDEBB4",
"z. c #DBE5B9",
"x. c #DEEAB8",
"c. c #E0ECBA",
"v. c #E2ECC4",
"b. c #E7F0CB",
"n. c #E8F0CA",
"m. c #EDF4D6",
"M. c #F3F7E3",
"N. c None",
/* pixels */
"N.N.N.N.N.N.N.N.N.N.N.N.N.N.N.N.N.N.N.N.N.N.N.N.N.N.N.N.N.N.N.N.N.N.N.N.N.N.N.N.N.N.N.N.N.N.N.N.N.N.N.N.N.N.N.N.N.N.N.N.N.N.N.N.",
"N.N.N.N.N.N.N.N.N.N.N.N.N.N.N.N.N.N.N.N.N.N.N.N.N.N.N.N.N.N.N.N.N.N.N.N.N.N.N.N.N.N.N.N.N.N.N.N.N.N.N.N.N.N.N.N.N.N.N.N.N.N.N.N.",
"N.N.N.N.N.N.N.N.N.N.N.N.N.N.N.N.N.N.N.N.N.N.N.N.N.N.N.N.N.N.N.N.N.N.N.N.N.N.N.N.N.N.N.N.N.N.N.N.N.N.N.N.N.N.N.N.N.N.N.N.N.N.N.N.",
"N.N.N.N.N.N.N.N.N.N.N.N.N.N.N.N.N.N.. . . N.N.N.N.N.N.N.N.N.N.N.N.N.N.N.N.N.N.N.N.N.N.. . N.N.N.N.N.N.N.N.N.N.N.N.N.N.N.N.N.N.N.",
"N.N.N.N.N.N.N.N.N.N.N.N.N.N.N.N.N.N.+ + O O N.N.N.N.N.N.N.N.N.N.N.N.N.N.N.N.N.N.N.N.O @ @ O N.N.N.N.N.N.N.N.N.N.N.N.N.N.N.N.N.N.",
"N.N.N.N.N.N.N.N.N.N.N.N.N.N.N.N.N.$ : : : * N.N.N.N.N.N.N.N.N.N.N.N.N.N.N.N.N.N.N.N.; > : ; N.N.N.N.N.N.N.N.N.N.N.N.N.N.N.N.N.N.",
"N.N.N.N.N.N.N.N.N.N.N.N.N.N.N.N.. = q r q 1 @   N.N.N.N.N.N.N.N.N.N.N.N.N.N.N.N.  $ 0 r r 7 % N.N.N.N.N.N.N.N.N.N.N.N.N.N.N.N.N.",
"N.N.N.N.N.N.N.N.N.N.N.N.N.N.N.N.. - e d y 5 = O O N.N.N.N.N.N.N.N.N.N.N.N.N.N.O O - q d s q %   N.N.N.N.N.N.N.N.N.N.N.N.N.N.N.N.",
"N.N.N.N.N.N.N.N.N.N.N.N.N.N.N.N.N.* 7 w q 7 3 , - $ N.N.N.N.N.N.N.N.N.N.N.N.= : , 4 q q q 5 $ N.N.N.N.N.N.N.N.N.N.N.N.N.N.N.N.N.",
"N.N.N.N.N.N.N.N.N.N.N.N.N.N.N.N.N.$ : < 3 q r e 1 % .                     o : 5 w e 6 < < : N.N.N.N.N.N.N.N.N.N.N.N.N.N.N.N.N.N.",
"N.N.N.N.N.N.N.N.N.N.N.N.N.N.N.N.N.N.O $ ; q h c 6 & .                     O , e m z 3 % # O N.N.N.N.N.N.N.N.N.N.N.N.N.N.N.N.N.N.",
"N.N.N.N.N.N.N.N.N.N.N.N.N.N.N.N.N.N.  X % 5 d d 7 , * % % % & * * * - & % - 3 e g s > O   N.N.N.N.N.N.N.N.N.N.N.N.N.N.N.N.N.N.N.",
"N.N.N.N.N.N.N.N.N.N.N.N.N.N.N.N.N.N.N.N.$ - , 3 7 w r r t p f h x n v x a r q 5 3 , & N.N.N.N.N.N.N.N.N.N.N.N.N.N.N.N.N.N.N.N.N.",
"N.N.N.N.N.N.N.N.N.N.N.N.N.N.N.N.N.N.N.N.N.o + * 8 d M A S G P |  .&.&.| K N y 3 & + N.N.N.N.N.N.N.N.N.N.N.N.N.N.N.N.N.N.N.N.N.N.",
"N.N.N.N.N.N.N.N.N.N.N.N.N.N.N.N.N.N.N.N.N.o o * q h W [ { ..*.3.4.4.4.3.X.Q k 0 = + N.N.N.N.N.N.N.N.N.N.N.N.N.N.N.N.N.N.N.N.N.N.",
"N.N.N.N.N.N.N.N.N.N.N.N.N.N.N.N.N.N.N.N.N.$ % , r N [ ;.:.0.6.5.3.2.2.5.9.-.~ u 2 - $ N.N.N.N.N.N.N.N.N.N.N.N.N.N.N.N.N.N.N.N.N.",
"N.N.N.N.N.N.N.N.N.N.N.N.N.N.N.N.N.N.N.. # ; 3 q g A -.r.g.s.0.%. .U U 6.a.y._ / j 9 * O . N.N.N.N.N.N.N.N.N.N.N.N.N.N.N.N.N.N.N.",
"N.N.N.N.N.N.N.N.N.N.N.N.N.N.N.N.N.N.X + & 1 w d m Q <.g.v.l.0.$.} L L %.h.x.u.,.E a 1 % O o N.N.N.N.N.N.N.N.N.N.N.N.N.N.N.N.N.N.",
"N.N.N.N.N.N.N.N.N.N.N.N.N.N.N.N.N.N.$ & , 7 a m V [ 8.l.m.n.a.#.' K K ;.l.b.j.8.[ v 8 > * & N.N.N.N.N.N.N.N.N.N.N.N.N.N.N.N.N.N.",
"N.N.N.N.N.N.N.N.N.N.N.N.N.N.N.N.N.$ > 3 7 t v C Z { e.x.M.m.a.-.' H H ;.x.m.l.r.@.V a 9 7 1 $ N.N.N.N.N.N.N.N.N.N.N.N.N.N.N.N.N.",
"N.N.N.N.N.N.N.N.N.N.N.N.N.N.N.N.. % 7 i f v C H G { p.x.M.m.t.#.' H H ;.v.m.c.r.@.H V m x 9 %   N.N.N.N.N.N.N.N.N.N.N.N.N.N.N.N.",
"N.N.N.N.N.N.N.N.N.N.N.N.N.N.N.N.. $ 5 i g v Z G G [ <.d.v.l.w.O.` D F O.f.z.i.<.[ H H D B r %   N.N.N.N.N.N.N.N.N.N.N.N.N.N.N.N.",
"N.N.N.N.N.N.N.N.N.N.N.N.N.N.N.N.  + * 3 7 i v V V W ) >.w.,.) ! A V V Q ,.,.>.) W V V B x w $   N.N.N.N.N.N.N.N.N.N.N.N.N.N.N.N.",
"N.N.N.N.N.N.N.N.N.N.N.N.N.N.N.N.. X # * , 8 d n v N Y ^ ^ ^ Y N x x x m R ^ R Y m v x x d 8 $   N.N.N.N.N.N.N.N.N.N.N.N.N.N.N.N.",
"N.N.N.N.N.N.N.N.N.N.N.N.N.N.N.N.o O @ $ : 4 t d d f f l z l f d f d d f l l f f d d f s t 4 @   N.N.N.N.N.N.N.N.N.N.N.N.N.N.N.N.",
"N.N.N.N.N.N.N.N.N.N.N.N.N.N.N.$ - : , < < 3 5 6 6 6 6 6 5 5 6 6 6 6 5 6 5 6 5 6 5 5 6 5 3 : O     N.N.N.N.N.N.N.N.N.N.N.N.N.N.N.",
"N.N.N.N.N.N.N.N.N.N.N.N.N.. O * 8 s h g i 5 - # @ # # # @ @ # @ @ @ @ + @ @ @ @ @ @ @ @ + O .         N.N.N.N.N.N.N.N.N.N.N.N.N.",
"N.N.N.N.N.N.N.N.N.N.N.N.    O ; t B G Z h 7 @     . o o O O o O O O O O O O O O O O + + + X           N.N.N.N.N.N.N.N.N.N.N.N.N.",
"N.N.N.N.N.N.N.N.N.N.N.N.  . X ; t B G Z h 7 #   + & ; > , , , , , , , , , , , , , 1 3 4 3 ; o         N.N.N.N.N.N.N.N.N.N.N.N.N.",
"N.N.N.N.N.N.N.N.N.N.N.N.N.  O ; t M D C h 7 # X * < 8 w r i t y y t y y t t t y t s h h d 8 $         N.N.N.N.N.N.N.N.N.N.N.N.N.",
"N.N.N.N.N.N.N.N.N.N.N.N.N.  O : r M D C h 7 @ o > 9 f b M V V V V V V V B V V B B Z P | K d &         N.N.N.N.N.N.N.N.N.N.N.N.N.",
"N.N.N.N.N.N.N.N.N.N.N.N.N.. o * t M D C h 5 # O < t v Z G L K K K K K K K K K K K I 2.4.1.m *         N.N.N.N.N.N.N.N.N.N.N.N.N.",
"N.N.N.N.N.N.N.N.N.N.N.N.N.  X ; r M D C h 6 # O < r x Z J J ' K K K K K K K K J J } 2.4.&.m *         N.N.N.N.N.N.N.N.N.N.N.N.N.",
"N.N.N.N.N.N.N.N.N.N.N.N.N.. O ; t M D C h 7 # O < t x Z H K J J J K J J J J J H H } 1.4. .x *         N.N.N.N.N.N.N.N.N.N.N.N.N.",
"N.N.N.N.N.N.N.N.N.N.N.N.N.. o ; t M D C h 5 # O < r c Z J J J J J J J J J J J J J L &.1.I h &         N.N.N.N.N.N.N.N.N.N.N.N.N.",
"N.N.N.N.N.N.N.N.N.N.N.N.N.  o ; t M Z C h 7 @ O < r n A H J J J J K J K K J J J J L | | K g =         N.N.N.N.N.N.N.N.N.N.N.N.N.",
"N.N.N.N.N.N.N.N.N.N.N.N.N.. X ; r M D C h 6 # O < r x Z H J J J J J J J J K J J K K ' J Z p %         N.N.N.N.N.N.N.N.N.N.N.N.N.",
"N.N.N.N.N.N.N.N.N.N.N.N.N.  O ; t M D C h 6 @ O < r x C J J J J K J K J J J K J J J K H B t %         N.N.N.N.N.N.N.N.N.N.N.N.N.",
"N.N.N.N.N.N.N.N.N.N.N.N.N.. o ; t M D C h 6 # O < r v C J J J J J J J K J J J J J J J H V t %         N.N.N.N.N.N.N.N.N.N.N.N.N.",
"N.N.N.N.N.N.N.N.N.N.N.N.N.. o ; r M D C h 7 # O < t x C J J J J K J J J K J K J J J J F V t %         N.N.N.N.N.N.N.N.N.N.N.N.N.",
"N.N.N.N.N.N.N.N.N.N.N.N.N.. o - t M D C h 7 # o < r x C H K H J J K J J J J J J J J K J V t %         N.N.N.N.N.N.N.N.N.N.N.N.N.",
"N.N.N.N.N.N.N.N.N.N.N.N.    o ; t M D Z h 6 # o < r v C H K K K J J K J J H J J J K J J V t %         N.N.N.N.N.N.N.N.N.N.N.N.N.",
"N.N.N.N.N.N.N.N.N.N.N.N.    o : t B G Z h 7 # o < r x C H J J K J J K J K K K K J J J J C t %         N.N.N.N.N.N.N.N.N.N.N.N.N.",
"N.N.N.N.N.N.N.N.N.N.N.N.N.. o - w g b m d 7 % $ 3 t v C D J J F J D J J H H F H J D A B c q $         N.N.N.N.N.N.N.N.N.N.N.N.N.",
"N.N.N.N.N.N.N.N.N.N.N.N.N.N.X - 3 q w r q 5 : , 9 a x M V Z Z Z A C Z C C C C C Z M h t e 1 @       N.N.N.N.N.N.N.N.N.N.N.N.N.N.",
"N.N.N.N.N.N.N.N.N.N.N.N.N.N.N.$ ; > , < 1 4 4 q e a g v b b b b m m m m m b b M m g q 3 , & X     N.N.N.N.N.N.N.N.N.N.N.N.N.N.N.",
"N.N.N.N.N.N.N.N.N.N.N.N.N.N.N.N.O O + $ = < q e i p d d d d f f d d d d d d f d f r , % @ X .   N.N.N.N.N.N.N.N.N.N.N.N.N.N.N.N.",
"N.N.N.N.N.N.N.N.N.N.N.N.N.N.N.N.        $ ; q q w w 9 9 w 9 9 9 q q q q 9 w 9 w q 6 * X         N.N.N.N.N.N.N.N.N.N.N.N.N.N.N.N.",
"N.N.N.N.N.N.N.N.N.N.N.N.N.N.N.N.N.N.N.N.@ * > < , , , , , , , , , , , , , , , , < : % X N.N.N.N.N.N.N.N.N.N.N.N.N.N.N.N.N.N.N.N.",
"N.N.N.N.N.N.N.N.N.N.N.N.N.N.N.N.N.N.N.N.N.# $ % % & & & & % % % % % % % & % % % % $ @ N.N.N.N.N.N.N.N.N.N.N.N.N.N.N.N.N.N.N.N.N.",
"N.N.N.N.N.N.N.N.N.N.N.N.N.N.N.N.N.N.N.N.N.. X X O + @ # $ + o o o O + # # @ + o X . N.N.N.N.N.N.N.N.N.N.N.N.N.N.N.N.N.N.N.N.N.N.",
"N.N.N.N.N.N.N.N.N.N.N.N.N.N.N.N.N.N.N.N.N.N.  . + & : > , * $ o o # & ; - - $ O .   N.N.N.N.N.N.N.N.N.N.N.N.N.N.N.N.N.N.N.N.N.N.",
"N.N.N.N.N.N.N.N.N.N.N.N.N.N.N.N.N.N.N.N.N.N.  o : 7 i g g e > $ % > 7 r t q < & X   N.N.N.N.N.N.N.N.N.N.N.N.N.N.N.N.N.N.N.N.N.N.",
"N.N.N.N.N.N.N.N.N.N.N.N.N.N.N.N.N.N.N.N.N.    + 1 r v Z Z h 3 & - 3 t x x d 7 ; o   N.N.N.N.N.N.N.N.N.N.N.N.N.N.N.N.N.N.N.N.N.N.",
"N.N.N.N.N.N.N.N.N.N.N.N.N.N.N.N.N.N.N.N.N.    O < t v Z D h 3 * * 2 i h x a 7 ; o   N.N.N.N.N.N.N.N.N.N.N.N.N.N.N.N.N.N.N.N.N.N.",
"N.N.N.N.N.N.N.N.N.N.N.N.N.N.N.N.N.N.N.N.N.N.  + < r x V C g 2 * * 1 t g h s 7 - o   N.N.N.N.N.N.N.N.N.N.N.N.N.N.N.N.N.N.N.N.N.N.",
"N.N.N.N.N.N.N.N.N.N.N.N.N.N.N.N.N.N.N.N.N.N.  O , e h B V d 1 & * 1 r f g i 5 ; o   N.N.N.N.N.N.N.N.N.N.N.N.N.N.N.N.N.N.N.N.N.N.",
"N.N.N.N.N.N.N.N.N.N.N.N.N.N.N.N.N.N.N.N.N.N.  O : 7 r a d e : $ % : 5 w w 9 2 * o   N.N.N.N.N.N.N.N.N.N.N.N.N.N.N.N.N.N.N.N.N.N.",
"N.N.N.N.N.N.N.N.N.N.N.N.N.N.N.N.N.N.N.N.N.N.N.O & : , < < : $ O O $ * > > ; * $ N.N.N.N.N.N.N.N.N.N.N.N.N.N.N.N.N.N.N.N.N.N.N.N.",
"N.N.N.N.N.N.N.N.N.N.N.N.N.N.N.N.N.N.N.N.N.N.N.N.+ # # $ $ # X . X X + # @ $ @ N.N.N.N.N.N.N.N.N.N.N.N.N.N.N.N.N.N.N.N.N.N.N.N.N.",
"N.N.N.N.N.N.N.N.N.N.N.N.N.N.N.N.N.N.N.N.N.N.N.N.N.. . X . . .     . . . . . . N.N.N.N.N.N.N.N.N.N.N.N.N.N.N.N.N.N.N.N.N.N.N.N.N.",
"N.N.N.N.N.N.N.N.N.N.N.N.N.N.N.N.N.N.N.N.N.N.N.N.N.N.                        N.N.N.N.N.N.N.N.N.N.N.N.N.N.N.N.N.N.N.N.N.N.N.N.N.N.",
"N.N.N.N.N.N.N.N.N.N.N.N.N.N.N.N.N.N.N.N.N.N.N.N.N.N.N.N.N.N.N.N.N.N.N.N.N.N.N.N.N.N.N.N.N.N.N.N.N.N.N.N.N.N.N.N.N.N.N.N.N.N.N.N.",
"N.N.N.N.N.N.N.N.N.N.N.N.N.N.N.N.N.N.N.N.N.N.N.N.N.N.N.N.N.N.N.N.N.N.N.N.N.N.N.N.N.N.N.N.N.N.N.N.N.N.N.N.N.N.N.N.N.N.N.N.N.N.N.N."
};
