/* XPM */
static char *result[] = {
/* columns rows colors chars-per-pixel */
"64 64 232 2 ",
"   c #040D26",
".  c #090E27",
"X  c #0D132B",
"o  c #091027",
"O  c #12162B",
"+  c #14182E",
"@  c #1A1A2E",
"#  c #111127",
"$  c #151A31",
"%  c #1A1D34",
"&  c #181F3B",
"*  c #231B2E",
"=  c #241E32",
"-  c #2A1D31",
";  c #1C233B",
":  c #1B263B",
">  c #252336",
",  c #2C2436",
"<  c #21263F",
"1  c #2D2A3B",
"2  c #2C2638",
"3  c #332536",
"4  c #322D3C",
"5  c #39293A",
"6  c #37313F",
"7  c #482C3B",
"8  c #4A313E",
"9  c #51333E",
"0  c #1C2941",
"q  c #222740",
"w  c #242944",
"e  c #252C4A",
"r  c #292E4A",
"t  c #2C2B42",
"y  c #312E44",
"u  c #2B314D",
"i  c #29354C",
"p  c #3C3542",
"a  c #373448",
"s  c #2B3955",
"d  c #313653",
"f  c #343956",
"g  c #353B5B",
"h  c #3A3F5E",
"j  c #3D3D55",
"k  c #393F60",
"l  c #4E3442",
"z  c #443B45",
"x  c #463A49",
"c  c #533541",
"v  c #583A44",
"b  c #453E52",
"n  c #633C46",
"m  c #6A3B49",
"M  c #743E49",
"N  c #24475D",
"B  c #3B405F",
"V  c #394358",
"C  c #3C4160",
"Z  c #374B65",
"A  c #37556F",
"S  c #34667D",
"D  c #4D424A",
"F  c #51444C",
"G  c #5B444C",
"H  c #4C4253",
"J  c #43445E",
"K  c #4C465C",
"L  c #594B55",
"P  c #58545F",
"I  c #67444B",
"U  c #73444B",
"Y  c #7A484D",
"T  c #664B55",
"R  c #7A4B51",
"E  c #665356",
"W  c #685659",
"Q  c #725B5C",
"!  c #755459",
"~  c #7B615F",
"^  c #454661",
"/  c #4C4B64",
"(  c #464C65",
")  c #524E65",
"_  c #584F60",
"`  c #495369",
"'  c #545167",
"]  c #5B5569",
"[  c #585468",
"{  c #455D79",
"}  c #5D5C73",
"|  c #645564",
" . c #645A6B",
".. c #6B5B67",
"X. c #775D66",
"o. c #644E62",
"O. c #56657C",
"+. c #49607B",
"@. c #7D6463",
"#. c #79656B",
"$. c #6A6576",
"%. c #736572",
"&. c #7C6B74",
"*. c #7A6A79",
"=. c #6C616F",
"-. c #83434E",
";. c #874B55",
":. c #895558",
">. c #965958",
",. c #97615E",
"<. c #82625F",
"1. c #B1655F",
"2. c #945E61",
"3. c #865662",
"4. c #896C67",
"5. c #8A6E69",
"6. c #846868",
"7. c #986868",
"8. c #8E716A",
"9. c #99746C",
"0. c #826E75",
"q. c #816770",
"w. c #8B757A",
"e. c #857279",
"r. c #947675",
"t. c #9D7B73",
"y. c #977A79",
"u. c #9A6872",
"i. c #AC6A63",
"p. c #A76967",
"a. c #B36B64",
"s. c #BD6A62",
"d. c #B9756B",
"f. c #A57975",
"g. c #BB7C76",
"h. c #A67371",
"j. c #A35A56",
"k. c #C9766A",
"l. c #D17A6C",
"z. c #C57D70",
"x. c #C56E64",
"c. c #AA8579",
"v. c #B38B7C",
"b. c #B7897A",
"n. c #BC907F",
"m. c #9F827F",
"M. c #C98677",
"N. c #D38C7B",
"B. c #D78877",
"V. c #C7917F",
"C. c #D1917F",
"Z. c #E08F7C",
"A. c #346D82",
"S. c #517189",
"D. c #6E7389",
"F. c #8C7887",
"G. c #B07D81",
"H. c #54849B",
"J. c #4793A7",
"K. c #5491A6",
"L. c #7997A9",
"P. c #62A8BB",
"I. c #7EA5B6",
"U. c #71879C",
"Y. c #63B0C2",
"T. c #97848C",
"R. c #AB8A84",
"E. c #A58683",
"W. c #B48D82",
"Q. c #B58B89",
"!. c #BD9382",
"~. c #B69188",
"^. c #BA948A",
"/. c #A88B93",
"(. c #B9949C",
"). c #AF8C97",
"_. c #9491A3",
"`. c #A69AAB",
"'. c #9CAAB8",
"]. c #B6A7B1",
"[. c #C29684",
"{. c #C49A8B",
"}. c #CC9E8A",
"|. c #C99888",
" X c #D89A85",
".X c #C49A95",
"XX c #CD8E85",
"oX c #E49C86",
"OX c #D6A28C",
"+X c #DDAA93",
"@X c #D5A693",
"#X c #CBA293",
"$X c #E7A48B",
"%X c #F5AA8F",
"&X c #E3AE95",
"*X c #E7AA93",
"=X c #F7AD91",
"-X c #E6B096",
";X c #EAB297",
":X c #E5B199",
">X c #ECB59A",
",X c #EFB89D",
"<X c #F4B699",
"1X c #F4BA9C",
"2X c #FCBD9D",
"3X c #F5B497",
"4X c #C6AEB8",
"5X c #D5B2AE",
"6X c #F8BEA1",
"7X c #E9B9A9",
"8X c #FEC09F",
"9X c #FEC3A2",
"0X c #FFCAA6",
"qX c #FCC9AA",
"wX c #F5CBB5",
"eX c #83B8C8",
"rX c #A5BFCC",
"tX c #CCB9C1",
"yX c #87C3D3",
"uX c #ABCBD7",
"iX c #AFD5E1",
"pX c #D6CED7",
"aX c #DAD4DB",
"sX c #CCCBD2",
"dX c #ECDCD7",
"fX c #EFD2C6",
"gX c #D2DBE5",
"hX c #D0E1EB",
"jX c #E3E3EA",
"kX c #E6EBF3",
"lX c #E5DFE1",
"zX c None",
/* pixels */
"zXzXzXzXzXzXzXzXzXzXzXzXzXzXzXzXzXzXzXzXzXzXzXzXzXzXzXzXzXzXzXzXzXzXzXzXzXzXzXzXzXzXzXzXzXzXzXzXzXzXzXzXzXzXzXzXzXzXzXzXzXzXzXzX",
"zXzXzXzXzXzXzXzXzXzXzXzXzXzXzXzXzXzXzXzXzXzXzXzXzXzXzXzXzXzXzXzXzXzXzXzXzXzXzXzXzXzXzXzXzXzXzXzXzXzXzXzXzXzXzXzXzXzXzXzXzXzXzXzX",
"zXzXzXzXzXzXzXzXzXzXzXzXzXzXzXzXzXzXzXzXzXzXzXzXzXzXzXzXzXzXzXzXzXzXzXzXzXzXzXzXzXzXzXzXzXzXzXzXzXzXzXzXzXzXzXzXzXzXzXzXzXzXzXzX",
"zXzXzXzXzXzXzXzXzXzXzXzXzXzXzXzXzXzXzXzXzXzXzXzXzXzXzXzXzXzXzXzXzXzXzXzXzXzXzXzXzXzXzXzXzXzXzXzXzXzXzXzXzXzXzXzXzXzXzXzXzXzXzXzX",
"zXzXzXzXzXzXzXzXzXzXzXzXzXzXzXzXzXzXzXzXzXzXzXzXzXzXzXzXzXzXzXzXzXzXzXzXzXzXzXzXzXzXzXzXzXzXzXzXzXzXzXzXzXzXzXzXzXzXzXzXzXzXzXzX",
"zXzXzXzXzXzXzXzXzXzXzXzXzXzXzXzXzXzXzXzXzXzXzXzXzXzXzXzXzXzXzXzXzXzXzXzXzXzXzXzXzXzXzXzXzXzXzXzXzXzXzXzXzXzXzXzXzXzXzXzXzXzXzXzX",
"zXzXzXzXzXzXzXzXzXzXzXzXzXzXzXzXzXzXzXzXzXzXzXzXzXzXzXzXzXzXzXzXzXzXzXzXzXzXzXzXzXzXzXzXzXzXzXzXzXzXzXzXzXzXzXzXzXzXzXzXzXzXzXzX",
"zXzXzXzXzXzXzXzXzXzXzXzXzXzXzXzXzXzXzXzXzXzXzXzXzXzXzXzXzXzXzXzXzXzXzXzXzXzXzXzXzXzXzXzXzXzXzXzXzXzXzXzXzXzXzXzXzXzXzXzXzXzXzXzX",
"zXzXzXzXzXzXzXzXzXzXzXzXzXzXzXzXzXzXO O O O O O O O O O O O O O O O O O O O O O O zXzXzXzXzXzXzXzXzXzXzXzXzXzXzXzXzXzXzXzXzXzXzX",
"zXzXzXzXzXzXzXzXzXzXzXzXzXzXzXzXzX+ + + + + + $ O + + O + + + O + + + + + + O + + + zXzXzXzXzXzXzXzXzXzXzXzXzXzXzXzXzXzXzXzXzXzX",
"zXzXzXzXzXzXzXzXzXzXzXzXzXzXzXzXzX% % % % % % % % % % % % % % % % % % % % % % % % % % zXzXzXzXzXzXzXzXzXzXzXzXzXzXzXzXzXzXzXzXzX",
"zXzXzXzXzXzXzXzXzXzXzXzXzXzXzXzX% < < q < < < ; q q < < q 0 < 0 0 q q ; q q q q ; < ; % zXzXzXzXzXzXzXzXzXzXzXzXzXzXzXzXzXzXzXzX",
"zXzXzXzXzXzXzXzXzXzXzXzXzXzXO $ ; q r r u r r r r u u r u u u u r r r u u r u u r r < ; + O zXzXzXzXzXzXzXzXzXzXzXzXzXzXzXzXzXzX",
"zXzXzXzXzXzXzXzXzXzXzXzXzXO $ % q r d d h h g f f f g f f f f f f f f f f h f f f u w < % + O zXzXzXzXzXzXzXzXzXzXzXzXzXzXzXzXzX",
"zXzXzXzXzXzXzXzXzXzXzXzX$ % % ; w u j h h h h h h h k k h h h h C h C h h h C C h d r < % % $ zXzXzXzXzXzXzXzXzXzXzXzXzXzXzXzXzX",
"zXzXzXzXzXzXzXzXzXzXzXzX% ; < w r d f h C C C C C C C C k C C C C C C C C C C C h f d r w < ; % zXzXzXzXzXzXzXzXzXzXzXzXzXzXzXzX",
"zXzXzXzXzXzXzXzXzXzX$ % < w r u d f h h C C k C C C B C B C C B C C h C C C C C k g f d u e e = % $ zXzXzXzXzXzXzXzXzXzXzXzXzXzX",
"zXzXzXzXzXzXzXzXzX+ + ; < r d h h h h h h h h h h h h h h h B h h h h C h h C h h k g k f d e < % + O zXzXzXzXzXzXzXzXzXzXzXzXzX",
"zXzXzXzXzXzXzXzXzXO $ ; w u h h h h h h h h h k B h B h h h h h h h h h h h h h h k b k h d r q % + O zXzXzXzXzXzXzXzXzXzXzXzXzX",
"zXzXzXzXzXzXzXzXO + $ % q u f h h h h g h h h h h h h h h B B h h h h h C g k g g g k C k f r q % $ O zXzXzXzXzXzXzXzXzXzXzXzXzX",
"zXzXzXzXzXzXzXzXO O $ % w u f k k k g g g h h h k h h k h k h h h h h h C g g g g g k C k f r q % $ O zXzXzXzXzXzXzXzXzXzXzXzXzX",
"zXzXzXzXzXzXzXzXzX+ $ % q d f k C C C C h k h h h h h h h h h k h C h h g k C C C C C C g f r q % + O zXzXzXzXzXzXzXzXzXzXzXzXzX",
"zXzXzXzXzXzXzXzXzX+ $ = q u f J ^ / ) ) / ^ C h g k k k h h k h g k h h C ^ / / ' ) / ^ k f r q % + X zXzXzXzXzXzXzXzXzXzXzXzXzX",
"zXzXzXzXzXzXzXzXzXO $ % w u g ^ [ =.%.&.%.] ^ h g g g g g g g g g g g g C / ] %.*.%. .' J f e 0 % $ + zXzXzXzXzXzXzXzXzXzXzXzXzX",
"zXzXzXzXzXzXzXzXzXO @ ; 0 r g / =.w.E.E.y.%.) B s s g g g g g g g g s g C ] *.F.R.T.0. .^ f e = % $ O zXzXzXzXzXzXzXzXzXzXzXzXzX",
"zXzXzXzXzXzXzXzXzX+ + % q r g ) *.R.#X#X~.w.} ^ h g k k B h k h g k g k / =.G.|.@X{.m.%.^ d e 0 % + O zXzXzXzXzXzXzXzXzXzXzXzXzX",
"zXzXzXzXzXzXzXzXzXO + % 0 e j ' e.^.+X>X@XR.0.] ) ) ) ) [ [ ' ' ' ) / '  .e.~.@X>X@XR.%./ f e ; $ + O zXzXzXzXzXzXzXzXzXzXzXzXzX",
"zXzXzXzXzXzXzXzXzXX X $ ; e f [ w.{.>X6X>X#XR.w.0.0.*.e.0.0.0.0.0.0.e.e.y.~.@X1X6X:X~.*./ f 0 & $ X X zXzXzXzXzXzXzXzXzXzXzXzXzX",
"zXzXzXzXzXzXzXzXzXX X $ ; e h ' e.^.>X9X9X:X@X{.^.^.^.~.^.~.^.~.^.~.^.^.^.@X,X0X9X&XQ.&./ f 0 & $ X   zXzXzXzXzXzXzXzXzXzXzXzXzX",
"zXzXzXzXzXzXzXzXzX+ $ & 0 e h ) e.~.&X1X9X6X>X:X:X&X:X-X:X&X:X&X:X:X&X-X>X,X6X9X1X@XR.%./ d e 0 % $ O zXzXzXzXzXzXzXzXzXzXzXzXzX",
"zXzXzXzXzXzXzXzX1 4 4 y u d h ) %.E.{.+X&X&X&X&X:X,X1X6X9X9X8X2X6X1X;X-X&X&X-X&X@X^.F.=./ h a y 6 6 4 1 zXzXzXzXzXzXzXzXzXzXzXzX",
"zXzXzXzXzXzXzXp F E E E L J J /  .&.y.c.W.W.W.!.}.+X1X9X0X0X0X0X8X>X+X{.!.v.W.v.c.r.#.[ ^ b J P E E L D zXzXzXzXzXzXzXzXzXzXzXzX",
"zXzXzXzXzXzX> D Q 8.t.r.#.] / J K P | ....#.#.5.t.!.+X2X0X0X0X0X1XOXW.r.6.#.@.....| P J ^ /  .0.t.t.4.E 6 = zXzXzXzXzXzXzXzXzXzX",
"zXzXzXzXzXX > D @.v.}.{.c.%./ h h j H H x z V L #.t.}.1X9X0X0X8X>X!.r.W H b b x b b j j b ) &.R.|.|.c.Q z @ X zXzXzXzXzXzXzXzXzX",
"zXzXzXzX  X > F 4.[.:X+X~.*.) k d b b b a y w a L w.{.>X9X0X0X0X-XW.#.D y t y x b b j g C ] w.{.-X&Xv.~ V * X zXzXzXzXzXzXzXzXzX",
"zXzXzXzX  O > F 8.}.,X:X^.e.) ^ K ) W ..L a 1 1 F 6.!.,X0X0X0X9X-Xv.@.j t t b L | | P ^ ^ } F.}.>X>Xn.~ 8 ; X   zXzXzXzXzXzXzXzX",
"zXzXzXzX  X > F 8.}.>X>X^.*.[ ^ [ &.y.r.@.L 6 1 b 6.n.>X0X0X0X0X-Xc...z t a E 5.t.y.%.[ ^ ] w..X,X;Xn.~ D @ X   zXzXzXzXzXzXzXzX",
"zXzXzXzX  X > F 4.V.-X+XR.&.' ' %.E.|.}.c.Q V 1 x 6.n.;X0X0X0X0X&Xc.Q p 1 D @.v.}.^.y. .) } w.^.-X&Xv.~ z % X zXzXzXzXzXzXzXzXzX",
"zXzXzXzXzXO > D @.v.}.[.E.%.|  .w.^.&X&Xn.@.D 1 8 Q v.$X3X8X2X3XOXh.E 6 1 F 5.|.:X+XR.0.| | 0.R.{.[.c.E 6 @ X zXzXzXzXzXzXzXzXzX",
"zXzXzXzXzXzX> z Q 8.t.t.8.3.X.6.f.OX<X>XV.~ 6 > 6 E h.C.$X%X%X$XV.,.G 4 1 F 8.}.<X;X|.u.X.X.3.5.9.8.Q D 1 + o zXzXzXzXzXzXzXzXzX",
"zXzXzXzXzXzXzXp D L W Q ! :.,.p.XX*X<X>X!.@.p > 3 G ,.M.B.B.Z.M.d.:.D , , D 8.}.>X3XOXb.2.3.R ! E G V 1 ; O o zXzXzXzXzXzXzXzXzX",
"zXzXzXzXzXzXzXzX1 1 6 z G :.>.d.N.$X3X;Xn.@.D 1 5 G >.a.k.l.l.k.i.:.v 3 1 F 8.}.;X3XZ.M.a.2.R I 8 4 > = @ + + zXzXzXzXzXzXzXzXzX",
"zXzXzXzXzXzXzXzXzXO @ 2 8 U >.a.M.oX$X$Xn.4.L z v R >.d.k.B.l.x.a.<.I D D E 9.V.*X*X$XB.g.p.:.m z 6 1 4 4 4 1 1 zXzXzXzXzXzXzXzX",
"zXzXzXzXzXzXzXzXzX  o @ 3 9 U :.i.M. X XV.f.4.~ <.9.d.l.B.B.B.B.M.d.,.~ ~ 8.c.V.oX$X$XXXQ.G.r.6.~ E E W W W E F p zXzXzXzXzXzXzX",
"zXzXzXzXzXzXzXzXzX  o O * 3 8 I R i.M.M.N.V.b.b.Q.V. X X$XoXoXoXZ.C.V.v.v.b.M.N.XXXXXX(.(.(.).R.c.c.c.c.c.c.4.W D > zXzXzXzXzXzX",
"zXzXzXzXzXzXzXzXzXO $ @ @ @ - 8 I :.1.k.B.C.OXOX*X;X3X3X3X3X2X2X8X>X-X-XOX XB.M.z.z.Q.`.`.].]..X@X+X&X&X&XOXc.~ D > O zXzXzXzXzX",
"zXzXzXzXzXzXzXzX1 4 4 3 1 > 3 6 9 U >.1.d.C.$X;X6X6X6XqXqXqXqX6X8X8X>X,X;X XB.d.a.h.F.F._.`.].5X-X3X8X8X8X;Xn.6.D : X   zXzXzXzX",
"zXzXzXzXzXzXzXp F E W E G F 9 9 9 n U :.,.d.M. X<X7X7XwXwXfXfXfXwXwX:X+X XM.d.j.>.3.3.*.D.F./.(.$X%X8X0X0X8X[.4.D > O o zXzXzXzX",
"zXzXzXzXzXzX> D W 8.c.9.7.:.Y U I 9 9 G U :.p.g.XX5X7XdXdXdXdXfXfX5X@XXXg.p.j.-.U m L K )  .q.f.V.Z.=X8X8X8XV.4.F : X   zXzXzXzX",
"zXzXzXzXzXX > D @.v.}.OXC.M.1.>.U v 7 5 7 I ;.2.G..X5XpXlXjXlXlXpXtX(.u.2.;.-.m n 9 z 4 y p T :.i.M.Z.%X8X>Xn.4.F > O o zXzXzXzX",
"zXzXzXzX  O > D 6.!.;X<X=XZ.M.1.R 9 3 = , 7 M >.G.(.tXaXjXkXkXgXpX4X).G.>.-.M m v 8 3 = * 2 8 U >.i.M.N.C.}.v.~ D > O zXzXzXzXzX",
"zXzXzXzX  O > D 5.{.8X9X8X=XZ.b.2.G 3 @ - 7 m ;.G.(.tXaXkXkXkXjXpX4XG.u.;.-.-.-.n c 5 = @ @ 3 9 n Y ,.7.9.m.8.Q z > zXzXzXzXzXzX",
"zXzXzXzX  O > D 4.V.8X0X0X8X%XC.7.T 4 * - 7 m >.u.(.tXaXkXkXkXjXpX4XG.u.;.-.-.-.M n l - @ @ = 3 7 9 G G E E L F p zXzXzXzXzXzXzX",
"zXzXzXzX  X > D @.n.;X0X0X8X3XOXf.W 6 > - 7 M 3.G.(.tXgXjXkXkXhXpX4X).u.3.;.;.;.;.m l 3 * + + = > > 1 4 4 4 6 4 zXzXzXzXzXzXzXzX",
"zXzXzXzXzXO > D @.c.V.&X;X&X+XV.r.W a t 5 l m 3.F.`.4XtXgXhXhXgXsX].G.F.3.;.;.R M m l , + O O O O + + $ O O O zXzXzXzXzXzXzXzXzX",
"zXzXzXzXzXzX> x W 8.c.c.c.c.c.m.#.' b d b K o.=.F.F.rXrXuXiXiXuXrX`.F.F.X.o.m m n c y - ; $ X X O o o o o o zXzXzXzXzXzXzXzXzXzX",
"zXzXzXzXzXzXzXp F L E E W W E E P / Z Z ` ` } $.D.U.'.Y.yXyXyXyXY.'.U.D.S.) b l 6 3 - * @ + O O zXzXzXzXzXzXzXzXzXzXzXzXzXzXzXzX",
"zXzXzXzXzXzXzXzX4 4 4 4 6 6 1 V f Z ` +.+.O.O.S.S.H.P.K.Y.Y.Y.Y.P.K.D.S.} ( b u > * * + + + + zXzXzXzXzXzXzXzXzXzXzXzXzXzXzXzXzX",
"zXzXzXzXzXzXzXzXzX% $ + O O O : i Z A { +.+.S { S.S.J.J.J.J.J.J.S.J.S.S.S.' C a 1 > * @ + + + zXzXzXzXzXzXzXzXzXzXzXzXzXzXzXzXzX",
"zXzXzXzXzXzXzXzXzXzXo o o   o $ 0 s B Z Z Z Z Z A S S S S A.A.A.A.S.S.D.=...o.m 8 7 3 > @ + O zXzXzXzXzXzXzXzXzXzXzXzXzXzXzXzXzX",
"zXzXzXzXzXzXzXzXzXzXzXzXzXzXzXzX: e i i i i i i i s N N N N N N V )  .#.u.2.3.:.Y n 9 3 : O O zXzXzXzXzXzXzXzXzXzXzXzXzXzXzXzXzX",
"zXzXzXzXzXzXzXzXzXzXzXzXzXzXzXzXzX; : ; ; ; : : : : : : : : 0 0 i H ! >.p.1.a.a.,.;.n 5 = $ X zXzXzXzXzXzXzXzXzXzXzXzXzXzXzXzXzX",
"zXzXzXzXzXzXzXzXzXzXzXzXzXzXzXzXzX+ + + $ X O + + + + + O X O + 2 9 M j.s.x.x.x.1.>.I 7 = O X zXzXzXzXzXzXzXzXzXzXzXzXzXzXzXzXzX",
"zXzXzXzXzXzXzXzXzXzXzXzXzXzXzXzXzXO # O X O O O O X X o # o o # - 8 -.j.s.x.l.x.s.>.U 8 > + X zXzXzXzXzXzXzXzXzXzXzXzXzXzXzXzXzX"
};
