/* XPM */
static char *bcffd8b3804d48b1c7d9a4b4586a6aa3DaiEhBOxvimocAEC[] = {
/* columns rows colors chars-per-pixel */
"64 64 253 2 ",
"   c None",
".  c #181222",
"X  c #181223",
"o  c #181425",
"O  c #191525",
"+  c #191526",
"@  c #191726",
"#  c #1A1726",
"$  c #1E1727",
"%  c #191826",
"&  c #1A1827",
"*  c #1E1728",
"=  c #1A1B2B",
"-  c #1B1C29",
";  c #1B1F2C",
":  c #201928",
">  c #231A2A",
",  c #251A2B",
"<  c #291D2D",
"1  c #2E1E2D",
"2  c #1D222F",
"3  c #1D232F",
"4  c #1F292D",
"5  c #1D2430",
"6  c #1E2430",
"7  c #1E2631",
"8  c #1F2732",
"9  c #1F2831",
"0  c #1F2833",
"q  c #1F2934",
"w  c #1F2A34",
"e  c #202B2F",
"r  c #252531",
"t  c #262532",
"y  c #202A34",
"u  c #222A34",
"i  c #202D35",
"p  c #212E37",
"a  c #292833",
"s  c #2B2934",
"d  c #212F38",
"f  c #302130",
"g  c #332231",
"h  c #392534",
"j  c #3A2634",
"k  c #322B37",
"l  c #213031",
"z  c #243632",
"x  c #233535",
"c  c #223138",
"v  c #223139",
"b  c #22323A",
"n  c #23333A",
"m  c #23333B",
"M  c #23343B",
"N  c #23353C",
"B  c #24353C",
"V  c #24363D",
"C  c #2A333A",
"Z  c #243838",
"A  c #263E3B",
"S  c #253A3D",
"D  c #25393F",
"F  c #253A3F",
"G  c #263C3E",
"H  c #263E3F",
"J  c #442B38",
"K  c #472C3A",
"L  c #462D3A",
"P  c #482B38",
"I  c #4A2D3A",
"U  c #4A2E3B",
"Y  c #4B2E3B",
"T  c #45353F",
"R  c #49303C",
"E  c #51303D",
"W  c #54333F",
"Q  c #2D533F",
"!  c #243A40",
"~  c #263C40",
"^  c #263D41",
"/  c #263C42",
"(  c #273F43",
")  c #543440",
"_  c #5C3541",
"`  c #613943",
"'  c #693B46",
"]  c #6A3B47",
"[  c #693F47",
"{  c #6D3E49",
"}  c #274043",
"|  c #274144",
" . c #284442",
".. c #294446",
"X. c #2A4949",
"o. c #2B4A4A",
"O. c #2A4B4B",
"+. c #2B4B4B",
"@. c #2A4C4C",
"#. c #2A4E4D",
"$. c #2B4E4D",
"%. c #2C4D4C",
"&. c #314D4C",
"*. c #2D5440",
"=. c #2E5740",
"-. c #2E5545",
";. c #2E5840",
":. c #2F5840",
">. c #2D5449",
",. c #2E5649",
"<. c #2C504E",
"1. c #2D514E",
"2. c #2C514F",
"3. c #2F5948",
"4. c #2F594A",
"5. c #315E42",
"6. c #305B47",
"7. c #305F46",
"8. c #305D4B",
"9. c #315D4C",
"0. c #315F4F",
"q. c #2D5351",
"w. c #2E5350",
"e. c #2E5450",
"r. c #2E5451",
"t. c #2F5652",
"y. c #2E5653",
"u. c #2E5753",
"i. c #2F5753",
"p. c #2F5853",
"a. c #2F5854",
"s. c #2F5954",
"d. c #305853",
"f. c #305953",
"g. c #305A53",
"h. c #305B53",
"j. c #315E52",
"k. c #305854",
"l. c #316143",
"z. c #336345",
"x. c #336646",
"c. c #346847",
"v. c #336649",
"b. c #33654D",
"n. c #356A4B",
"m. c #366F4F",
"M. c #38754D",
"N. c #39774D",
"B. c #39774F",
"V. c #3A784F",
"C. c #3A794F",
"Z. c #3A7A4E",
"A. c #3A7B4E",
"S. c #3A7B4F",
"D. c #3B7B4F",
"F. c #3B7C4E",
"G. c #3A7C4F",
"H. c #3B7C4F",
"J. c #3B7D4F",
"K. c #3B7E4F",
"L. c #3C7E4E",
"P. c #3C7F4E",
"I. c #3C7E4F",
"U. c #3D7F4F",
"Y. c #336251",
"T. c #326052",
"R. c #326152",
"E. c #336252",
"W. c #336352",
"Q. c #336451",
"!. c #346651",
"~. c #346751",
"^. c #346552",
"/. c #356951",
"(. c #356B50",
"). c #356A51",
"_. c #356B51",
"`. c #366B51",
"'. c #356A52",
"]. c #366C51",
"[. c #366E50",
"{. c #376F50",
"}. c #366E51",
"|. c #377050",
" X c #377151",
".X c #387350",
"XX c #387450",
"oX c #387550",
"OX c #397650",
"+X c #397750",
"@X c #397850",
"#X c #3A7A50",
"$X c #3A7B50",
"%X c #3B7D50",
"&X c #3C7F50",
"*X c #70404A",
"=X c #70404B",
"-X c #77424B",
";X c #77434D",
":X c #7B454E",
">X c #864A53",
",X c #8B4E53",
"<X c #8C4C56",
"1X c #935157",
"2X c #995459",
"3X c #9F585A",
"4X c #9F595A",
"5X c #AC5F5E",
"6X c #B86661",
"7X c #63AB3F",
"8X c #63AC3E",
"9X c #63AC3F",
"0X c #64AC3E",
"qX c #64AC3F",
"wX c #3F824D",
"eX c #3D804E",
"rX c #3D804F",
"tX c #3D814F",
"yX c #3E804E",
"uX c #3E814E",
"iX c #3E814F",
"pX c #3F834E",
"aX c #3E824F",
"sX c #3D8050",
"dX c #44874C",
"fX c #45894B",
"gX c #478B4A",
"hX c #498D49",
"jX c #4B8F49",
"kX c #4E9347",
"lX c #4F9347",
"zX c #4F9447",
"xX c #4D9248",
"cX c #509547",
"vX c #539845",
"bX c #559B44",
"nX c #549A45",
"mX c #559A45",
"MX c #559B45",
"NX c #569C44",
"BX c #569D44",
"VX c #579D44",
"CX c #579E44",
"ZX c #589E44",
"AX c #59A043",
"SX c #5AA043",
"DX c #5BA242",
"FX c #5DA441",
"GX c #5EA541",
"HX c #5FA740",
"JX c #60A741",
"KX c #60A840",
"LX c #61A840",
/* pixels */
"                                                                                                                                ",
"                                                                                                                                ",
"                                                                                                                                ",
"                                                                                                                                ",
"                                                                                                                                ",
"                                                                                                                                ",
"                                                          o & & & & o                                                           ",
"                                                  & & i ,.*.Q Q Q Q =.,.i o &                                                   ",
"                                              H -.5.=.z. XsXrXrXrXrXrXXX7.;.;.4.F                                               ",
"                                           .3.v.#XsXrXsXfXBXZXZXBXBXnXfXsXdXsX#Xv.6. .                                          ",
"                                    4 l.c.n.&XtXrXhXAXZXDX9X0XLX0XLX7XDXAXAXhXrXrXC.n.c.l.4                                     ",
"                                  e Q N.sXtXJ.kXDXFXLX0X0X9X7X7XLX0XLX0XLX0XFXAXzXrXJ.&XC.;.e                                   ",
"                                e l.C.J.&XpXvXLXLX0XLX0X9X9X9X9XqX0XLXqXqX0X9X0XHXzXrXH.rXC.Q z                                 ",
"                              z x.J.J.J.J.zXLXqX0XLX0XLX9X9X9X9XqXLX0XqXqXLX9X9XLXLXzXJ.J.tXJ.z.z                               ",
"                            x x.J.J.J.J.rXnXqXqXqXqXLXqXqXqXqXLXqXqXqXqXqXqXqX9XLXLXAXsXJ.J.J.J.c.x                             ",
"                          c 4.#XJ.J.J.J.J.zXLXLX0XLX0XqXLX0XqX0X0XLX0XLX0XLX9X9X0XLXcXrXJ.J.J.J.C.4.c                           ",
"                        0 8.#XJ.J.J.J.J.J.H.zX7X0X0X0XLX0XLXqXqX7X7X7X7X0XLX0X0X7XzXH.J.J.J.J.J.J.#X4.0                         ",
"                      = A M.J.J.J.J.J.J.J.J.J.hXbXFX0X0XLX0XLXLX7X7X7X0XLX0XFXbXhXrXH.J.J.J.J.J.J.J.n.Q =                       ",
"                      ! b.J.J.J.J.J.J.J.J.J.J.H.rXgXbXbXFXLX0XLX9X0X7XZXAXBXgXrXJ.J.J.J.J.J.J.J.J.J.C.b.H                       ",
"                    ! b.C.J.J.J.J.J.J.J.J.rXH.H.J.H.rXrXfXnXBXBXnXnXnXdXsXsXJ.J.J.J.J.J.J.J.J.J.J.J.J.C.T.!                     ",
"                     ._.J.J.J.J.J.J.J.J.J.J.J.J.J.J.J.J.J.J.rXJ.H.rXrXJ.J.J.J.J.J.J.J.J.J.J.J.J.J.J.J.J.n.|                     ",
"                  ~ ^.#XJ.J.J.J.J.J.J.J.J.J.J.J.J.J.J.J.J.J.J.J.H.H.J.J.J.J.J.J.J.J.J.J.J.J.J.J.J.J.J.J.&X^.~                   ",
"                  Z m.&XJ.J.J.J.J.J.J.J.J.J.J.J.J.J.J.J.J.J.J.J.J.J.J.J.J.J.J.J.J.J.J.J.J.J.J.J.J.J.J.J.#Xm.Z                   ",
"                0 -.J.J.J.J.J.J.J.J.J.J.J.J.J.J.J.J.J.J.J.J.J.J.J.J.J.J.J.J.J.J.J.J.J.J.J.J.J.J.J.J.J.J.J.J.-.0                 ",
"              X B ~.J.J.J.J.J.J.J.J.J.J.J.J.J.J.J.J.J.J.J.J.J.J.J.J.J.J.J.J.J.J.J.J.J.J.J.J.J.J.J.J.J.J.J.J.~.M X               ",
"              o N ~.J.J.J.J.J.J.J.J.J.J.J.J.J.J.J.J.J.J.J.J.J.J.J.J.J.J.J.J.J.J.J.J.J.J.J.J.J.J.J.J.J.J.J.J.~.B o               ",
"              ~ ,.XXJ.J.J.J.J.J.J.J.J.J.J.J.J.J.J.J.J.J.J.J.J.J.J.J.J.J.J.J.J.J.J.J.J.J.J.J.J.J.J.J.J.J.J.J.XX,.~               ",
"              ~ ).J.J.J.J.J.J.J.J.J.J.J.J.J.J.J.J.J.J.J.J.J.J.J.J.J.J.J.J.J.J.J.J.J.J.J.J.J.J.J.J.J.J.J.J.J.H.).~               ",
"            o B ).J.J.J.J.J.J.J.J.J.J.J.J.J.J.J.J.J.J.J.J.J.J.J.J.J.J.J.J.J.J.J.J.J.J.J.J.J.J.J.J.J.J.J.J.J.J.~.B o             ",
"            o B ).J.J.rXJ.J.J.J.J.J.J.J.J.J.J.J.J.J.J.J.J.J.J.J.J.J.J.J.J.J.J.J.J.J.J.J.J.J.J.J.J.J.J.J.J.J.J.).B o             ",
"            o B ).H.H.H.J.J.J.J.J.J.J.J.J.J.J.J.J.J.J.J.J.J.J.J.J.J.J.J.J.J.J.J.J.J.J.J.J.J.J.J.J.J.J.J.J.J.&X).B o             ",
"            o B ~.H.H.H.J.J.J.J.J.J.J.J.J.J.J.J.J.J.J.J.J.J.J.J.J.J.J.J.J.J.J.J.J.J.J.J.J.J.J.J.J.J.J.J.J.J.J.).B o             ",
"              F ).J.J.J.J.J.J.J.J.J.J.J.J.J.J.J.J.J.J.J.J.J.J.J.J.J.J.J.J.J.J.J.J.J.J.J.J.J.J.J.J.J.J.J.J.J.J.).!               ",
"              | 9.C.J.J.J.J.J.J.J.J.J.J.J.J.J.J.J.J.J.J.J.J.J.J.J.J.J.J.J.J.J.J.J.J.J.J.J.J.J.J.J.J.J.J.J.J.C.9.|               ",
"              - F ).&XJ.J.J.J.J.J.J.J.J.J.J.J.J.J.J.J.J.J.J.J.J.J.J.J.J.J.J.J.J.J.J.J.J.J.J.J.J.J.J.J.J.rXJ.).F -               ",
"              X M T.M.J.J.J.J.J.J.J.J.J.J.J.J.J.J.J.J.J.J.J.J.J.J.J.J.J.J.J.J.J.J.J.J.J.J.J.J.J.J.J.J.J.H.XXE.c X               ",
"                i %.T.XXrXJ.J.J.J.J.J.J.J.J.J.J.J.J.J.J.rXJ. X X XM.C.J.J.H.H.H.J.J.J.J.J.J.H.H.J.J.J.J.XXT.@.d                 ",
"                  c f.T._.XXJ.J.J.J.J.J.J.J.J.J.J.tXM. X_.).h.p.s.h.). Xm.C.J.rXJ.J.J.J.J.J.rXH.J.J.XXm.T.f.c                   ",
"                  c t.s.p.h._. XJ.rXJ.J.J.J.J.&XXX_.~.k.i.s.i.i.i.i.i.k.k.~.m.M.J.J.J.J.J.J.H.J.m._.h.p.p.t.c                   ",
"                  0 ..t.p.t.p.s.)._.C.J.J.J.XX_.~.f.p.p.i.i.i.i.i.i.i.i.t.s.s.^._.oXJ.J.J.C._.).h.f.f.p.t...q                   ",
"                    d t.t.t.i.i.t.f.~.)._._.T.s.i.i.i.i.i.i.i.i.i.i.i.i.i.i.i.i.i.h._._.).~.k.s.i.i.t.t.t.d                     ",
"                    6 | t.p.i.i.t.p.i.i.k.t.i.t.i.i.i.i.i.i.i.i.i.i.i.i.i.i.i.i.i.i.f.k.i.i.f.t.i.t.s.t.~ 6                     ",
"                      y w.t.s.t.s.i.i.i.i.i.i.i.i.i.i.i.i.i.i.i.i.i.i.i.i.i.i.i.i.i.f.t.i.i.i.i.i.i.t.t.i                       ",
"                      5 F w.t.s.t.i.i.i.i.i.i.i.i.i.i.i.i.i.i.i.i.i.i.i.i.i.i.i.i.i.i.i.i.i.i.i.t.s.w.F 2                       ",
"                        ; B w.k.i.i.t.s.i.i.i.i.i.i.i.i.i.i.i.i.i.i.i.i.i.i.i.i.i.i.i.i.i.i.i.s.s.<.B 2                         ",
"                            N %.w.i.s.t.i.i.i.i.i.i.i.i.i.i.i.i.i.i.i.i.i.i.i.i.i.i.i.t.i.s.i.w.%.m                             ",
"                              6 d X.w.t.i.i.i.i.i.i.i.i.i.i.i.i.i.i.i.i.i.i.i.i.i.t.i.t.t.w.X.d 6                               ",
"                                  6 y X.w.<.<.t.i.s.i.s.i.i.i.s.i.i.i.i.s.i.s.i.t.<.<.t.X.q 6                                   ",
"                                        y 6 6 ( w.@.@.w.<.p.s.s.k.p.u.<.@.<.@.w.( 6 6 i                                         ",
"                                                y a a r C &.@.X.@.@.%.n r a a y                                                 ",
"                                              1 K ] ] E R T k r r k ) T E ] ' P 1                                               ",
"                                              U ,X3X<X=X) ` ;X_ _ -X` ) =X<X3X,XI                                               ",
"                                            o j { >X{ I K *X3X2X2X5X` K I { >X*Xj o                                             ",
"                                              f K I j : < W 1X6X6X1XW < : j K K f                                               ",
"                                                $ *       g :X5X5X:Xf       * *                                                 ",
"                                                          : Y :X:XR :                                                           ",
"                                                            , j j ,                                                             ",
"                                                              o o                                                               ",
"                                                                                                                                ",
"                                                                                                                                ",
"                                                                                                                                ",
"                                                                                                                                ",
"                                                                                                                                ",
"                                                                                                                                "
};
