/* XPM */
static char *_6f93c2b96ba4f12b3522f2571ef7bcdeT9RtBtiy5HKj9lG[] = {
/* columns rows colors chars-per-pixel */
"64 64 203 2 ",
"   c None",
".  c #060F10",
"X  c #0B1517",
"o  c #111615",
"O  c #131A1A",
"+  c #1A1F1E",
"@  c #19201F",
"#  c #26251F",
"$  c #172021",
"%  c #1A2525",
"&  c #1D2A2B",
"*  c #172828",
"=  c #1E3131",
"-  c #232B29",
";  c #223235",
":  c #25363A",
">  c #263A3C",
",  c #293E3F",
"<  c #373A37",
"1  c #3B3024",
"2  c #463628",
"3  c #41423F",
"4  c #6D4B31",
"5  c #7D5638",
"6  c #6A482C",
"7  c #2A3E43",
"8  c #2B4344",
"9  c #2E464B",
"0  c #2D4B4B",
"q  c #314B4C",
"w  c #3D484A",
"e  c #344F52",
"r  c #345254",
"t  c #3A5C5E",
"y  c #37535A",
"u  c #3B5B64",
"i  c #3E6367",
"p  c #445859",
"a  c #5B584F",
"s  c #68645C",
"d  c #42636D",
"f  c #426A6B",
"g  c #4D6B6D",
"h  c #436671",
"j  c #456A73",
"k  c #476C78",
"l  c #497375",
"z  c #4B747D",
"x  c #4C797B",
"c  c #477375",
"v  c #597578",
"b  c #716D64",
"n  c #815534",
"m  c #9B6338",
"M  c #B06E3E",
"N  c #A0683D",
"B  c #E9743C",
"V  c #ED7E3F",
"C  c #E7723A",
"Z  c #BA7644",
"A  c #937860",
"S  c #CB7C43",
"D  c #E77E4D",
"F  c #E97F4D",
"G  c #EA7A42",
"H  c #E77F52",
"J  c #E87D51",
"K  c #CF8147",
"L  c #D8854A",
"P  c #EE8446",
"I  c #EB834B",
"U  c #EC8B4B",
"Y  c #E58A4A",
"T  c #F08243",
"R  c #F68E4A",
"E  c #EF904E",
"W  c #F0914E",
"Q  c #E88055",
"!  c #EC8C5E",
"~  c #E88658",
"^  c #F18F57",
"/  c #CA966D",
"(  c #E78A65",
")  c #EC8E64",
"_  c #ED946B",
"`  c #ED9975",
"'  c #ED9C7A",
"]  c #F29F70",
"[  c #EEA17F",
"{  c #ECA06C",
"}  c #4D7F81",
"|  c #517F89",
" . c #4F8183",
".. c #53808F",
"X. c #59898B",
"o. c #5B8B99",
"O. c #558291",
"+. c #6B8F91",
"@. c #649598",
"#. c #699498",
"$. c #729C9F",
"%. c #749498",
"&. c #748388",
"*. c #6193A3",
"=. c #639AAC",
"-. c #749DA1",
";. c #689EB0",
":. c #649DB0",
">. c #6AA0B3",
",. c #6EA7BB",
"<. c #70AABF",
"1. c #7BA6AE",
"2. c #72AEC3",
"3. c #74B1C6",
"4. c #75B4CA",
"5. c #7DB9CE",
"6. c #78B7CD",
"7. c #7DBDD4",
"8. c #91918D",
"9. c #A59888",
"0. c #AFA293",
"q. c #B4A696",
"w. c #94AAAD",
"e. c #9DB4B9",
"r. c #8AABB0",
"t. c #A0B9BF",
"y. c #BDBDBC",
"u. c #E59F85",
"i. c #CAB29B",
"p. c #EEA383",
"a. c #EFA68D",
"s. c #EBA78D",
"d. c #F1A984",
"f. c #F0A78E",
"g. c #F0AB8E",
"h. c #E7A992",
"j. c #EAA993",
"k. c #F1AD95",
"l. c #F5BA95",
"z. c #F6B795",
"x. c #EBB09D",
"c. c #CFBFAD",
"v. c #D6B5AB",
"b. c #DDB4A7",
"n. c #C0BDBD",
"m. c #F1BBA7",
"M. c #EEB5A1",
"N. c #DFC4BD",
"B. c #D4C2AF",
"V. c #FAC9AA",
"C. c #E6C9B8",
"Z. c #F5C4B2",
"A. c #F6D5BA",
"S. c #E5C0A1",
"D. c #83B8C9",
"F. c #81BED5",
"G. c #8CBFD2",
"H. c #A1BBC0",
"J. c #BDBEC3",
"K. c #8AC2D7",
"L. c #8BC4D9",
"P. c #8FC8DE",
"I. c #93C3D6",
"U. c #95C5D8",
"Y. c #9BC7D9",
"T. c #AAC3CA",
"R. c #A5C1C8",
"E. c #A8CAD8",
"W. c #B3D2DF",
"Q. c #B1C8D3",
"!. c #A4CEE1",
"~. c #B5D3E3",
"^. c #BCD4E2",
"/. c #BAD8E9",
"(. c #A7D3E6",
"). c #CBCDD2",
"_. c #D4D5DB",
"`. c #CFC9CB",
"'. c #E4CAC6",
"]. c #F2CDC5",
"[. c #EDD6C9",
"{. c #FCDEC4",
"}. c #F2D1CC",
"|. c #F8D7C9",
" X c #F7D8C8",
".X c #F3D7D3",
"XX c #FAE3DD",
"oX c #DCDCE2",
"OX c #D5DDE6",
"+X c #C0D6E3",
"@X c #E2DBE0",
"#X c #D2E1EC",
"$X c #D9E1EB",
"%X c #E3E4ED",
"&X c #F9E9E8",
"*X c #FAF0EE",
"=X c #EEECF2",
"-X c #E6EAF3",
";X c #FEF8F7",
":X c #F7F4F8",
">X c #FDFCFF",
",X c #F9F4F7",
"<X c #E8F0F9",
/* pixels */
"                                                                                                                                ",
"                                                                                                                                ",
"                                                                                                                                ",
"                                                                                                                                ",
"                                                                                                                                ",
"                                                                                                                                ",
"                                                                                                                                ",
"                                                                                                                                ",
"                                                                                                                                ",
"                                                                                                                                ",
"                                                                                                                                ",
"                                                                                                                                ",
"                                                          O O o O O o                                                           ",
"                                                          ; : : ; : ;                                                           ",
"                                                      O 7 y d h j d y 7 O                                                       ",
"                                                O o o % 7 } *.;.;.*.} 7 % o O O                                                 ",
"                                              ; > > : 7 u o.2.7.7.2.o.u 7 : : : ;                                               ",
"                                            ; y d h h k | :.6.F.7.6.:.| k h h d y :                                             ",
"                                          @ 7 k *.;.;.;.<.3.5.F.7.6.3.,.;.;.;.*.k 7 $                                           ",
"                                        ; 7 u O.2.F.L.I.G.Y.G.G.G.I.I.U.U.L.F.2.O.u 7 ;                                         ",
"                                      ; e j | ;.4.L.!./.+X+XW.^.^.^.^.+X/.!.L.4.=.| k e ;                                       ",
"                                    $ 7 j *.,.3.5.U.^.OX%X%X%X%X%X%X%X-X$X^.U.5.3.,.*.j 7 $                                     ",
"                                  : 7 u | 2.F.G.I.W.OX=X,X,X:X:X:X:X:X:X=X#X~.G.G.7.2.| u 7 :                                   ",
"                                : y k | =.3.F.!.~.#X<X>X>X>X>X>X>X>X>X>X:X<XOX~.!.G.3.=.| k y ;                                 ",
"                              O : h *.<.6.D.G.^.$X=X:X,X;X;X;X;X;X;X;X;X;X,X=XOX~.U.5.6.2.*.d : O                               ",
"                              O : h ;.F.P.G.~.#X=X*X.X.X|.|.|.|.|.|.|.|..XXX*X=X#X~.Y.G.7.:.k : O                               ",
"                              o : h ;.L.!.^.#X<X;X&XZ.k.[ [ [ d.p.p.p.' g.Z.&X,X<X#X^.!.G.,.h : o                               ",
"                            O % 7 k ;.I./.$X=X:X*X|.k.) J F J ~ J J D J ) g.|.*X:X=X$X/.G.;.k 7 % O                             ",
"                            > 9 u | ,.I./.%X&XXX|.m.p._ ) ! ^ _ ) ) ) ~ _ p.m.|.&X&X-X+XG.,.| u 9 >                             ",
"                        O ; y z o.:.2.I./.-XXXm.d.[ d.z.z.l.l.l.l.l.l.l.z.d.p.d.m..X%X/.U.3.:.o.z y ; O                         ",
"                        O : d *.3.6.7.Y.^.%X].f.) _ z.V.A.A.C.C.C.A.A.A.V.z._ ) f.].@X^.Y.F.6.2.*.d : O                         ",
"                        O ; d ;.F.P.Y.Q.`.v.M.p.` d.V.{.[.B.q.0.q.q.B.[.{.V.d.` f.m.b.`.Q.Y.U.F.;.j ; O                         ",
"                        O : d ;.L.(.+X`.b.s.' d.l.V.{.{.B.8.s a a s 9.B.{.{.V.l.p.' u.b.`.+X(.L.;.h : O                         ",
"                        O : i *.G./.OX].h.~ ( d.V.A.{.N.0.s < @ @ < s q.B.{.A.V.d.! ( s.}.OX~.G.*.d ; O                         ",
"                        O ; u o.D.^.OX}.p.J I ] l.S.v.9.b 3 + . . @ 3 b 9.i.S.l.] D D f.}.oX^.D.o.u ; O                         ",
"                        O & r } 1.Q.oX}.a.J B ^ { / A a 2 - O X X O - < a A / { ^ G J f.}.oXQ.1.} y & O                         ",
"                        O & q x -.R.oX}.f.Q B P Y Z 5 3 # + O O o + @ - 2 5 Z ^ T B ~ f.}.oXR.-.l 0 & O                         ",
"                        O & 0 l $.T.oX}.f.D C T Y K m 6 1 # O o X + # 2 4 m K Y V C D f.}.oXT.-.c 0 & O                         ",
"                        O & 0 l -.T.oX}.j.Q C V U L K M 5 2 + X X @ 2 n M K Y U V C J j.}.oXT.-.c 0 & O                         ",
"                        O & 0 f +.e.).'.h.~ I P R W W Y Z 4 1 # # 1 4 M L W E U I D ( j.'.).e.+.f 9 & O                         ",
"                          & 7 r g %.e.y.v.h.' ! I P R E K N 5 6 6 5 N K E R P P ! ' h.v.B.e.+.g r , &                           ",
"                            * ; 9 f +.w.y.C.m.` I G P E Y K S M M S K Y E T V F ` m.C.y.w.+.f q ; &                             ",
"                            o O ; e x %.H.).N.h.( I I P U U U Y U Y U U U I D ( h.'.).H.-.x r = O O                             ",
"                              O & q x @.r.e.y.v.h.' ! F G T T T V P V V F ! ' h.v.J.H.1.@.l 0 & O                               ",
"                              O & r l X.@.-.w.T.'.m.` D C B B B B B G C D ` m.'.y.w.-.@.X.x e & O                               ",
"                              + = q f x } O.-.t._.v.h.( H H ~ ~ ~ ~ H Q ( h.N.).e.-.X. .} i q = O                               ",
"                                & , q t f  .#.r.t.y.v.x.k.k.x.j.k.k.k.k.x.v.y.e.r.@. .i t 0 , &                                 ",
"                                  * = 8 t x X.@.-.w.J.'..X.X}.}.}.}..X}.'.J.w.$.o.X.x i 8 = *                                   ",
"                                    O ; q f x } X.%.w.`.)._._.OXOX_._.).T.w.%.X.x x f q ; O                                     ",
"                                      & , 9 t f  .X.| &.8.w.H.R.H.H.w.8.8.&.X. .c t q > *                                       ",
"                                        % = 8 i x l p a p v +.$.-.+.v p w p l x i 8 ; %                                         ",
"                                          O ; r d t > $ ; r i c c d r ; % > t i e ; O                                           ",
"                                            - , 8 8 = O * > 9 0 9 9 > * O = 8 9 , &                                             ",
"                                              * & %       * & * * & *       * & *                                               ",
"                                              O O O       O O O O O O       O O O                                               ",
"                                                                                                                                ",
"                                                                                                                                ",
"                                                                                                                                ",
"                                                                                                                                ",
"                                                                                                                                ",
"                                                                                                                                ",
"                                                                                                                                ",
"                                                                                                                                ",
"                                                                                                                                "
};
