/* XPM */
static char *_fae1bc8a23544d6d343b62998681c40qQNZkTZxQtRJnvkY[] = {
/* columns rows colors chars-per-pixel */
"64 64 191 2 ",
"   c None",
".  c #060F11",
"X  c #0A1417",
"o  c #121616",
"O  c #131B1B",
"+  c #161C1A",
"@  c #1A201F",
"#  c #23231E",
"$  c #192122",
"%  c #1D2B2B",
"&  c #192829",
"*  c #1F2E30",
"=  c #1F3232",
"-  c #262A28",
";  c #202F31",
":  c #223234",
">  c #253639",
",  c #263D3F",
"<  c #283C3E",
"1  c #36332C",
"2  c #433527",
"3  c #63462D",
"4  c #744F32",
"5  c #7D5637",
"6  c #6B4A30",
"7  c #293D41",
"8  c #2B4344",
"9  c #2E4B4C",
"0  c #2F444A",
"q  c #334D4E",
"w  c #344E53",
"e  c #355455",
"r  c #375159",
"t  c #3B5E5F",
"y  c #39565E",
"u  c #3C5C63",
"i  c #3E6368",
"p  c #424745",
"a  c #495B5E",
"s  c #5F5E57",
"d  c #645D53",
"f  c #6C675E",
"g  c #41636C",
"h  c #446B6D",
"j  c #4E6B6E",
"k  c #446671",
"l  c #446A74",
"z  c #4A6F7B",
"x  c #497476",
"c  c #4C7B7C",
"v  c #477277",
"b  c #557779",
"n  c #787369",
"m  c #99633A",
"M  c #AA6B3C",
"N  c #E9743C",
"B  c #EC7E3F",
"V  c #E7723A",
"C  c #AE6E40",
"Z  c #B97645",
"A  c #977D65",
"S  c #CB7D45",
"D  c #E97E4B",
"F  c #EB7D42",
"G  c #E77E52",
"H  c #E87E51",
"J  c #CE8048",
"K  c #DC864A",
"L  c #EC8145",
"P  c #EB834B",
"I  c #E4894B",
"U  c #ED8C4B",
"Y  c #E88847",
"T  c #F08445",
"R  c #F68F4B",
"E  c #EF904E",
"W  c #ED8B5C",
"Q  c #E88554",
"!  c #F19059",
"~  c #CC9971",
"^  c #E78861",
"/  c #EA8D64",
"(  c #EC946B",
")  c #EE9974",
"_  c #EC9F7F",
"`  c #EDA370",
"'  c #F2A378",
"]  c #4F7D8C",
"[  c #527D8C",
"{  c #517F86",
"}  c #4F8183",
"|  c #5A8B8D",
" . c #568389",
".. c #5D8D9D",
"X. c #578595",
"o. c #669699",
"O. c #6C9396",
"+. c #74969A",
"@. c #70868A",
"#. c #5F90A1",
"$. c #649AAC",
"%. c #689DAF",
"&. c #759EA1",
"*. c #699FB1",
"=. c #6BA1B4",
"-. c #6DA6BA",
";. c #6FA9BD",
":. c #7CA8B0",
">. c #72ADC2",
",. c #73B1C6",
"<. c #75B4CA",
"1. c #7DB9CE",
"2. c #78B7CD",
"3. c #7DBCD2",
"4. c #7BC0D7",
"5. c #8F9291",
"6. c #AC9E8D",
"7. c #B5A696",
"8. c #BFB09F",
"9. c #97ACAE",
"0. c #84ACB2",
"q. c #9EAEB3",
"w. c #9CB6BC",
"e. c #A3B7BB",
"r. c #BFBCBB",
"t. c #EFA585",
"y. c #E7A58C",
"u. c #EFA68B",
"i. c #F0A78E",
"p. c #F1AA87",
"a. c #EDA991",
"s. c #EAAD98",
"d. c #F1AB91",
"f. c #F4B492",
"g. c #F7B994",
"h. c #F4B38F",
"j. c #D7B5A7",
"k. c #C1BEBD",
"l. c #F0B7A3",
"z. c #EEB7A5",
"x. c #D5C4B1",
"c. c #F8C6A9",
"v. c #E2C5BD",
"b. c #EBCDB5",
"n. c #F6C9B4",
"m. c #F7D6BC",
"M. c #E8C4A5",
"N. c #81BED4",
"B. c #87B6C5",
"V. c #A5BCC2",
"C. c #87C1D6",
"Z. c #8CC1D5",
"A. c #8BC4DA",
"S. c #92C3D6",
"D. c #98C6D9",
"F. c #AAC4CA",
"G. c #ADCFDF",
"H. c #AFC9D4",
"J. c #B7D1DF",
"K. c #A2CEE0",
"L. c #B6D3E2",
"P. c #BBD4E3",
"I. c #BAD8E9",
"U. c #A5D2E6",
"Y. c #C9C7CB",
"T. c #CECFD2",
"R. c #D9D7DC",
"E. c #D0CFD5",
"W. c #E6CCC8",
"Q. c #F1CEC7",
"!. c #FBDDC4",
"~. c #F3D1CB",
"^. c #F8DBCE",
"/. c #F8DED7",
"(. c #EDD9C3",
"). c #FBE5DF",
"_. c #CEDFEA",
"`. c #DCDCE2",
"'. c #D4DFEA",
"]. c #E2DCE2",
"[. c #CFE0EB",
"{. c #DDE1EB",
"}. c #D7E0EA",
"|. c #E2E4EC",
" X c #F9E9E7",
".X c #ECEBF2",
"XX c #E5EBF4",
"oX c #F6F1F6",
"OX c #F9F2F5",
"+X c #FEFBFC",
"@X c #F7F6FA",
/* pixels */
"                                                                                                                                ",
"                                                                                                                                ",
"                                                                                                                                ",
"                                                                                                                                ",
"                                                                                                                                ",
"                                                                                                                                ",
"                                                                                                                                ",
"                                                                                                                                ",
"                                                                                                                                ",
"                                                          o O o o O o                                                           ",
"                                                          ; ; : ; ; ;                                                           ",
"                                                        > r u g k i r >                                                         ",
"                                                + o o $ 0 { ..$.$.#.z 0 $ o o O                                                 ",
"                                              ; : : ; 7 u X.>.2.3.>.X.u 7 ; > > :                                               ",
"                                            : r u k k k [ $.<.3.3.<.$.] k u k u r :                                             ",
"                                          $ 7 l ..%.$.%.-.>.2.N.3.2.,.-.%.%.%...l 7 $                                           ",
"                                        % < y [ ;.3.C.Z.S.Z.N.D.S.N.Z.S.Z.N.N.;.[ y > ;                                         ",
"                                      ; w k [ $.,.A.K.L.P.L.L.J.P.L.P.P.L.G.A.,.$.[ k w ;                                       ",
"                                    O < k #.-.>.1.D.P.}.|.|.|.{.|.|.|.|.}.P.D.1.>.-.#.k 7 $                                     ",
"                                  : 7 u [ ;.N.N.S.G.'..XOXOX@XoXoXOXOX@X.X_.G.S.N.3.-.[ u 7 ;                                   ",
"                                : w k [ $.,.C.D.L._.XX@X+X+X+X+X+X+X+X+X@XXX_.J.G.N.2.$.[ k w ;                                 ",
"                              O < g ..;.>.1.D.P.}..XoX+X+X+X+X+X+X+X+X+X+XOX.X'.L.N.B.,.>.#.g 7 +                               ",
"                              O > l *.N.A.D.U.'..X X)./.^.^.^.^.^.^.^.^./. X X.X'.U.D.N.N.*.k 7 O                               ",
"                              o : l =.C.K.L.'.XX@X Xn.f.t.t.t.i.p.p.t.t.d.n. X@XXX'.P.U.N.*.k : o                               ",
"                            o $ 7 l *.N.L.'.XXoXOX^.d./ D H G Q G G H H / f.^.OXoX.X'.I.N.=.l 7 $ o                             ",
"                            > 8 u [ ;.D._.|. X X~.c.p.( W E / W / / W W / t.l.^. X X|.I.D.;.] u 8 >                             ",
"                          : r z X.$.>.D.I.|./.n.d.t.i.p.h.h.g.g.g.h.h.h.h.t.t.d.z. X|.P.N.,.$.X.z r :                           ",
"                        O : g #.>.<.1.D.P.].Q.i./ ( h.n.m.m.b.b.n.b.m.m.n.h.( ( i.Q.]._.H.1.<.>.#.g > O                         ",
"                        O > k $.N.A.N.H.Y.v.l.t.) ' c.!.(.x.8.7.7.8.x.m.!.c.' ) t.l.v.Y.H.D.A.N.%.k : O                         ",
"                        O : k %.N.U._.T.j.u._ i.g.c.!.(.x.6.n s d n 5.x.!.m.c.g.t.t.y.j.Y._.U.A.%.k : O                         ",
"                        O : g $.N.I.'.W.i.G / t.c.!.!.b.6.f 1 & @ 1 f 7.b.!.m.c.t.W ^ a.W.'.L.N.$.i : +                         ",
"                        O ; u ..B._.`.~.u.H H ' g.M.j.6.n p $ . . @ p n 6.x.M.g.) H H p.~.{.L.B...u : O                         ",
"                        O = e } 0.G.`.~.u.G F ! ` ~ A d p - O X X @ - p d A ~ ` ! F H i.Q.`.G.:.[ e * O                         ",
"                        O % 9 x &.V.`.Q.a.Q N L I Z m 2 - @ O O X @ @ # 2 5 Z E T N G i.~.`.V.&.v q % O                         ",
"                        O & 9 x &.V.`.~.i.H V B I S m 3 2 # O X X @ @ 2 3 m J I B V G a.~.`.V.&.v 9 % O                         ",
"                        O % 9 x &.F.`.~.i.H V B U K S M 4 2 + X X @ 2 5 M J I U B V G u.~.`.H.&.v 9 % o                         ",
"                        O % 9 h O.V.E.W.a.^ D P U U E K C 6 1 # @ 1 6 C K E E Y D D ^ a.W.T.w.O.h 9 % O                         ",
"                          % , e j +.q.r.j.y.) W P T R E J m 4 3 3 4 m J E R T Y W ) y.j.k.e.+.x e , %                           ",
"                            % : q j O.9.r.v.z.) D B T E I S Z C M Z S I E L B P ) z.W.x.9.@.j q > %                             ",
"                            o @ : r b &.V.Y.W.y.W P P U U U U P U U U U U Y D W s.x.T.e.&.c e = @ o                             ",
"                              O & 9 x o.0.F.r.j.y.) W D B B F T T T B B P W ) y.j.r.V.0.o.x q % O                               ",
"                              O % e x | o.&.9.r.v.l.) D V N N F N N V V D ) l.v.k.9.&.o.| x e % O                               ",
"                              + % q h c } | &.V.T.v.y.^ D H H G G G H H ^ u.v.E.F.&.| } c h q = O                               ",
"                                % 7 q i h } o.0.V.r.j.a.d.d.i.a.d.i.i.d.s.j.k.e.0.o.} l t q < %                                 ",
"                                  % = 8 t c | o.&.9.k.W.~.~.~.~.~.~.~.~.Q.k.9.&.o.| c t 8 : %                                   ",
"                                    @ : q h c } | +.q.Y.E.R.R.`.`.R.R.E.Y.q.+.| } x h q = @                                     ",
"                                      % , q t i } | @.5.5.q.V.F.F.V.q.5.5.[ @.} h t q , &                                       ",
"                                        & = 9 i c z a p a { O.&.&.O.{ a q a b z i 8 = &                                         ",
"                                          @ : e g t 8 % : e h c x h e > % < t g e > O                                           ",
"                                            % 8 9 8 = @ & , 9 9 9 9 , & @ : 8 9 8 %                                             ",
"                                              % % %       & % % % % %       % % %                                               ",
"                                                O O         O O O O         O O                                                 ",
"                                                                                                                                ",
"                                                                                                                                ",
"                                                                                                                                ",
"                                                                                                                                ",
"                                                                                                                                ",
"                                                                                                                                ",
"                                                                                                                                ",
"                                                                                                                                ",
"                                                                                                                                ",
"                                                                                                                                ",
"                                                                                                                                ",
"                                                                                                                                "
};
