/* XPM */
static char *result[] = {
/* columns rows colors chars-per-pixel */
"64 64 230 2 ",
"   c #040C26",
".  c #070F27",
"X  c #0C132B",
"o  c #091028",
"O  c #12162C",
"+  c #15182E",
"@  c #1A1A2E",
"#  c #161B31",
"$  c #191D34",
"%  c #151C37",
"&  c #231B2F",
"*  c #231E32",
"=  c #291E31",
"-  c #1C213A",
";  c #1C2036",
":  c #242335",
">  c #2C2335",
",  c #22253D",
"<  c #2D2A3B",
"1  c #292739",
"2  c #312536",
"3  c #322A3A",
"4  c #3B2C3A",
"5  c #3C2736",
"6  c #3E323F",
"7  c #442C3C",
"8  c #462A3A",
"9  c #47313E",
"0  c #50323D",
"q  c #1F2942",
"w  c #1E344A",
"e  c #232740",
"r  c #252A44",
"t  c #2C2C43",
"y  c #252C4A",
"u  c #2A2F4A",
"i  c #312E43",
"p  c #2C314D",
"a  c #25334D",
"s  c #3D3542",
"d  c #383448",
"f  c #2E3956",
"g  c #313552",
"h  c #3C3C54",
"j  c #353B5B",
"k  c #3A3F5D",
"l  c #333A55",
"z  c #393F60",
"x  c #493D46",
"c  c #473A46",
"v  c #533541",
"b  c #5D3B45",
"n  c #583944",
"m  c #433D51",
"M  c #6A3B46",
"N  c #663A46",
"B  c #733E49",
"V  c #2D425B",
"C  c #3C405E",
"Z  c #30405A",
"A  c #3C4160",
"S  c #384963",
"D  c #2A586D",
"F  c #39556E",
"G  c #3D607A",
"H  c #4D424B",
"J  c #42404F",
"K  c #53464D",
"L  c #56484E",
"P  c #58464D",
"I  c #4B4355",
"U  c #48465A",
"Y  c #524654",
"T  c #5D4D53",
"R  c #554A58",
"E  c #5B505F",
"W  c #69444B",
"Q  c #78464E",
"!  c #644A56",
"~  c #7B4D53",
"^  c #63535D",
"/  c #685456",
"(  c #76585A",
")  c #424560",
"_  c #4B4A64",
"`  c #474862",
"'  c #524E66",
"]  c #475167",
"[  c #555166",
"{  c #5B556A",
"}  c #5A5468",
"|  c #455873",
" . c #575D76",
".. c #635A6C",
"X. c #695868",
"o. c #765D66",
"O. c #625F73",
"+. c #4A617D",
"@. c #576479",
"#. c #7E6563",
"$. c #78646C",
"%. c #696678",
"&. c #7B6B75",
"*. c #746575",
"=. c #6B606A",
"-. c #84494E",
";. c #874A54",
":. c #8B5353",
">. c #89545A",
",. c #945859",
"<. c #A25D5B",
"1. c #8C615E",
"2. c #A3625E",
"3. c #B0645F",
"4. c #975B63",
"5. c #845B67",
"6. c #A35D61",
"7. c #8B6E6B",
"8. c #856968",
"9. c #956867",
"0. c #8E716A",
"q. c #87706C",
"w. c #94756C",
"e. c #9A776E",
"r. c #826D75",
"t. c #897377",
"y. c #9C7A73",
"u. c #957C7D",
"i. c #997D7E",
"p. c #937571",
"a. c #936C70",
"s. c #AC6B65",
"d. c #A86764",
"f. c #B36C67",
"g. c #B9736B",
"h. c #A8767D",
"j. c #B67A73",
"k. c #AB6F6E",
"l. c #C57A6E",
"z. c #C9796D",
"x. c #C57A71",
"c. c #D17D6F",
"v. c #A7847A",
"b. c #B38B7C",
"n. c #B68375",
"m. c #CA8678",
"M. c #D38C7C",
"N. c #D68777",
"B. c #CD907E",
"V. c #DB927E",
"C. c #D0907E",
"Z. c #E0937E",
"A. c #3D778D",
"S. c #51748B",
"D. c #747A8E",
"F. c #8D7A87",
"G. c #AB7C86",
"H. c #3D8296",
"J. c #5694A9",
"K. c #6F95A9",
"L. c #56A3B7",
"P. c #75ABBC",
"I. c #688395",
"U. c #7ABBCC",
"Y. c #8D828D",
"T. c #A38582",
"R. c #AF8B83",
"E. c #B58885",
"W. c #BC9283",
"Q. c #B9948A",
"!. c #B09599",
"~. c #9396A7",
"^. c #BE9DA5",
"/. c #AB9BA7",
"(. c #B9A5AD",
"). c #AFABB5",
"_. c #C49A8C",
"`. c #CC9E8A",
"'. c #C79684",
"]. c #D79884",
"[. c #C69D97",
"{. c #C68C8A",
"}. c #E59A84",
"|. c #D3A38C",
" X c #DAA68E",
".X c #DAA88F",
"XX c #CDA191",
"oX c #D3A593",
"OX c #DDAA93",
"+X c #D7A696",
"@X c #CCA08D",
"#X c #E4A38C",
"$X c #EAA78E",
"%X c #F4A98E",
"&X c #E1AD95",
"*X c #EEAD92",
"=X c #E6A792",
"-X c #F0AD92",
";X c #EBB49A",
":X c #E8B298",
">X c #F2B699",
",X c #F4BA9C",
"<X c #FBBC9D",
"1X c #F7B296",
"2X c #C8A8A9",
"3X c #C8ABB2",
"4X c #CEB5B7",
"5X c #F7BDA2",
"6X c #C69FA3",
"7X c #FEC09E",
"8X c #FEC3A2",
"9X c #FFCAA6",
"0X c #FFCCA8",
"qX c #FDCFB3",
"wX c #DFC0BE",
"eX c #9AB8C6",
"rX c #BABEC8",
"tX c #CFBBC2",
"yX c #A8CBD8",
"uX c #D6CBD3",
"iX c #DCD4DA",
"pX c #D0CAD1",
"aX c #F4D1C5",
"sX c #DCDDE5",
"dX c #C9DCE6",
"fX c #E3E5ED",
"gX c #E7ECF4",
"hX c #E9F0F8",
"jX c #DFE0E7",
"kX c None",
/* pixels */
"kXkXkXkXkXkXkXkXkXkXkXkXkXkXkXkXkXkXkXkXkXkXkXkXkXkXkXkXkXkXkXkXkXkXkXkXkXkXkXkXkXkXkXkXkXkXkXkXkXkXkXkXkXkXkXkXkXkXkXkXkXkXkXkX",
"kXkXkXkXkXkXkXkXkXkXkXkXkXkXkXkXkXkXkXkXkXkXkXkXkXkXkXkXkXkXkXkXkXkXkXkXkXkXkXkXkXkXkXkXkXkXkXkXkXkXkXkXkXkXkXkXkXkXkXkXkXkXkXkX",
"kXkXkXkXkXkXkXkXkXkXkXkXkXkXkXkXkXkXkXkXkXkXkXkXkXkXkXkXkXkXkXkXkXkXkXkXkXkXkXkXkXkXkXkXkXkXkXkXkXkXkXkXkXkXkXkXkXkXkXkXkXkXkXkX",
"kXkXkXkXkXkXkXkXkXkXkXkXkXkXkXkXkXkXkXkXkXkXkXkXkXkXkXkXkXkXkXkXkXkXkXkXkXkXkXkXkXkXkXkXkXkXkXkXkXkXkXkXkXkXkXkXkXkXkXkXkXkXkXkX",
"kXkXkXkXkXkXkXkXkXkXkXkXkXkXkXkXkXkXkXkXO O O O O O O O O O O O O O O O O O O O O kXkXkXkXkXkXkXkXkXkXkXkXkXkXkXkXkXkXkXkXkXkXkX",
"kXkXkXkXkXkXkXkXkXkXkXkXkXkXkXkXkXkXkX# # # # # # # @ # # # # # + # # # # # + # # kXkXkXkXkXkXkXkXkXkXkXkXkXkXkXkXkXkXkXkXkXkXkX",
"kXkXkXkXkXkXkXkXkXkXkXkXkXkXkXkXkXkX$ $ * - $ - - $ - - - - ; - - $ - - $ - - ; ; $ kXkXkXkXkXkXkXkXkXkXkXkXkXkXkXkXkXkXkXkXkXkX",
"kXkXkXkXkXkXkXkXkXkXkXkXkXkXkXkXkX$ - e r y y t t r y r r r r t y y r t y r t r e , $ kXkXkXkXkXkXkXkXkXkXkXkXkXkXkXkXkXkXkXkXkX",
"kXkXkXkXkXkXkXkXkXkXkXkXkXkXkXkXO $ e u p g g g g g g g g g g g g g g g g g g g u e ; + O kXkXkXkXkXkXkXkXkXkXkXkXkXkXkXkXkXkXkX",
"kXkXkXkXkXkXkXkXkXkXkXkXkXkXkX+ $ $ r p j z j k j k j k j k j k h k j k k k k j g r - $ # kXkXkXkXkXkXkXkXkXkXkXkXkXkXkXkXkXkXkX",
"kXkXkXkXkXkXkXkXkXkXkXkXkXkX$ - , , u g j A ) A k C k A k A z C k A k C A A A k l p e , - $ kXkXkXkXkXkXkXkXkXkXkXkXkXkXkXkXkXkX",
"kXkXkXkXkXkXkXkXkXkXkXkXkX$ - e y u g h k A A A A A A A A A A A A A A A z A A k j g p y e - $ kXkXkXkXkXkXkXkXkXkXkXkXkXkXkXkXkX",
"kXkXkXkXkXkXkXkXkXkXkXkX+ $ - u g j j k k z A A k A k k k k k k k k k k A A z k h j l g u e $ # O kXkXkXkXkXkXkXkXkXkXkXkXkXkXkX",
"kXkXkXkXkXkXkXkXkXkXkXO + # , p l k k k k k k k k k k k z k k z z k z k k k k z A A k j p e $ + O kXkXkXkXkXkXkXkXkXkXkXkXkXkXkX",
"kXkXkXkXkXkXkXkXkXkXkXO + $ , u j k z j j j k z k k A k k k k z k A k C k k j z k z z k g e $ + O kXkXkXkXkXkXkXkXkXkXkXkXkXkXkX",
"kXkXkXkXkXkXkXkXkXkXkXO + # , p j z z z z j j k k A k k z k k k k k k k k k j j j z A j p e $ # O kXkXkXkXkXkXkXkXkXkXkXkXkXkXkX",
"kXkXkXkXkXkXkXkXkXkXkXO O $ , u j k C C k k C k z z k k k z z z k k k z k C C A A A A j p e $ + O kXkXkXkXkXkXkXkXkXkXkXkXkXkXkX",
"kXkXkXkXkXkXkXkXkXkXkXO + $ q u j A _ ' } ' _ ) z z k k k k z z k k k z A ` [ [ ' ' A j p e $ + O kXkXkXkXkXkXkXkXkXkXkXkXkXkXkX",
"kXkXkXkXkXkXkXkXkXkXkXO + $ - p l ` ..*.r.*..._ z f f j j j j j j f f z ` { *.r.&..._ z p e $ + O kXkXkXkXkXkXkXkXkXkXkXkXkXkXkX",
"kXkXkXkXkXkXkXkXkXkXkXO O $ - u j ' *.i.Q.R.r.} z j f j j j j j j j f C [ *.T.R.T.r.[ z p e % + O kXkXkXkXkXkXkXkXkXkXkXkXkXkXkX",
"kXkXkXkXkXkXkXkXkXkXkXO O $ % y j [ t.Q.+XXXT.%._ A z C ) A A S z A z ) ..F._.OX_.F.X.U a q % + O kXkXkXkXkXkXkXkXkXkXkXkXkXkXkX",
"kXkXkXkXkXkXkXkXkXkXkXX O % - w j { u.XX;X:XQ.u.=.{ { ........{ ..{ ..O.t.Q.&X,X+XT...k y q % O O kXkXkXkXkXkXkXkXkXkXkXkXkXkXkX",
"kXkXkXkXkXkXkXkXkXkXkX. X O - q j { F.|.,X8X&X_.T.T.u.i.F.i.u.v.i.u.i.T.Q.+X,X8XOXT.O.m y % # X o kXkXkXkXkXkXkXkXkXkXkXkXkXkXkX",
"kXkXkXkXkXkXkXkXkXkXkXo X # ; r l { u.XX,X8X,X&X+XoXXXXX|.|.XXXXXXXXoX+XOX,X8X5X+XT.O.A y - # O o kXkXkXkXkXkXkXkXkXkXkXkXkXkXkX",
"kXkXkXkXkXkXkXkXkXkXkX: : : , u h [ t.Q.&X,X,X;X;X;X;X,X,X,X7X,X,X>X;X;X;X,X,X:X_.u.{ C p t , : : kXkXkXkXkXkXkXkXkXkXkXkXkXkXkX",
"kXkXkXkXkXkXkXkXkXkXkXc H H I C C ' =.i.W._.`.`.`.OX;X5X7X9X9X8X8X;XOX|.`._._.W.v.&.[ A h J H H x s kXkXkXkXkXkXkXkXkXkXkXkXkXkX",
"kXkXkXkXkXkXkXkXkX: x ( q.q.$.} ` ` [ X.$.7.7.p.y.R.|.>X9X9X9X8X,XOXW.y.p.7.7.8.o.[ ` ) [ #.8.7.( L < kXkXkXkXkXkXkXkXkXkXkXkXkX",
"kXkXkXkXkXkXkXkXX : K q.b.W.v.&._ A h I Y I I Y E 8.b.&X7X9X9X9X:XW.0.X.Y Y I Y U m C ` =.F.W.W.e.T < O kXkXkXkXkXkXkXkXkXkXkXkX",
"kXkXkXkXkXkXkXkXX : L e.|.:XQ.t.[ h h h m h d t d ^ i. X7X9X0X8X&Xv.o.m u i h m h h h _ *.Q.OX.Xv./ < X . kXkXkXkXkXkXkXkXkXkXkX",
"kXkXkXkXkXkXkX  X : P y..X,XXXF.[ ) U ' ^ R d t t T y.|.8X0X0X8X&Xv.^ d t d Y ^ E U A _ &._.;X:Xb./ < O   kXkXkXkXkXkXkXkXkXkXkX",
"kXkXkXkXkXkXkX  X 1 L y..X,XXXt.[ ` { t.y.8.T d t Y w.|.8X0X0X9X&Xv.T i i Y #.y.t.=.' ] &.Q.,X:Xb./ < O . kXkXkXkXkXkXkXkXkXkXkX",
"kXkXkXkXkXkXkXkXX : L y. X:XQ.t.[ [ &.R.`.E.#.x 3 H 0.`.,X9X0X8X.Xe.T 3 s ( v._.Q.t.} ] *.Q.&X.Xv./ < O   kXkXkXkXkXkXkXkXkXkXkX",
"kXkXkXkXkXkXkXkXX : K q.b.`.b.&.} X.v.`.:X|.0.x < c 8.'.-X<X5X5X|.w.P < 9 #.b.7XoXv.=.X.$.h._.'.e./ < O kXkXkXkXkXkXkXkXkXkXkXkX",
"kXkXkXkXkXkXkXkXkX: H #.e.e.0.8.o.8.b.&X7X|.0.x : 7 ( n.}.%X%X}.m.1.x : 6 #.b.7X:X'.a.o.o.7.y.e.#.L < kXkXkXkXkXkXkXkXkXkXkXkXkX",
"kXkXkXkXkXkXkXkXkXkXs H T / / :.,.k.B.;X7XB.q.x : 4 Q d.x.N.c.c.s.( 9 : s #._.7X>X].j.2.>.( / T L c kXkXkXkXkXkXkXkXkXkXkXkXkXkX",
"kXkXkXkXkXkXkXkXkXkXkX; 1 4 n ~ ,.g.C.*X:X@X0.H < 7 W 6.z.c.z.z.3.~ 9 3 H #.b.&X>XV.g.2.;.P 4 1 ; kXkXkXkXkXkXkXkXkXkXkXkXkXkXkX",
"kXkXkXkXkXkXkXkXkXkXkX. X @ 5 b :.3.m.#X$XB.v./ K W >.s.z.z.c.z.s.:.T x T 0.b.Z.#XM.f.:.W 7 * O . kXkXkXkXkXkXkXkXkXkXkXkXkXkXkX",
"kXkXkXkXkXkXkXkXkXkXkX    X = 5 N -.2.m.V.C.n.v.0.w.n.B.].}.}.].B.n.v.v.v.v.B.Z.m.s.:.W 0 = O       kXkXkXkXkXkXkXkXkXkXkXkXkXkX",
"kXkXkXkXkXkXkXkXkXkXkX. . o O & 4 0 Q 2.l.N.B.B.B.`.|.#X%X*X-X%XZ.&XB.b.B.B.C.m.s.:.b 7 = @ O X . . X o kXkXkXkXkXkXkXkXkXkXkXkX",
"kXkXkXkXkXkXkXkXkXkXkX; : : : : 1 6 W :.2.m.V. X:X>X,X>X5X1X5X1X7X7X7X7XZ.V.m.g.,.W 9 1 : @ ; : ; : ; : : kXkXkXkXkXkXkXkXkXkXkX",
"kXkXkXkXkXkXkXkXkXkXkXc H H C J U U / ~ :.2.n.C.=X*X-X%X%X%X%X=X$X-X-X$X}.m.f.6.>.! m h C J H H H H H x c kXkXkXkXkXkXkXkXkXkXkX",
"kXkXkXkXkXkXkXkXkX: H / 8.q.v.I.Y.I.%./ W Q 1.j.N.{.].].}.].}.N.C.V.B.B.j.f.,.;.~ X.O.%.*.r.q.w.w.0.7.#./ x : kXkXkXkXkXkXkXkXkX",
"kXkXkXkXkXkXkXkXX : H 1.b.@X2X4X).).I.E c 9 W :.d.f.x.x.z.z.z.z.z.g.g.2.4.;.B M ! *.D.~.~.!._.`.|.|.`.b.8.H : X kXkXkXkXkXkXkXkX",
"kXkXkXkXkXkXkXkXX : K w.`.,XqXaXuX).Y.E 3 > 9 W ;.6.3.f.x.x.x.x.g.f.2.,.;.B N N E D.F.~.(.2X:X>X7X7X,X`.0.K 1 X kXkXkXkXkXkXkXkX",
"kXkXkXkXkXkXkX  X : L w.=X5XqXaXwX(.F.U , * 8 N ;.6.G.x.{.{.{.{.{.k.4.>.-.M N 0 n O.D.F.~.[.=X1X7X7X7X&Xw.L : X   kXkXkXkXkXkXkX",
"kXkXkXkXkXkXkX  O : Y e.+X5X5X5X+XT.$.m : = 8 N ;.6.G.6X4X4X4X3X2XE.k.;.Q M v v c ) ' ..r.h.].}.1X7X7X.Xy.L : X   kXkXkXkXkXkXkX",
"kXkXkXkXkXkXkXkXX : Y e.oX1X1X=X{.k.~ c = = 8 N >.G.!.tXuXiXiXuXtX^.G.4.;.B N v v i i g n >.f.c.Z.<X7X|.w.L : X kXkXkXkXkXkXkXkX",
"kXkXkXkXkXkXkXkXO : P e.`.5X1X}.c.3.Q c * = 8 M ;.G.6XwXjXfXgXjXuX2XG.4.;.B N v 7 = * * s M >.d.m.V..Xb.0.L : X kXkXkXkXkXkXkXkX",
"kXkXkXkXkXkXkX  X : L e.|.<X<X%XV.g.:.0 = = 8 M >.G.^.uXfXgXhXfXiX3XG.4.;.-.B M 0 2 & @ > 9 W ~ 1.e.e.w.o.H : kXkXkXkXkXkXkXkXkX",
"kXkXkXkXkXkXkX  O : L w..X8X9X<X%XB.0.H > & 8 M ,.G.6XtXfXgXgXfXuX3XG.4.;.;.;.B N 7 * @ & > 7 0 P P T W L s kXkXkXkXkXkXkXkXkXkX",
"kXkXkXkXkXkXkXkXX : L w.|.<X8X7X,X|.w.L < < 7 M ;.G.^.pXdXfXgXgXuX(.G.5.;.;.;.;.M 9 > @ + @ ; : > < < < < kXkXkXkXkXkXkXkXkXkXkX",
"kXkXkXkXkXkXkXkXX : K 8.b.|..XOX.Xb.q.L < < c W 5.F./.rXdXdXdXdXrX).G.5.;.;.;.B N 7 : @ X O + + O O O O kXkXkXkXkXkXkXkXkXkXkXkX",
"kXkXkXkXkXkXkXkXkX: c / 8.w.e.e.w.q.=.] C Z U } *.F.~.eXeXyXyXyXeX~.F.D.X.! b v 7 2 * # X X X X . . . kXkXkXkXkXkXkXkXkXkXkXkXkX",
"kXkXkXkXkXkXkXkXkXkXkXH H K K K L L U ] ] |  . .S.D.K.U.U.U.U.U.P.K.D.S.{ m d i : * # O + O kXkXkXkXkXkXkXkXkXkXkXkXkXkXkXkXkXkX",
"kXkXkXkXkXkXkXkXkXkXkX1 : : : : : t Z S | +.+.+.S.S.S.S.L.L.L.L.L.D.S.S.| U d : $ @ @ O + kXkXkXkXkXkXkXkXkXkXkXkXkXkXkXkXkXkXkX",
"kXkXkXkXkXkXkXkXkXkXkXkXX O o o X ; a S F F | F A A.A.A.A.A.H.H.A.S.S.S.O.' x 4 2 = # @ + kXkXkXkXkXkXkXkXkXkXkXkXkXkXkXkXkXkXkX",
"kXkXkXkXkXkXkXkXkXkXkXkXkXkXkXkXkX% q a V V V V V V S D D D D D A.| *.&.8.5.~ W 0 4 : @ O kXkXkXkXkXkXkXkXkXkXkXkXkXkXkXkXkXkXkX",
"kXkXkXkXkXkXkXkXkXkXkXkXkXkXkXkXkXkX- q q r r , w , w w w w w w g I o.4.d.d.6.,.Q 0 1 @ O kXkXkXkXkXkXkXkXkXkXkXkXkXkXkXkXkXkXkX",
"kXkXkXkXkXkXkXkXkXkXkXkXkXkXkXkXkXkXkX; + + ; + + # + # ; % + ; 2 v ~ 4.3.3.d.<.:.n 3 @ X kXkXkXkXkXkXkXkXkXkXkXkXkXkXkXkXkXkXkX",
"kXkXkXkXkXkXkXkXkXkXkXkXkXkXkXkXkXkXkXkXO O X O X X O X X . o O = v B ;.:.,.:.:.Q n 5 $ kXkXkXkXkXkXkXkXkXkXkXkXkXkXkXkXkXkXkXkX",
"kXkXkXkXkXkXkXkXkXkXkXkXkXkXkXkXkXkXkXkXkXkXkXkXkXkXkXkXkXkXkXkXkX7 0 0 N N N 0 0 9 2 kXkXkXkXkXkXkXkXkXkXkXkXkXkXkXkXkXkXkXkXkX",
"kXkXkXkXkXkXkXkXkXkXkXkXkXkXkXkXkXkXkXkXkXkXkXkXkXkXkXkXkXkXkXkXkXkX2 < 2 2 < 5 < < kXkXkXkXkXkXkXkXkXkXkXkXkXkXkXkXkXkXkXkXkXkX",
"kXkXkXkXkXkXkXkXkXkXkXkXkXkXkXkXkXkXkXkXkXkXkXkXkXkXkXkXkXkXkXkXkXkX+ + + + + + + kXkXkXkXkXkXkXkXkXkXkXkXkXkXkXkXkXkXkXkXkXkXkX",
"kXkXkXkXkXkXkXkXkXkXkXkXkXkXkXkXkXkXkXkXkXkXkXkXkXkXkXkXkXkXkXkXkXkXX X O X X X X kXkXkXkXkXkXkXkXkXkXkXkXkXkXkXkXkXkXkXkXkXkXkX"
};