/* XPM */
static char *c1263f9258a447d88a36bb9c8c0be6d9FbrJgiFKb1zgBcU6[] = {
/* columns rows colors chars-per-pixel */
"64 64 152 2 ",
"   c None",
".  c #070D2A",
"X  c #0B102B",
"o  c #10152D",
"O  c #191C30",
"+  c #1E2232",
"@  c #242634",
"#  c #272934",
"$  c #282A35",
"%  c #2F3037",
"&  c #2F3038",
"*  c #35363A",
"=  c #3A3A3B",
"-  c #41413F",
";  c #48473F",
":  c #4C4A42",
">  c #514F44",
",  c #565346",
"<  c #585447",
"1  c #5F5C49",
"2  c #5C5A46",
"3  c #605D47",
"4  c #635E4A",
"5  c #63624A",
"6  c #6A674D",
"7  c #6C684E",
"8  c #76714F",
"9  c #686550",
"0  c #716B50",
"q  c #767351",
"w  c #7A7453",
"e  c #7F7855",
"r  c #817A56",
"t  c #807C5E",
"y  c #56A537",
"u  c #57A638",
"i  c #5AA73A",
"p  c #5DA93C",
"a  c #61AA3E",
"s  c #6BAF3F",
"d  c #65AC41",
"f  c #68AD42",
"g  c #67AE48",
"h  c #68AE48",
"j  c #6FB143",
"k  c #6CB14D",
"l  c #72B245",
"z  c #7FB64B",
"x  c #75B349",
"c  c #73B453",
"v  c #79B85D",
"b  c #75B75B",
"n  c #8D855B",
"m  c #8C8E58",
"M  c #8B8456",
"N  c #99925D",
"B  c #999F5B",
"V  c #A3995F",
"C  c #86BC4D",
"Z  c #89BD4F",
"A  c #81BA56",
"S  c #8ABD51",
"D  c #90BD52",
"F  c #99BE57",
"G  c #A6B05F",
"H  c #A6B95E",
"J  c #9E9461",
"K  c #9F996E",
"L  c #A09D60",
"P  c #A99E64",
"I  c #82BD66",
"U  c #A4A760",
"Y  c #ACA065",
"T  c #ACA46E",
"R  c #BCB26B",
"E  c #BDBD69",
"W  c #BEB67E",
"Q  c #CABD6E",
"!  c #CBBE70",
"~  c #96C45E",
"^  c #A6C35D",
"/  c #A6CC5B",
"(  c #A8CC5E",
")  c #91C46A",
"_  c #8CC476",
"`  c #98CA7E",
"'  c #B2C163",
"]  c #BBCE66",
"[  c #B0D168",
"{  c #A5CD71",
"}  c #BEDA77",
"|  c #C3DA67",
" . c #C2D768",
".. c #CDD36E",
"X. c #C4DA69",
"o. c #CEC072",
"O. c #CEC37C",
"+. c #D1C373",
"@. c #D3C872",
"#. c #D7CA78",
"$. c #CBDD71",
"%. c #D6D273",
"&. c #D9DF72",
"*. c #E2D678",
"=. c #E6DA7A",
"-. c #EADD7C",
";. c #DDE473",
":. c #D5E47D",
">. c #E0E775",
",. c #E4E279",
"<. c #EBE57B",
"1. c #EEE97B",
"2. c #B8B180",
"3. c #9ECF8B",
"4. c #A7D184",
"5. c #B9DA89",
"6. c #AED697",
"7. c #BDDE9F",
"8. c #B2DAA0",
"9. c #DCD28E",
"0. c #D0C991",
"q. c #E7DC87",
"w. c #CFE48B",
"e. c #E8EA80",
"r. c #E3EC8B",
"t. c #F3EB83",
"y. c #F6EA8C",
"u. c #F1F089",
"i. c #FBF08B",
"p. c #E0EE9F",
"a. c #F2E898",
"s. c #FAF692",
"d. c #F0F49A",
"f. c #FEF69B",
"g. c #E1DBA4",
"h. c #CEE6A1",
"j. c #C3E3AF",
"k. c #D2EAB7",
"l. c #E7E0A1",
"z. c #F9F9A6",
"x. c #F7F0AB",
"c. c #FDF9AC",
"v. c #F0EBB3",
"b. c #E1F0B6",
"n. c #EFF6B0",
"m. c #F8F5BB",
"M. c #F8F9BA",
"N. c #D5ECC0",
"B. c #EEF6C4",
"V. c #E7F3C8",
"C. c #F5F7C8",
"Z. c #F5F3C1",
/* pixels */
"                                                                                                                                ",
"                                                                                                                                ",
"                                                                                                                                ",
"                                                                                                                                ",
"                                                                                                                                ",
"                                                                                                                                ",
"                                                                                                                                ",
"                                                                                                                                ",
"                                                                                                                                ",
"                                                                                                                                ",
"                                                                                                                                ",
"                                              . . . . X . X . . . . . . . . . X .                                               ",
"                                              o o o o o o o o o o o X o o o o X o                                               ",
"                                              @ + + + + + + + + + + + + + @ + + +                                               ",
"                                            % % * * * * * * * * * * * = * * * * * &                                             ",
"                                            - ; ; > , , < < < 2 < < < < < < < : : -                                             ",
"                                        @ * ; 5 7 8 w r r r r r r r r r r r w 0 4 : = @                                         ",
"                                      o # - 2 8 M N V V Y V V P P Y Y Y P P L n w < : $ o                                       ",
"                                    X O & : 7 M P R Q +.@.@.+.! ! ! ! #.! ! R U n 7 : & O X                                     ",
"                                  o O # = < w N R #.=.q.-.-.-.=.=.-.-.-.-.*.+.R N q < = $ O X                                   ",
"                                + # & = : 9 n T O.q.y.i.i.i.1.<.-.<.<.1.<.=.%.Q J M 5 : = & $ @                                 ",
"                                = - : < 9 e K 2.9.a.f.f.i.y.e.>.,.>.>.>.>.&...' U m q 5 < : : *                                 ",
"                            % - : 2 9 w n K 2.0.l.x.c.z.d.r.w.$.|  .| | |  . .' U N m k 0 7 4 > : $                             ",
"                      . o + * ; 3 8 n K T 2.0.l.v.M.M.n.p.w. .[ / / / / / / ^ ^ H U P J N n w 4 : & + o .                       ",
"                      . o + * ; 7 M U R 0.9.l.v.Z.C.B.b.h.5.{ ~ Z C C C C Z D F ^ ' ' E R P n 0 > * + o .                       ",
"                      . o + * , 8 N R #.q.a.x.n.C.V.V.k.7.4.) v x s s s s s C D ^ ] %.%.@.R J w , * + o .                       ",
"                      . o + * , r V Q =.y.f.c.m.B.V.N.j.6.` I c f a i a a s l Z (  .&.,.*.! P e , * + o .                       ",
"                      . X + * , r V +.q.i.f.z.n.b.k.j.8.3._ v k a a y y i a j Z / X.;.1.-.+.P r < * + o .                       ",
"                      . o + * < r V +.-.i.i.d.p.h.7.6.3._ I c g a i y y y a j C / X.>.1.-.+.P r < * + o .                       ",
"                      . o + * < r V +.-.i.u.r.w.5.4.` _ I b k g a i y y i a j Z / X.>.1.-.#.P r < * + o .                       ",
"                      . o + * < r Y +.-.1.e.:.$.{ ) I v c k g d a p i y a a j Z ( | ;.<.=.+.P r , = + o .                       ",
"                      . o + * < r V o.=.1.>.$.[ ~ A c h g g d d a a a i a f l Z (  .;.<.=.! P r < * + o .                       ",
"                      . o + * < r P o.=.<.;.| / ~ x f a d p a a a a p p p d l S / X.;.<.=.o.P r , * + o .                       ",
"                      . X + = < r P o.-.<.&.| / C s a i u i p a a a p i p d l Z / X.;.<.=.o.P r < * + o .                       ",
"                      . o @ * < r P o.-.1.;.| / z s p u y u i p p p i i p a h Z ( X.>.1.-.+.Y r < * + o .                       ",
"                      X X + * < r Y +.<.1.;.| / C s i y y u i i p i i y p a f Z / X.>.1.<.+.Y r < * + o .                       ",
"                      . o @ * < r P +.-.1.;.| / C s a p i i p p a p p i p a l Z ( | ;.<.-.+.P r < * + o .                       ",
"                      . o O * < r P Q *.=.&. ./ C s s a p a d d d a a a a f l S (  .&.,.*.! P e < = + o .                       ",
"                      . o @ * > w J Q +.....] / Z C l l j j j l l l l h l l C D ^ ] ..%.@.R J w , * O o .                       ",
"                      . o O * > 0 M P R Q E ' H F D Z Z S C S S Z Z C Z C Z D F ^ ' E E R P n 0 > * + o .                       ",
"                      X o O & : 4 8 n N J U G H ^ ^ / / / / / / ^ / / / / ( ^ ^ H G U L N n w 4 : * + o .                       ",
"                            & : > 4 7 w M m B G ' ]  .X.X.X.|  . .X.X.X.X. .] ' G B m r q 9 1 > = *                             ",
"                                * - : , 4 0 m U ' ..&.,.>.>.;.;.;.;.>.>.>.&...E U m q 5 , : : =                                 ",
"                                # $ & * : 4 k J Q @.<.<.1.1.1.<.,.1.1.1.<.,.%.R B M 5 : * & @ $                                 ",
"                                  o O @ = < 0 J Y @.*.-.q.-.=.=.=.=.-.-.-.*.! R N q , * @ O o                                   ",
"                                    X O & : 0 r P Q ! +.@.+.+.! o.+.+.+.+.! Q P n 9 : & O X                                     ",
"                                      O $ - 4 w n L P Y P Y P P P P P Y P P L n w 2 : # X                                       ",
"                                        @ = > 4 0 w r r r r t e r r r r r r w 0 4 , * @                                         ",
"                                            - : > > < < < < < < < < < < < , , > : :                                             ",
"                                            & * * * * * * = * * * * * * * * * * & &                                             ",
"                                              + @ O + + + + + + + + + + + + + + O                                               ",
"                                              o o o o o o o o o o o o o o o o o o                                               ",
"                                              . . . . . . . . . . X . . . . . . .                                               ",
"                                                                                                                                ",
"                                                                                                                                ",
"                                                                                                                                ",
"                                                                                                                                ",
"                                                                                                                                ",
"                                                                                                                                ",
"                                                                                                                                ",
"                                                                                                                                ",
"                                                                                                                                ",
"                                                                                                                                ",
"                                                                                                                                "
};