/* XPM */
static char *result[] = {
/* columns rows colors chars-per-pixel */
"64 64 127 2 ",
"   c red",
".  c #FF0101",
"X  c #FF0202",
"o  c #FF0303",
"O  c #FF0404",
"+  c #FF0505",
"@  c #FF0606",
"#  c #FF0707",
"$  c #FF0808",
"%  c #FF0909",
"&  c #FF0A0A",
"*  c #FF0B0B",
"=  c #FF0C0C",
"-  c #FF0D0D",
";  c #FF0E0E",
":  c #FF0F0F",
">  c #FF1010",
",  c #FF1111",
"<  c #FF1212",
"1  c #FF1313",
"2  c #FF1414",
"3  c #FF1515",
"4  c #FF1616",
"5  c #FF1717",
"6  c #FF1818",
"7  c #FF1919",
"8  c #FF1A1A",
"9  c #FF1B1B",
"0  c #FF1C1C",
"q  c #FF1D1D",
"w  c #FF1E1E",
"e  c #FF1F1F",
"r  c #FF2020",
"t  c #FF2121",
"y  c #FF2222",
"u  c #FF2323",
"i  c #FF2424",
"p  c #FF2525",
"a  c #FF2626",
"s  c #FF2727",
"d  c #FF2828",
"f  c #FF2929",
"g  c #FF2A2A",
"h  c #FF2B2B",
"j  c #FF2C2C",
"k  c #FF2D2D",
"l  c #FF2E2E",
"z  c #FF2F2F",
"x  c #FF3030",
"c  c #FF3232",
"v  c #FF3333",
"b  c #FF3434",
"n  c #FF3535",
"m  c #FF3636",
"M  c #FF3737",
"N  c #FF3838",
"B  c #FF3A3A",
"V  c #FF3B3B",
"C  c #FF3C3C",
"Z  c #FF3D3D",
"A  c #FF3E3E",
"S  c #FF3F3F",
"D  c #FF4141",
"F  c #FF4242",
"G  c #FF4343",
"H  c #FF4444",
"J  c #FF4646",
"K  c #FF4747",
"L  c #FF4949",
"P  c #FF4A4A",
"I  c #FF4B4B",
"U  c #FF4D4D",
"Y  c #FF4E4E",
"T  c #FF4F4F",
"R  c #FF5050",
"E  c #FF5151",
"W  c #FF5252",
"Q  c #FF5353",
"!  c #FF5454",
"~  c #FF5656",
"^  c #FF5757",
"/  c #FF5858",
"(  c #FF5959",
")  c #FF5A5A",
"_  c #FF5B5B",
"`  c #FF5C5C",
"'  c #FF5D5D",
"]  c #FF5E5E",
"[  c #FF5F5F",
"{  c #FF6060",
"}  c #FF6161",
"|  c #FF6262",
" . c #FF6363",
".. c #FF6464",
"X. c #FF6565",
"o. c #FF6666",
"O. c #FF6767",
"+. c #FF6868",
"@. c #FF6A6A",
"#. c #FF6B6B",
"$. c #FF6D6D",
"%. c #FF6E6E",
"&. c #FF6F6F",
"*. c #FF7171",
"=. c #FF7272",
"-. c #FF7373",
";. c #FF7474",
":. c #FF7575",
">. c #FF7676",
",. c #FF7878",
"<. c #FF7979",
"1. c #FF7A7A",
"2. c #FF7B7B",
"3. c #FF7C7C",
"4. c #FF7D7D",
"5. c #FF7E7E",
"6. c #FF7F7F",
"7. c #FF8181",
"8. c #FF8282",
"9. c #FF8383",
"0. c #FF8585",
"q. c #FF8686",
"w. c #FF8787",
"e. c #FF8888",
"r. c #FF8989",
"t. c #FF8B8B",
"y. c None",
/* pixels */
"y.y.y.y.y.y.y.y.y.y.y.y.y.y.y.y.y.y.y.y.y.y.y.y.y.y.y.y.y.y.y.y.y.y.y.y.y.y.y.y.y.y.y.y.y.y.y.y.y.y.y.y.y.y.y.y.y.y.y.y.y.y.y.y.",
"y.y.y.y.y.y.y.y.y.y.y.y.y.y.y.y.y.y.y.y.y.y.y.y.y.y.y.y.y.y.y.y.y.y.y.y.y.y.y.y.y.y.y.y.y.y.y.y.y.y.y.y.y.y.y.y.y.y.y.y.y.y.y.y.",
"y.y.y.y.y.y.y.y.y.y.y.y.y.y.y.y.y.y.y.y.y.y.y.y.y.y.y.y.y.y.y.y.y.y.y.y.y.y.y.y.y.y.y.y.y.y.y.y.y.y.y.y.y.y.y.y.y.y.y.y.y.y.y.y.",
"y.y.y.y.y.y.y.y.y.y.y.y.y.y.y.y.y.y.y.y.y.y.y.y.y.y.y.y.y.O.f 2 7 z X.y.y.y.y.y.y.y.y.y.y.y.y.y.y.y.y.y.y.y.y.y.y.y.y.y.y.y.y.y.",
"y.y.y.y.y.y.y.y.y.y.y.y.y.y.y.y.y.y.y.y.y.y.y.y.y.y.y.y.8             7 y.y.y.y.y.y.y.y.y.y.y.y.y.y.y.y.y.y.y.y.y.y.y.y.y.y.y.y.",
"y.y.y.y.y.y.y.y.y.y.y.y.y.y.y.y.y.y.y.y.y.y.y.y.y.y.y.*                 = y.y.y.y.y.y.y.y.y.y.y.y.y.y.y.y.y.y.y.y.y.y.y.y.y.y.y.",
"y.y.y.y.y.y.y.y.y.y.y.y.y.y.y.y.y.y.y.y.y.y.y.y.y.y.u                     u y.y.y.y.y.y.y.y.y.y.y.y.y.y.y.y.y.y.y.y.y.y.y.y.y.y.",
"y.y.y.y.y.y.y.y.y.y.y.y.y.y.y.y.y.y.y.y.y.y.y.y.y.0.                        0.y.y.y.y.y.y.y.y.y.y.y.y.y.y.y.y.y.y.y.y.y.y.y.y.y.",
"y.y.y.y.y.y.y.y.y.y.y.y.y.y.y.y.y.y.y.y.y.y.y.y.y.S                         S y.y.y.y.y.y.y.y.y.y.y.y.y.y.y.y.y.y.y.y.y.y.y.y.y.",
"y.y.y.y.y.y.y.y.y.y.y.y.y.y.y.y.y.y.y.y.y.y.y.3.k o                         o k 4.y.y.y.y.y.y.y.y.y.y.y.y.y.y.y.y.y.y.y.y.y.y.y.",
"y.y.y.y.y.y.k & c y.y.y.y.y.y.y.y.y.y.y.y.y.a                                     s y.y.y.y.y.y.y.y.y.y.y.y.y.v & k y.y.y.y.y.y.",
"y.y.y.y.y.P       R y.y.y.y.y.y.y.y.y.y.$.$                                         $ &.y.y.y.y.y.y.y.y.y.y.W       K y.y.y.y.y.",
"y.y.y.y.y.n       m y.y.y.y.y.y.y.y.y.*..                                             X :.y.y.y.y.y.y.y.y.y.M       c y.y.y.y.y.",
"y.y.y.y.y.m       j y.y.y.y.y.y.y.y.y.-                                                 ; y.y.y.y.y.y.y.y.y.k       m y.y.y.y.y.",
"y.y.y.y.y.B       u y.y.y.y.y.y.y.y.Q                                                     T y.y.y.y.y.y.y.y.i       B y.y.y.y.y.",
"y.y.y.y.y.U       1 y.y.y.y.y.y.y.y.u                                                     t y.y.y.y.y.y.y.y.3       U y.y.y.y.y.",
"y.y.y.y.y.+.      $ y.y.y.y.y.y.y.y.4                                                     3 y.y.y.y.y.y.y.y.%       @.y.y.y.y.y.",
"y.y.y.y.y.q.        y.y.y.y.y.y.y.y.4                                                     2 y.y.y.y.y.y.y.0.        w.y.y.y.y.y.",
"y.y.y.y.y.y.$       Q y.y.y.y.y.y.y.7                                                     5 y.y.y.y.y.y.y.W       $ y.y.y.y.y.y.",
"y.y.y.y.y.y.e       y y.y.y.y.y.y.y.a                                                     u y.y.y.y.y.y.y.t       w y.y.y.y.y.y.",
"y.y.y.y.y.y.E       X y.y.y.y.y.y.y.Y                                                     L y.y.y.y.y.y.y.X       R y.y.y.y.y.y.",
"y.y.y.y.y.y.y.o       N y.y.y.y.y.y.y.o                                                 X y.y.y.y.y.y.y.m       X y.y.y.y.y.y.y.",
"y.y.y.y.y.y.y.p       O e.y.y.y.y.y.y.D                                                 F y.y.y.y.y.y.w.O       i y.y.y.y.y.y.y.",
"y.y.y.y.y.y.y.,.        8 y.y.y.y.y.y.y.N                                             Z y.y.y.y.y.y.y.9         >.y.y.y.y.y.y.y.",
"y.y.y.y.y.y.y.y.d         h y.y.y.y.y.y.y.;.w .                                 X r ,.y.y.y.y.y.y.y.k         a y.y.y.y.y.y.y.y.",
"y.y.y.y.y.y.y.y.y.@         h y.y.y.y.y.y.y.y.y.] v 3 % # @ + + + + @ # % 3 v [ y.y.y.y.y.y.y.y.y.h         + y.y.y.y.y.y.y.y.y.",
"y.y.y.y.y.y.y.y.y.o.          & S y.y.y.y.y.y.y.y.y.y.y.y.y.y.y.y.y.y.y.y.y.y.y.y.y.y.y.y.y.y.| ,           } y.y.y.y.y.y.y.y.y.",
"y.y.y.y.y.y.y.y.y.y.!             + h >.y.y.y.y.y.y.y.y.y.y.y.y.y.y.y.y.y.y.y.y.y.y.y.y.y.I 1             R y.y.y.y.y.y.y.y.y.y.",
"y.y.y.y.y.y.y.y.y.y.y.Q                 , V 5.y.y.y.y.y.y.y.y.y.y.y.y.y.y.y.y.y.y.y.~ t O             . W y.y.y.y.y.y.y.y.y.y.y.",
"y.y.y.y.y.y.y.y.y.y.y.y.) X                   = y L %.y.y.y.y.y.y.y.y.y.y.;.R g > o                 # $.y.y.y.y.y.y.y.y.y.y.y.y.",
"y.y.y.y.y.y.y.y.y.y.y.y.y.4                             X $ - : > ; $ o .                           0 y.y.y.y.y.y.y.y.y.y.y.y.y.",
"y.y.y.y.y.y.y.y.y.y.y.y.y.2                                                                         < y.y.y.y.y.y.y.y.y.y.y.y.y.",
"y.y.y.y.y.y.y.y.y.y.y.y.y.-                                                                         = y.y.y.y.y.y.y.y.y.y.y.y.y.",
"y.y.y.y.y.y.y.y.y.y.y.y.y.=                                 + H J +                                 = y.y.y.y.y.y.y.y.y.y.y.y.y.",
"y.y.#.{ ' ' _ / / ^ ~ ~ Z O                                 | y.y.]                                 O G / ~ ~ ~ ~ ~ ~ ~ ~ ( y.y.",
"5.@                                                       2 y.y.y.y.1                                                       # 8.",
"b                                                         C y.y.y.y.Z                                                         b ",
"W                                                          .y.y.y.y.X.                                                        ! ",
"y.T y e e w w w w w w w w =                               :.y.y.y.y.>.                              = w w w w w w w w e e i T y.",
"y.y.y.y.y.y.y.y.y.y.y.y.y.X.                              ,.y.y.y.y.,.                              ..y.y.y.y.y.y.y.y.y.y.y.y.y.",
"y.y.y.y.y.y.y.y.y.y.y.y.y.y.O                             2.y.y.y.y.3.                            O y.y.y.y.y.y.y.y.y.y.y.y.y.y.",
"y.y.y.y.y.y.y.y.y.y.y.y.y.y.t                             5.y.y.y.y.5.                            t y.y.y.y.y.y.y.y.y.y.y.y.y.y.",
"y.y.y.y.y.y.y.y.y.y.y.y.y.y.b                             7.y.y.y.y.6.                            v y.y.y.y.y.y.y.y.y.y.y.y.y.y.",
"y.y.y.y.y.y.y.y.y.y.y.y.=.p O                             7.y.y.y.y.7.                            O p *.y.y.y.y.y.y.y.y.y.y.y.y.",
"y.y.y.y.y.y.y.y.y.y.3.w                                   9.y.y.y.y.9.                                  w 1.y.y.y.y.y.y.y.y.y.y.",
"y.y.y.y.y.y.y.y.y.N                                       w.y.y.y.y.w.                                      M y.y.y.y.y.y.y.y.y.",
"y.y.y.y.y.y.y.y.8               O                         w.y.y.y.y.w.                        o               8 y.y.y.y.y.y.y.y.",
"y.y.y.y.y.y.y.<           # C y.1.@                       w.y.y.y.y.w.                      @ <.y.C #           < y.y.y.y.y.y.y.",
"y.y.y.y.y.y.0           c y.y.y.y.E                       w.y.y.y.y.w.                      Y y.y.y.y.c           0 y.y.y.y.y.y.",
"y.y.y.y.y.A         O  .y.y.y.y.y.y.s                     w.y.y.y.y.w.                    p y.y.y.y.y.y. .O         A y.y.y.y.y.",
"y.y.y.y.y.X       + -.y.y.y.y.y.y.y.y.1                   w.y.y.y.y.w.                  < y.y.y.y.y.y.y.y.=.+       X t.y.y.y.y.",
"y.y.y.y.z         } y.y.y.y.y.y.y.y.y.y.*                 w.y.y.y.y.w.                = y.y.y.y.y.y.y.y.y.y.]         l y.y.y.y.",
"y.y.y.y.@       d y.y.y.y.y.y.y.y.y.y.y.r.-               w.y.y.y.y.w.              - y.y.y.y.y.y.y.y.y.y.y.y.p       @ y.y.y.y.",
"y.y.y.|         7.y.y.y.y.y.y.y.y.y.y.y.y.y.4             r.y.y.y.y.w.            4 y.y.y.y.y.y.y.y.y.y.y.y.y.6.        { y.y.y.",
"y.y.y.x       6 y.y.y.y.y.y.y.y.y.y.y.y.y.y.y.n           r.y.y.y.y.w.          n y.y.y.y.y.y.y.y.y.y.y.y.y.y.y.4       z y.y.y.",
"y.y.y.,       Z y.y.y.y.y.y.y.y.y.y.y.y.y.y.y.y.$.<       r.y.y.y.y.r.      < $.y.y.y.y.y.y.y.y.y.y.y.y.y.y.y.y.S       > y.y.y.",
"y.y.y.+       [ y.y.y.y.y.y.y.y.y.y.y.y.y.y.y.y.y.y.` 2   w.y.y.y.y.w.  2 ) y.y.y.y.y.y.y.y.y.y.y.y.y.y.y.y.y.y.|       + y.y.y.",
"y.y.y.o       y.y.y.y.y.y.y.y.y.y.y.y.y.y.y.y.y.y.y.y.y.,.y.y.y.y.y.y.<.y.y.y.y.y.y.y.y.y.y.y.y.y.y.y.y.y.y.y.y.9.      o y.y.y.",
"y.y.y.o       y.y.y.y.y.y.y.y.y.y.y.y.y.y.y.y.y.y.y.y.y.y.y.y.y.y.y.y.y.y.y.y.y.y.y.y.y.y.y.y.y.y.y.y.y.y.y.y.y.y..     o y.y.y.",
"y.y.y.*     = y.y.y.y.y.y.y.y.y.y.y.y.y.y.y.y.y.y.y.y.y.y.y.y.y.y.y.y.y.y.y.y.y.y.y.y.y.y.y.y.y.y.y.y.y.y.y.y.y.y.=     & y.y.y.",
"y.y.y.y.q 8 ,.y.y.y.y.y.y.y.y.y.y.y.y.y.y.y.y.y.y.y.y.y.y.y.y.y.y.y.y.y.y.y.y.y.y.y.y.y.y.y.y.y.y.y.y.y.y.y.y.y.y.-.0 4 3.y.y.y.",
"y.y.y.y.y.y.y.y.y.y.y.y.y.y.y.y.y.y.y.y.y.y.y.y.y.y.y.y.y.y.y.y.y.y.y.y.y.y.y.y.y.y.y.y.y.y.y.y.y.y.y.y.y.y.y.y.y.y.y.y.y.y.y.y.",
"y.y.y.y.y.y.y.y.y.y.y.y.y.y.y.y.y.y.y.y.y.y.y.y.y.y.y.y.y.y.y.y.y.y.y.y.y.y.y.y.y.y.y.y.y.y.y.y.y.y.y.y.y.y.y.y.y.y.y.y.y.y.y.y.",
"y.y.y.y.y.y.y.y.y.y.y.y.y.y.y.y.y.y.y.y.y.y.y.y.y.y.y.y.y.y.y.y.y.y.y.y.y.y.y.y.y.y.y.y.y.y.y.y.y.y.y.y.y.y.y.y.y.y.y.y.y.y.y.y."
};
