/* XPM */
static char *result[] = {
/* columns rows colors chars-per-pixel */
"64 64 179 2 ",
"   c #010319",
".  c #090D24",
"X  c #0C1026",
"o  c #0F1328",
"O  c #12162D",
"+  c #15192F",
"@  c #181329",
"#  c #171B31",
"$  c #191D33",
"%  c #1B0B21",
"&  c #2A0C22",
"*  c #3E172D",
"=  c #271B31",
"-  c #1C2136",
";  c #1E223A",
":  c #21253C",
">  c #25293E",
",  c #450F25",
"<  c #621C32",
"1  c #262A41",
"2  c #292D43",
"3  c #3B2F45",
"4  c #2E3246",
"5  c #2E3249",
"6  c #303347",
"7  c #313449",
"8  c #393C4F",
"9  c #373A4D",
"0  c #2E3451",
"q  c #313651",
"w  c #363A53",
"e  c #3A3E54",
"r  c #393E59",
"t  c #562E44",
"y  c #7C354B",
"u  c #3D425A",
"i  c #404356",
"p  c #41465E",
"a  c #45495C",
"s  c #494D5F",
"d  c #464A62",
"f  c #4A4E65",
"g  c #464C69",
"h  c #4E5164",
"j  c #4D526A",
"k  c #525566",
"l  c #52566C",
"z  c #5A5268",
"x  c #595C6D",
"c  c #56596D",
"v  c #484D70",
"b  c #4D5374",
"n  c #545971",
"m  c #5C5F71",
"M  c #53597A",
"N  c #74566B",
"B  c #5E6172",
"V  c #5D627D",
"C  c #616474",
"Z  c #62667D",
"A  c #6A6D7D",
"S  c #666978",
"D  c #6D707F",
"F  c #862A40",
"G  c #A14458",
"H  c #955E71",
"J  c #B75A6D",
"K  c #9A6376",
"L  c #B36C7D",
"P  c #565C81",
"I  c #5C6180",
"U  c #626781",
"Y  c #666A83",
"T  c #696D85",
"R  c #646A8F",
"E  c #6A6E89",
"W  c #6E7182",
"Q  c #6E728B",
"!  c #727586",
"~  c #71758D",
"^  c #7A7C8A",
"/  c #777A88",
"(  c #6D7395",
")  c #6D749B",
"_  c #727791",
"`  c #757993",
"'  c #7A7C94",
"]  c #767B9B",
"[  c #686E93",
"{  c #757BA1",
"}  c #797FA3",
"|  c #B87082",
" . c #C47D8E",
".. c #7E808F",
"X. c #7D8194",
"o. c #7E829D",
"O. c #7C81A5",
"+. c #7E84A8",
"@. c #828492",
"#. c #868996",
"$. c #81859E",
"%. c #8B8D9C",
"&. c #878A99",
"*. c #948398",
"=. c #8E909F",
"-. c #AC8D9E",
";. c #8186A5",
":. c #858AAB",
">. c #898EAA",
",. c #8C8FA6",
"<. c #8E92AC",
"1. c #8E92A2",
"2. c #9294A2",
"3. c #9799A5",
"4. c #989AA7",
"5. c #9094AD",
"6. c #959BAB",
"7. c #9B9DAA",
"8. c #888EB1",
"9. c #878DB0",
"0. c #8D93B4",
"q. c #9196B3",
"w. c #9599B4",
"e. c #9A9CB4",
"r. c #969AB9",
"t. c #999EBA",
"y. c #AE9EB5",
"u. c #BF9FB2",
"i. c #B495A5",
"p. c #9DA0AD",
"a. c #9DA1BE",
"s. c #9EA3B4",
"d. c #A6A9BE",
"f. c #ABADBB",
"g. c #A8A9BA",
"h. c #AEB0BB",
"j. c #C68FA1",
"k. c #C69CAB",
"l. c #C9A0AE",
"z. c #C8A4B4",
"x. c #9EA3C2",
"c. c #A2A7C1",
"v. c #A6AAC4",
"b. c #ABAEC4",
"n. c #ACAFC8",
"m. c #B5ADC1",
"M. c #ADB1C5",
"N. c #AFB2CA",
"B. c #B2B5C5",
"V. c #B1B5CB",
"C. c #B6B9CD",
"Z. c #BBBDCB",
"A. c #B7BAC7",
"S. c #B6BAD1",
"D. c #BABDD1",
"F. c #B4B7D0",
"G. c #C7BBC9",
"H. c #BEC0CE",
"J. c #BEC1D3",
"K. c #C3C4CE",
"L. c #CEC0CD",
"P. c #C1C4D4",
"I. c #CDCED7",
"U. c #C3C6D9",
"Y. c #CCCDDC",
"T. c #C7C9D8",
"R. c #CFD1DE",
"E. c #D0D2DF",
"W. c #CFD1E1",
"Q. c #D3D4E2",
"!. c #D6D9E4",
"~. c #DBDCE6",
"^. c #DDDEE8",
"/. c #DFE0E8",
"(. c #E2E3EB",
"). c #E8E8EF",
"_. c #E7E8F2",
"`. c #E9EAF4",
"'. c None",
/* pixels */
"'.'.'.'.'.'.'.'.'.'.'.'.'.'.'.'.'.'.'.'.X X X X . . . . . . . . . . . . . . . . X X X X '.'.'.'.'.'.'.'.'.'.'.'.'.'.'.'.'.'.'.'.",
"'.'.'.'.'.'.'.'.'.'.'.'.'.'.'.'.'.'.'.'.+ + + + + + + + + + + + + + + + + + + + + + + + '.'.'.'.'.'.'.'.'.'.'.'.'.'.'.'.'.'.'.'.",
"'.'.'.'.'.'.'.'.'.'.'.'.'.'.'.'.'.'.'.'.1 1 2 2 4 4 6 6 6 6 6 6 6 6 6 6 6 6 4 4 2 2 1 1 '.'.'.'.'.'.'.'.'.'.'.'.'.'.'.'.'.'.'.'.",
"'.'.'.'.'.'.'.'.'.'.'.'.'.'.'.'.'.'.'.5 e p d j l x B x m m B x x m m m m m x l j d p e 5 '.'.'.'.'.'.'.'.'.'.'.'.'.'.'.'.'.'.'.",
"'.'.'.'.'.'.'.'.'.'.'.'.'.'.'.'.'.X ; e l Z Q ' #.%.2.2.2.2.2.2.2.2.2.2.2.2.=.#.' Q Z l w ; X '.'.'.'.'.'.'.'.'.'.'.'.'.'.'.'.'.",
"'.'.'.'.'.'.'.'.'.'.'.'.'.'.'.'.o # 2 p U $.w.d.B.Z.K.K.K.K.K.K.K.K.K.K.K.K.Z.B.g.w.$.U a 2 # X '.'.'.'.'.'.'.'.'.'.'.'.'.'.'.'.",
"'.'.'.'.'.'.'.'.'.'.'.'.'.'.'.'.: 1 w c ` e.V.P.W.!.~.(.(.~./.~.~./.~.(.(.~.!.E.P.V.e.` n e 2 ; '.'.'.'.'.'.'.'.'.'.'.'.'.'.'.'.",
"'.'.'.'.'.'.'.'.'.'.'.'.'.'.'.5 e a n ~ 5.M.P.Q.^.(.).).).).).).).).).).).).(.~.Q.U.M.<.~ n d e 5 '.'.'.'.'.'.'.'.'.'.'.'.'.'.'.",
"'.'.'.'.'.'.'.'.'.'.'.'.'.+ 1 e l U ' 5.f.P.E.~.~.(.(.(.(.(.(.(.(.(.).(.).).(.(.E.E.K.M.5.' Z l e 1 + '.'.'.'.'.'.'.'.'.'.'.'.'.",
"'.'.'.'.'.'.'.'.'.'.'.'.X + 1 p Z $.r.b.P.Y.!.~.(.(.(.(.(.(.(.(.(./.(.(.(.(.(.~.(.E.E.P.b.r.$.Z p 1 + X '.'.'.'.'.'.'.'.'.'.'.'.",
"'.'.'.'.'.'.'.'.'.'.'.'.. + 1 d E q.n.P.Y.!.(.(.(.~././.(./.(.~././././.(.E.~.(.(.(.E.E.J.n.<.E d 1 + X '.'.'.'.'.'.'.'.'.'.'.'.",
"'.'.'.'.'.'.'.'.'.'.'.'.X # 2 d E w.N.U.Q.~.(.(.(.(././././././././././.(.~.(.(.(.(.~.!.U.V.w.Q d 1 + X '.'.'.'.'.'.'.'.'.'.'.'.",
"'.'.'.'.'.'.'.'.'.'.'.'.X + 1 d Q q.V.U.E./.(.(.(.(.~.(././././././.~.(././.(.(.(.(.^.Q.U.N.q.Q d 1 # . '.'.'.'.'.'.'.'.'.'.'.'.",
"'.'.'.'.'.'.'.'.'.'.'.'.X # 1 d E <.b.J.E.E.(.(.(.~././././././././.(.~././.~.(.(./.!.Y.J.n.<.E d 2 # X '.'.'.'.'.'.'.'.'.'.'.'.",
"'.'.'.'.'.'.'.'.'.'.'.'.. + 1 p Y >.c.C.T.E.~.(.(.(.~.(./././././././.(./.~./.(.~.~.E.T.S.c.>.Y p 1 + . '.'.'.'.'.'.'.'.'.'.'.'.",
"'.'.'.'.'.'.'.'.'.'.'.'.o + 1 u V O.r.v.C.T.E.~.E.E.(.(././././././.~.(.(.(.~.~.E.E.T.Z.v.r.O.V r 1 # o '.'.'.'.'.'.'.'.'.'.'.'.",
"'.'.'.'.'.'.'.'.'.'.'.'.o # : r M ) :.r.v.S.U.Y.!././.(.(././././././.(.(.(./.!.Y.U.S.v.r.:.( M r 1 + X '.'.'.'.'.'.'.'.'.'.'.'.",
"'.'.'.'.'.'.'.'.'.'.'.'.o # : w v R } 8.r.v.F.J.R.!././././././././././././.!.R.D.V.v.r.8.} R v q : + o '.'.'.'.'.'.'.'.'.'.'.'.",
"'.'.'.'.'.'.'.'.'.'.'.'.o + ; q b R { +.:.<.r.b.J.R.!././././.(.(.~././.~.~.R.H.n.e.>.:.+.{ R b w ; + o '.'.'.'.'.'.'.'.'.'.'.'.",
"'.'.'.'.'.'.'.'.'.'.'.'.X + 1 r M ( { ] ( _ ' ,.h.J.W.!.~././.(.(.(./.~.!.R.J.f.5.] Q ] ] } ( M r : + o '.'.'.'.'.'.'.'.'.'.'.'.",
"'.'.'.'.'.'.'.'.'.'.'.'.X + 1 d U ] +.] V b m Q <.M.J.W.!.^./.(.(.(.~.E.W.U.M.<.! n b Z ] ;.] U p 1 # . '.'.'.'.'.'.'.'.'.'.'.'.",
"'.'.'.'.'.'.'.'.'.'.'.'.X + 1 d Q >.>._ l e e l _ p.V.U.R.~./.(.(.(.~.E.U.V.e._ l e e l _ >.>.E d 2 # . '.'.'.'.'.'.'.'.'.'.'.'.",
"'.'.'.'.'.'.'.'.'.'.'.'.X + 2 f ~ <.<._ d 2 1 r V o.e.M.J.R.!.~.~.!.R.K.M.e.O.m r 1 2 f _ <.<.~ f 1 # o '.'.'.'.'.'.'.'.'.'.'.'.",
"'.'.'.'.'.'.'.'.'.'.'.'.X + 2 f _ <.5.~ d 1 - 2 d V ` <.v.Z.T.W.R.T.Z.d.<.` V d 2 $ 1 d ~ 5.5._ v 2 + . '.'.'.'.'.'.'.'.'.'.'.'.",
"'.'.'.'.'.'.'.'.'.'.'.'.X + 2 f ~ 5.5.~ f > # $ 2 u b ~ <.d.C.J.J.S.c.<.Q n u 1 $ $ 1 f _ 5.5._ f 2 # X '.'.'.'.'.'.'.'.'.'.'.'.",
"'.'.'.'.'.'.'.'.'.'.'.'.X + 2 g _ 5.5._ f 2 # O $ 1 w m X.e.M.F.F.M.0.O.n u 1 # O + 1 f _ <.5.~ f 2 + X '.'.'.'.'.'.'.'.'.'.'.'.",
"'.'.'.'.'.'.'.'.'.'.'.'.X + 2 f _ <.<.` j 1 + @ @ = 3 z ` e.n.S.S.N.r.X.k 3 - o @ O 1 h ` <.5.~ f 2 + . '.'.'.'.'.'.'.'.'.'.'.'.",
"'.'.'.'.'.'.'.'.'.'.'.'.X # 2 f _ 5.q.` h > @ % & * t N *.c.J.J.U.D.g.| N t * & % O 1 g ` 5.q._ f 2 # X '.'.'.'.'.'.'.'.'.'.'.'.",
"'.'.'.'.'.'.'.'.'.'.'.'.o + 2 f ` q.q.` h > @ & , < F K i.Z.Y.!.!.E.G.-.H y < , & # 2 j ` w.q.` f 2 # X '.'.'.'.'.'.'.'.'.'.'.'.",
"'.'.'.'.'.'.'.'.'.'.'.'.. + 2 f ~ <.<.( g 2 : , < F F L k.L.!././.E.G.k.L G F < , = 2 f ~ >.<.~ f 2 + X '.'.'.'.'.'.'.'.'.'.'.'.",
"'.'.'.'.'.'.'.'.'.'.'.'.o + 1 f Y $.$.E j w 6 t y G J  .k.G.E.!.!.R.G.k. .J G y t 3 w j Q o.;.Y d 2 + X '.'.'.'.'.'.'.'.'.'.'.'.",
"'.'.'.'.'.'.'.'.'.'.'.'.'.+ 1 u n Y E Z n j z N K | j.j.u.m.V.C.V.V.h.k.j.j.L K N l j n V T Y n u 2 # '.'.'.'.'.'.'.'.'.'.'.'.'.",
"'.'.'.'.'.'.'.'.'.'.'.'.'.'.'.q e d j n V E ' *.i.l.z.u.g.t.r.+.0.w.w.y.z.z.l.i.*.' T V c j d u 7 '.'.'.'.'.'.'.'.'.'.'.'.'.'.'.",
"'.'.'.'.'.'.'.'.'.'.'.'.'.'.'.'.: 2 w f Y $.w.b.G.L.K.B.s.+.O.O.{ O.>.e.m.G.L.G.m.e.;.Y f 9 2 : '.'.'.'.'.'.'.'.'.'.'.'.'.'.'.'.",
"'.'.'.'.'.'.'.'.'.'.'.'.'.'.'.'.. + 2 d ! w.M.H.K.K.H.d.q.+.O.O.{ O.+.w.d.Z.K.P.D.M.r.~ f 2 # . '.'.'.'.'.'.'.'.'.'.'.'.'.'.'.'.",
"'.'.'.'.'.'.'.'.'.'.'.'.'.'.'.'.  . > h X.b.J.H.h.s.6.6.6.t.r.r.r.r.r.w.6.6.s.h.Z.J.d.@.f : .   '.'.'.'.'.'.'.'.'.'.'.'.'.'.'.'.",
"'.'.'.'.'.'.'.'.'.'.'.'.'.'.'.'.  . > c %.A.K.h.1.! W X.6.d.H.J.J.C.M.6.X.W ! 1.h.P.A.%.c > .   '.'.'.'.'.'.'.'.'.'.'.'.'.'.'.'.",
"'.'.'.'.'.'.'.'.'.'.'.'.'.'.'.'.. + 6 m 2.H.H.p.W a s V +.H.J./.!.R.A.=.S a s W 4.K.Z.2.m 6 + . '.'.'.'.'.'.'.'.'.'.'.'.'.'.'.'.",
"'.'.'.'.'.'.'.'.'.'.'.'.'.'.'.'.> 6 a A 2.h.h.@.k 4 4 h | s.K.I.I.K.f...h 4 4 j @.f.h.2.A a 6 > '.'.'.'.'.'.'.'.'.'.'.'.'.'.'.'.",
"'.'.'.'.'.'.'.'.'.'.'.'.'.'.'.u k C A ^ #.%...x u - - 9 C @.2.7.p.2...m 9 - - 8 C @.%.#.^ A m k e '.'.'.'.'.'.'.'.'.'.'.'.'.'.'.",
"'.'.'.'.'.'.'.'.'.'.'.'.'.X > h ! =.2.%.^ S k 8 > O + : 8 k x C B m h u > + + > 8 k C ^ &.2.=./ k > . '.'.'.'.'.'.'.'.'.'.'.'.'.",
"'.'.'.'.'.'.'.'.'.'.'.'.X + 6 m %.f.h.2.A a 6 : # # # : > 2 7 7 7 6 > : - + # $ : 4 a D 3.h.f.=.x 6 $ . '.'.'.'.'.'.'.'.'.'.'.'.",
"'.'.'.'.'.'.'.'.'.'.'.'.> 5 a A 2.h.h.%.C w : : : 1 2 2 6 6 7 7 6 6 7 6 4 2 1 ; ; : 9 C %.f.h.2.A a 6 > '.'.'.'.'.'.'.'.'.'.'.'.",
"'.'.'.'.'.'.'.'.'.'.'.8 s x S / #.2.%./ n r 0 7 r p f l k x x B x x x x j g p r 0 0 r c / %.2.&./ S x f 8 '.'.'.'.'.'.'.'.'.'.'.",
"'.'.'.'.'.'.'.'.'.X > s D #.%.#.^ A C b v v v b I Y _ ' &.=.2.3.3.3.=.&.X.Q Y V M v g v n B A ^ #.%.#.D s > . '.'.'.'.'.'.'.'.'.",
"'.'.'.'.'.'.'.'.X + 6 B =.h.h.2.A a e w v M R ] O.>.w.g.B.Z.K.P.K.K.Z.B.d.e.<.+.) R P v u w a S 2.h.h.=.B 6 + X '.'.'.'.'.'.'.'.",
"'.'.'.'.'.'.'.'.> 6 a W p.G.Z.2.m 7 1 0 v R { 9.r.c.V.D.P.I.W.E.E.R.T.U.C.N.c.r.9.{ R v 0 1 5 B 2.A.G.p.! a 6 > '.'.'.'.'.'.'.'.",
"'.'.'.'.'.'.'.u s x T %.f.H.B.&.l 2 ; 0 M { 0.x.N.D.P.P.J.D.D.D.H.Z.Z.J.U.J.D.N.x.0.] M 0 ; 1 l %.B.H.f.%.D x s e '.'.'.'.'.'.'.",
"'.'.'.'.'.+ 4 h D #.3.g.B.C.g.' f 1 ; r I :.a.F.J.Y.T.J.n.c.r.0.r.r.a.N.J.T.W.J.F.t.:.I r : > f X.d.V.A.g.4.&.W h 4 + '.'.'.'.'.",
"'.'.'.'.. + 4 x #.f.K.U.J.V.w.Q d 2 2 u Z :.c.D.T.W.Y.S.a.9.} { { O.:.a.F.Y.W.T.D.c.:.U u 2 2 d Q e.N.J.P.K.f.#.x 4 + . '.'.'.'.",
"'.'.'.'.. + 6 B 2.K.!.!.Y.V.e.Q d 2 1 e V o.w.M.Z.T.U.N.r.+.{ ) ) ) +.r.N.J.T.G.b.e.o.m e 1 2 d ~ w.V.Y.!.~.K.2.m 6 + . '.'.'.'.",
"'.'.'.'.. + 6 B 4.I.).`.^.U.g.' h 4 ; 5 a Z ` ,.s.b.M.c.0.9.+.+.+.+.:.r.c.N.b.s.,.` Z d 5 : 2 j ' v.J.~._.).I.3.B 6 + . '.'.'.'.",
"'.'.'.'.. + 6 B 3.I.`.`._.Q.V.%.z 4 - ; 2 r j U ] >.q.r.0.0.0.0.0.0.r.r.r.0.>.] U l u 2 - $ 6 x %.V.!._.`.`.I.3.B 6 + . '.'.'.'.",
"'.'.'.'.. + 7 x 2.K./.`._.Q.Z.=.x 6 # O $ 2 q g V ) +.>.0.t.t.t.x.r.r.0.9.O.) I g q 1 $ O $ 4 x =.Z.E.).)./.K.2.m 4 + . '.'.'.'.",
"'.'.'.'.. + 4 x #.h.K.I.I.K.f.@.l 4 + O $ 2 q d M [ { +.8.<.<.5.q.<.9.:.:.] [ M d q 1 $ O # 2 k @.f.K.I.I.K.h.@.x 4 + . '.'.'.'.",
"'.'.'.'.'.+ 4 h D #.2.4.4.2.@.C i > $ : 7 p j V ( { O.O.] ~ Q Q Q Q Q ] } O.} [ I j p 7 : - > i S @.2.4.4.2.#.! h 4 + '.'.'.'.'.",
"'.'.'.'.'.'.'.i k x x C C B k i 2 : : 7 f Z ` ;.>.0.>.] U n d d a d n I ] :.<.:.;.` Z f 7 : - 4 u k B B C x x h i '.'.'.'.'.'.'.",
"'.'.'.'.'.'.'.'.4 4 6 4 7 6 4 : $ $ > u Z $.5.t.a.t.>.~ l w 2 ; : 2 w n _ <.t.a.t.<.o.Z p 1 + $ : 4 6 6 7 6 4 4 '.'.'.'.'.'.'.'.",
"'.'.'.'.'.'.'.'.+ + + + + + O O o + > d Y O.<.w.q.<.$.Y d 2 # X X + 2 a Y o.<.w.r.<.o.Y d 1 + O o + + + + + + + '.'.'.'.'.'.'.'.",
"'.'.'.'.'.'.'.'.'.. . .   . . . . O 2 p m T ~ ` _ Q Z n u ; o     X ; u m Y Q _ _ ~ E m p > O .   X . . . . . '.'.'.'.'.'.'.'.'.",
"'.'.'.'.'.'.'.'.'.'.'.'.'.'.'.'.'.'.'.w p d f f f g a u 7 '.'.'.'.'.'.7 u a g g f f d p u '.'.'.'.'.'.'.'.'.'.'.'.'.'.'.'.'.'.'.",
"'.'.'.'.'.'.'.'.'.'.'.'.'.'.'.'.'.'.'.'.1 2 2 2 2 2 2 > '.'.'.'.'.'.'.'.> 2 > 2 2 2 2 2 '.'.'.'.'.'.'.'.'.'.'.'.'.'.'.'.'.'.'.'.",
"'.'.'.'.'.'.'.'.'.'.'.'.'.'.'.'.'.'.'.'.+ + + + + + + + '.'.'.'.'.'.'.'.+ + + + + + + + '.'.'.'.'.'.'.'.'.'.'.'.'.'.'.'.'.'.'.'.",
"'.'.'.'.'.'.'.'.'.'.'.'.'.'.'.'.'.'.'.'.X X X X X X X X '.'.'.'.'.'.'.'.X X X X X X X X '.'.'.'.'.'.'.'.'.'.'.'.'.'.'.'.'.'.'.'."
};