/* XPM */
static char *_ff86c0235794263bc74ff25b54ac386bJO2E0Y16hj2dfRK[] = {
/* columns rows colors chars-per-pixel */
"64 64 111 2 ",
"   c None",
".  c black",
"X  c #010F00",
"o  c #021001",
"O  c #021C00",
"+  c #0E1C0D",
"@  c #151C14",
"#  c #0F290D",
"$  c #063501",
"%  c #273526",
"&  c #064B00",
"*  c #065200",
"=  c #075900",
"-  c #125B0C",
";  c #096F00",
":  c #12620B",
">  c #13680B",
",  c #097600",
"<  c #0A7B00",
"1  c #1C6F14",
"2  c #1D7215",
"3  c #0B8400",
"4  c #0B8A00",
"5  c #168A0C",
"6  c #0C9700",
"7  c #0C9800",
"8  c #16930B",
"9  c #18970D",
"0  c #179F0C",
"q  c #18980D",
"w  c #1B8612",
"e  c #1E9614",
"r  c #1F9815",
"t  c #219E16",
"y  c #0EA201",
"u  c #19A20D",
"i  c #2AA21F",
"p  c #11CD00",
"a  c #12D800",
"s  c #13E400",
"d  c #1EE60C",
"f  c #14F200",
"g  c #15FF00",
"h  c #1EF10B",
"j  c #1EFB0B",
"k  c #21FF0D",
"l  c #23E312",
"z  c #26F313",
"x  c #27FA14",
"c  c #28FE15",
"v  c #2BFF18",
"b  c #32FF1F",
"n  c #60CD56",
"m  c #61CF58",
"M  c #61D356",
"N  c #62DE56",
"B  c #63D359",
"V  c #68D35F",
"C  c #63DF58",
"Z  c #69D85F",
"A  c #59E34D",
"S  c #62E056",
"D  c #64E259",
"F  c #69E55F",
"G  c #6AF25F",
"H  c #6BFD5F",
"J  c #68CD60",
"K  c #6BDC61",
"L  c #6EE064",
"P  c #70E366",
"I  c #74E36B",
"U  c #74ED6A",
"Y  c #75F26B",
"T  c #76FE6B",
"R  c #78FF6D",
"E  c #7AE372",
"W  c #7CF672",
"Q  c #7EFA74",
"!  c #80FC76",
"~  c #83FF79",
"^  c #89FF7F",
"/  c #9BCD97",
"(  c #9AD895",
")  c #8AFE81",
"_  c #9BE395",
"`  c #A6FA9F",
"'  c #A6E3A1",
"]  c #A8E6A3",
"[  c #ACE3A8",
"{  c #ADE3A9",
"}  c #ADE4A9",
"|  c #ADE5A9",
" . c #A8F4A2",
".. c #A9FFA2",
"X. c #ADF2A8",
"o. c #AEF4A9",
"O. c #AEFFA8",
"+. c #AFFFA8",
"@. c #B0FFA9",
"#. c #B4FFAE",
"$. c #B8FBB2",
"%. c #B9FBB3",
"&. c #BAFFB5",
"*. c #BBFFB5",
"=. c #BBFFB6",
"-. c #BCFFB6",
";. c #C1FFBC",
":. c #C1FFBD",
">. c #C2FFBD",
",. c #C3FFBE",
"<. c #C4FFBF",
/* pixels */
"                                                                                                                                ",
"                                                                                                                                ",
"                                                                                                                                ",
"                                                                                                                                ",
"                        K K K K                                                                                                 ",
"                        K K K K                                                                                                 ",
"                        K Z K K                                                                                                 ",
"                        K K K K                                                                                                 ",
"                                        g g g g                                                                                 ",
"                                        g g g g                                                                                 ",
"                                        g g g g                                                                                 ",
"                                        g g g g                                                                                 ",
"                                                        K K K I %.,.>.>.                                                        ",
"                                                        K K K I %.,.>.>.                                                        ",
"                                                        K K K I %.,.>.>.                                                        ",
"                                                        M M n Z ` +.+.+.                                                        ",
"                                                        8 8 8 0 z c c c                                                         ",
"                                                        4 4 4 6 f g g g                                                         ",
"                                                        4 4 4 6 f g g g                                                         ",
"                                                        4 4 4 6 f g g g                                                         ",
"                                                                                                                                ",
"                                                                                                                                ",
"                                                                                                                                ",
"                                                                                                                                ",
"                                        . . . . . . . . . . . . . . . . . . . . . . . . . . . . . . . .                         ",
"                                        . . . . . . . . . . . . . . . . . . . . . . . . . . . . . . . .                         ",
"                                        . . . . . . . . . . . . . . . . . . . . . . . . . . . . . . . .                         ",
"                                        O O O O O O O O @ @ @ @ + + + + + + + + @ @ @ @ @ @ @ @ @ @ @ @                         ",
"                        . . . . . . . O p s s s s s s l _ [ { ' E I I I I I I E ' [ [ [ [ [ [ [ } { } / @ . . .                 ",
"                        . . . . . . . O s g g g g g g c +.<.:.=.^ ~ ~ ~ ~ ~ ~ ) -.:.:.:.>.>.>.>.:.:.,.} @ . . .                 ",
"                        . . . . . . . O s g g g g g g c +.<.:.=.^ ~ ~ ~ ~ ~ ~ ) =.:.:.:.-.:.>.>.:.:.,.{ @ . . .                 ",
"                        o X X o O O O $ d k k k k k k b ..=.=.#.~ Q ! Q ! ! ! ~ #.=.=.=.=.=.&.&.=.=.-.] % @ @ @                 ",
"                . . . X , < < 3 a s s d H R T T T T T R ^ ^ ) ^ P K L L L L K I ^ ) ) ) ^ ^ ^ ^ ^ ~ ^ ) ] [ { / @ . . .         ",
"                . . . X < 4 4 6 f g g k R ~ ~ ~ ~ ~ ~ ~ Q ~ ~ Q K K K K K K K L Q ~ Q ~ ~ ~ ~ ~ ~ ~ ~ ) -.:.,.} @ . . .         ",
"                . . . X < 4 4 6 f g g j T ~ ~ ~ ~ ~ ~ ~ ~ ~ ~ Q P K K K K K K L Q ~ ~ ~ ~ ~ ~ ~ ~ ~ ~ ^ -.>.,.{ @ . . .         ",
"                X o o O 3 6 6 y h k j v T Q Q ~ ~ ~ ~ ~ Q Q Q Q K K K K K K K K Q Q Q Q Q Q Q Q ~ ~ ~ ^ #.-.-.] % @ @ @         ",
"        . . . X ; < < 4 s f f h H T T T L L L P Q ~ ~ Q L L L L K K K K K K K K L L L L L L L L Q ~ ! ~ ~ ^ ^ ) ] { } / @ . . . ",
"        . . . X < 4 4 7 f g g k R ^ ~ Q K K K L Q ~ ~ Q K K K K Z K K K K K K K K K K K K K K K Q ~ ~ ~ ~ ~ ~ ^ -.,.,.} @ . . . ",
"        . . . X < 4 4 6 f g g k R ~ ~ Q L K K L Q ~ ~ Q L K K K K K K K K K K K K K K L K K K L Q ~ ~ ~ ~ ~ ~ ^ -.:.,.{ @ . . . ",
"        X X X O 5 9 9 u h j j c T Q Q Q L K K K Q ! Q Q K K K K K K K K K L L K M M M n n B n B Q Q Q ~ ~ ~ ~ ~  .o.o.( @ . . . ",
". . . X ; < < 5 L Y Y Y S S S S K L K L K K K K L L L L K K K K K K Z L Q Q ! U t 8 8 5 : : : 1 B L L P ~ ~ ~ Y i e e w o . . . ",
". . . X < 4 4 q Y ~ ~ Q L K K K K K K K K K K K K K K Z K K K F K K K L Q ~ ~ Y 8 4 4 3 = * * : m K K L Q ~ ~ Y 9 3 4 < X . . . ",
". . . o < 4 4 q Y ~ ~ Q L K K K K K K K K K K K K K Z K K Z L Z Z K K L Q ~ ~ Y 9 4 4 3 = * * : m K K L ! ~ ~ Y 9 4 4 < X . . . ",
". . . X < 4 4 9 G R R T L K K K K K K K K K K K K K K K Z L Z L L K K L Q Q ~ U 8 3 3 3 = = * : m K K K W Q ! U 8 3 3 , X . . . ",
". . . o < 4 4 7 h j j v S K K K K K K K K K K K K K K K K K K K Z L Z K L L L B > = = = * * * - m K K K K K P B > = = & X . . . ",
". . . X < 4 4 7 f g g j S K K K K K K Z Z K K K K Z K K K K K K L Z K K K K Z m - * * * * * * : n K K Z K K K m : * * & . . . . ",
". . . X < 4 4 6 f g g j S K L K K Z K K K K K K K K K K K K K K Z K K K K K K m : * * * * * * : m K K K K K K m : * * & X . . . ",
". . . X < 4 4 6 f g g j A S S S Z L K K K K K Z K K K K L K I K F K K K K K K m 2 : : : : : : 1 m K K K K K K V 2 : : - X . . . ",
". . . X < 4 4 7 f g g g k j j x C K K K K K K K K K K K W ! ! W K K K K K K K K m m n n n n n m Z K K K Z L Z K U U U J + . . . ",
". . . X < 4 4 7 f g g g g g g j C K K K K K K K K K K P Q ~ ~ Q L K K K K K K K K K K K K K K K K K K Z L Z F L ! ~ ~ I + . . . ",
". . . X < 4 4 7 f g g g g g g j N K K K K K K K K K K K ! ~ ~ ! L K K Z K K K K K K K K K K K K K Z K K Z L Z L ! ~ ~ I + . . . ",
". . . o ; < < 4 s f f f g g g j A C N N N S S S C S D D W ! ! Q K K K K K K K K K K K K K K K K L L L P L L L L ! ~ ~ I + . . . ",
"        X X X O 4 7 7 7 f g g g j j j j j j j k k j j z D L K L K K K K K K K K K K K K K K K L Q ~ Q Q Q Q Q ~ ~ ~ ^ I + . . . ",
"        . . . X < 4 4 6 f g g g g g g g g g g g g g g j N K K K K K K K K K K K K K K K K K K L Q ~ ~ ~ ~ ~ ~ ~ ~ ~ ~ I + . . . ",
"        . . . X < 4 4 6 f g g g g g g g g g g g g g g j S K K K K K K K K K K K K K K K L K K L ! ~ ~ ~ ~ ~ ~ ~ ~ ~ ~ I + . . . ",
"        . . . o < 4 4 6 s f f f f f f f f f f f f f f h A S C S S S S S S S S S M M M M M M M M U Y Y Y Y Y Y Y I I I J + . . . ",
"        . . . o < 4 4 4 6 6 6 6 7 7 6 6 6 6 6 6 6 7 6 y h j j j j j j j j j j h 0 8 8 8 8 8 8 8 9 9 q q 9 q q 5 # + + +         ",
"        . . . X < 4 4 4 4 4 4 4 4 4 4 4 4 4 4 4 4 4 3 6 f g g g g g g g g g g f 6 4 4 4 3 4 4 4 4 4 4 4 4 4 4 < X . . .         ",
"        . . . X < 4 4 4 4 4 4 4 4 4 4 4 4 4 4 4 4 4 4 7 f g g g g g g g g g g f 7 4 4 4 4 4 4 4 4 4 4 4 4 4 4 < X . . .         ",
"        . . . X , < < < < < < < < < < < < < < < < < < 3 a s s s s s s s s s s a 3 < < < < < < < < < < < < < < ; X . . .         ",
"                X o o o o o o o X X X o o X X o o X X o O O O O O O O O O O O O o o X X X X X o X X X X X X o X                 ",
"                . . . . . . . . . . . . . . . . . . . . . . . . . . . . . . . . . . . . . . . . . . . . . . . .                 ",
"                . . . . . . . . . . . . . . . . . . . . . . . . . . . . . . . . . . . . . . . . . . . . . . . .                 ",
"                . . . . . . . . . . . . . . . . . . . . . . . . . . . . . . . . . . . . . . . . . . . . . . . .                 "
};
