/* XPM */
static char *d910baffe5a946d9fc306e82b38735ceIwuMzTnnadZdT0Vv[] = {
/* columns rows colors chars-per-pixel */
"64 64 113 2 ",
"   c None",
".  c #000000",
"X  c #010F00",
"o  c #021001",
"O  c #021C00",
"+  c #0E1B0D",
"@  c #151C14",
"#  c #0F290D",
"$  c #1B3418",
"%  c #21351F",
"&  c #273526",
"*  c #064B00",
"=  c #065200",
"-  c #075900",
";  c #125B0C",
":  c #096F00",
">  c #12620B",
",  c #13680B",
"<  c #097600",
"1  c #0A7B00",
"2  c #1C6F14",
"3  c #1D7215",
"4  c #0B8500",
"5  c #0B8A00",
"6  c #15860C",
"7  c #168C0C",
"8  c #0C9600",
"9  c #0C9800",
"0  c #16930B",
"q  c #18970D",
"w  c #179F0C",
"e  c #18980D",
"r  c #1B8612",
"t  c #1E9614",
"y  c #1F9815",
"u  c #219E16",
"i  c #0EA201",
"p  c #19A20D",
"a  c #23A218",
"s  c #2AA21F",
"d  c #12D800",
"f  c #13E300",
"g  c #1CEF09",
"h  c #14F200",
"j  c #15FF00",
"k  c #1DF00B",
"l  c #1EFB0B",
"z  c #21FF0D",
"x  c #23E312",
"c  c #26F313",
"v  c #27FC14",
"b  c #28FE15",
"n  c #2FFB1D",
"m  c #58D64D",
"M  c #60CD56",
"N  c #61CF58",
"B  c #61D356",
"V  c #62DE56",
"C  c #63D259",
"Z  c #68D35F",
"A  c #63DF58",
"S  c #68D85F",
"D  c #59E24D",
"F  c #62E056",
"G  c #64E159",
"H  c #69E55F",
"J  c #68CD60",
"K  c #6BDC61",
"L  c #6EE064",
"P  c #70E366",
"I  c #74E36B",
"U  c #74ED6A",
"Y  c #75F26B",
"T  c #76FE6B",
"R  c #7AE372",
"E  c #7CF672",
"W  c #7EFA74",
"Q  c #80FC76",
"!  c #83FF79",
"~  c #89FF7F",
"^  c #9BCD97",
"/  c #9AD895",
"(  c #8AFF80",
")  c #9BE395",
"_  c #A6FA9F",
"`  c #A6E3A1",
"'  c #A7E6A2",
"]  c #A8E6A3",
"[  c #ACE3A8",
"{  c #ADE3A9",
"}  c #ADE4A9",
"|  c #ADE5A9",
" . c #A8F4A2",
".. c #A7FBA0",
"X. c #ADF2A8",
"o. c #AEF4A9",
"O. c #AEFFA8",
"+. c #AFFFA8",
"@. c #B2FBAB",
"#. c #B0FFA9",
"$. c #B4FFAE",
"%. c #B8FBB2",
"&. c #B8FBB3",
"*. c #B9FBB3",
"=. c #BAFFB5",
"-. c #BBFFB5",
";. c #BBFFB6",
":. c #BCFFB6",
">. c #C1FFBC",
",. c #C1FFBD",
"<. c #C2FFBD",
"1. c #C3FFBE",
"2. c #C4FFBF",
/* pixels */
"                                                                                                                                ",
"                                                                                                                                ",
"                                                                                                                                ",
"                                                                                                                                ",
"                                                                                                                                ",
"                                                                                                                                ",
"                                                                                                                                ",
"                                                                                                                                ",
"                        K K K K         j j j j                                                                                 ",
"                        K K K K         j j j j                                                                                 ",
"                        K K K K         j j j j                                                                                 ",
"                        K K K K         j j j j                                                                                 ",
"                                                        K K K I *.2.>.>.                                                        ",
"                                                        K K K P %.2.>.>.                                                        ",
"                                                        K K K I %.2.1.>.                                                        ",
"                                                        B B B S _ #.O.O.                                                        ",
"                                                        q 0 0 w c b b b                                                         ",
"                                                        5 5 5 8 h j j j                                                         ",
"                                                        5 5 5 9 h j j j                                                         ",
"                                                        < < 1 5 d f f f                                                         ",
"                                        . . . . . . . . X X X o O O O O . . . . . . . . . . . .                                 ",
"                                        . . . . . . . . . . . . . . . . . . . . . . . . . . . .                                 ",
"                                        . . . . . . . . . . . . . . . . . . . . . . . . . . . .                                 ",
"                                        X X X o O O O O @ @ @ @ @ + + + + + + + @ @ @ @ @ @ @ @                                 ",
"                                . . . o < < 1 4 d f f x ) { { ` R P I I I I I R ` [ [ [ [ [ } ^ @ . . . . . . .                 ",
"                                . . . X 1 5 5 9 h j j b #.2.1.;.( ! ! ! ! ! ! ( -.1.1.1.1.>.2.} @ . . . . . . .                 ",
"                                . . . X < 5 4 8 h j j b +.1.1.;.( ! ! ! Q ! ! ( -.>.1.1.>.:.2.{ @ . . . . . . .                 ",
"                                + + + # 7 e q p k l l n ..&.&.o.! W W W W W W ~ $.-.;.-.;.-.;.' & + + + @ @ @ @                 ",
"                . . . . . . . + J I I I Y Y Y Y G F F G I I P I L L L L L L L L ! ( ~ ~ ~ ~ ~ ~ I I I R ` [ } ^ @ . . .         ",
"                . . . . . . . + I ! ! ! ! ! ! Q L K K K K K K S K K K K K K K L Q ! Q ! Q Q Q ! Q ! ! ~ -.2.2.} @ . . .         ",
"                . . . . . . . + I ! ! ! ! ! ! W L K K K K K K K K K K K K K K L Q Q Q ! ! ! Q ! ! Q Q ~ -.>.2.[ @ . . .         ",
"                X X X o + + + $ I ! W W W Q W W K K K K K K K K K K K K K K K L Q ! ! Q Q Q Q Q ! ! ! ~ $.;.;.] & @ @ @         ",
"        . . . X : 1 1 6 S I I P L L L L L P L L S K S L K K K S K K K K K K K L W ! ! W P L L I W ! ! ! ~ ~ ~ ( ] { } ^ @ . . . ",
"        . . . X 1 5 5 e Y ~ ! Q L K K K K K S L P S L S K K K K K K K K K S K L W ! ! W L K K L W W ! ! ! W Q ( ;.1.2.} @ . . . ",
"        . . . X 1 5 4 q Y ! Q Q L K K K S L K S S K S L K K K K K K K K K K K L W ! W W L K K L W ! ! W ! ! Q ( ;.1.2.} @ . . . ",
"        . . . o 6 e q a Y Q Q W L K K S L L L S K K K K K K K K K K K K K K K K Y Y Y U C N N C E ! W W ! ! ! ~  .X.o./ @ . . . ",
"        . . . + S Y Y Y L L L L S K K L Q Q Q E P S K K K K K K K K K K K K K B y e e 0 , > > 2 C L L P W ! ! Y s y y r o . . . ",
"        . . . + I ! ! W K K K K K K K L Q Q Q Q P S S K H S K K K K K K K K K B 0 5 5 4 - = * > C K K L W ! ! Y q 5 5 < X . . . ",
"        . . . + I ~ ! W P K K K K K K L Q Q Q Q P S L S S L S K K K K K K K L B 0 5 5 4 - - = > N K K L ! ! ! Y q 5 5 1 X . . . ",
"        o o o # L T T T K K K K K S K L Q Q Q Q L L S L L S L K K K K K K K K B 7 4 4 1 - = = > M K K K E W ! U 0 4 4 < X . . . ",
". . . X : 1 1 5 g z z v A K K K K K K S L L L L K K K K K K K K K K S K K K K M , - - - = = = > N K K K K L L C , - - = X . . . ",
". . . X 1 5 5 9 h j j l A K K K K K K K K K K K K K K K K K K K K K K K K K K N > = = = = = = > N K K K K K K M > = * * . . . . ",
". . . o 1 5 5 9 h j j l G K K K K K K K S K K K K S K K K K K K K K K K K K K N > * = = = = = > M K K K K K K M ; = = * X . . . ",
". . . X 1 5 5 8 h j j l V K K K K K K K K K K K K K K K S K K K K L L L K K K N 2 > > > > > > 2 N K K K K K K C 3 , , ; X . . . ",
". . . X 1 5 5 9 h j j l V K K K K K K K K K K K K K K K K K K K W W W W K K K K N M M M M M C N K K K K K K K K U U U S + . . . ",
". . . X 1 5 5 9 h j j c F K K K K K K K K K K K S K K K K K K P W ! ! Q L K K K K K K K K K K K K K K K K K K K Q ! ! I + . . . ",
". . . X 1 5 5 8 h j j z F K K H K K K K K K K K K K K K K K K L W ! ! W L K K K K K K K K K K K K K K K K K K I W ! ~ I + . . . ",
". . . X 1 5 5 8 h j j z F K K K K K S K K K K K K K K K K K K K W W W W K K K K K K K K K K K K K K K K K K K K W ! ! I + . . . ",
". . . o 1 5 5 9 h j j l V K K K K K K K K K K K K K K K K K K K L L K K K K K K K K K K K K K K K K K K K K K L W ! ! I + . . . ",
". . . X 1 5 5 9 h j j l F K K K K K K K K K K K K K S K K K K K K K K K K K K K K K K K K K K K K K K K K K K L W ! ! I + . . . ",
". . . X 1 5 5 9 h j j l A K K K K K K K K K K K K K K K K K K K K K K K K K K K K K K K K K K K K K K K K K K L W ! ~ I + . . . ",
". . . X 1 5 5 9 f h h c D F F A F F F A K K K K K K K K K K K K K K K K K K K K K K K K K L L L K L L K L L L L P I I J + . . . ",
". . . X 1 5 5 5 8 8 8 i k l l l l l l c G K K K K K K K K K K K K K K K K K K K K K K K W W W W W W W Q W W W I $ + + +         ",
". . . X 1 5 5 5 5 5 5 8 h j j j j j j l F K K K K K K K K K K K K K K K K K K K K K K L W ! ! ! ! ! ! ! ! ! ! I + . . .         ",
". . . X 1 5 5 5 5 5 5 8 h j j j j j j z G K K K K K K K K K K K K K K K K K K K K K K L W ! ! ! ! ! ! ! ! ! ~ I + . . .         ",
". . . o < 1 1 1 5 5 5 8 f h h h h h h g m B B B B B B B V F F F F F F V F F G F F F G G Y Y Y Y Y Y Y Y Y Y Y S + . . .         ",
"        X X X O 1 5 5 5 9 9 9 9 9 9 8 8 0 0 0 0 0 0 0 p k l l l l l l l l l l l l l l k p q e q q q e e q q q 7 o . . .         ",
"        . . . X 1 5 5 5 5 5 5 4 5 5 5 5 4 5 5 5 4 5 5 9 h j j j j j j j j j j j j j j h 8 4 5 5 5 5 5 5 5 5 5 1 X . . .         ",
"        . . . X 1 5 5 5 5 5 5 5 5 5 5 5 5 5 5 5 5 5 5 9 h j j j j j j j j j j j j j j h 9 5 5 5 5 5 5 5 5 5 5 1 X . . .         ",
"        . . . X : 1 1 1 1 1 1 1 1 1 1 1 1 1 1 1 1 1 < 4 d f f f f f f f f f f f f f f d 4 1 1 1 1 1 1 1 1 < 1 : X . . .         ",
"                X o X X X X o X X o X X X X X o o o X o O O O O O O O O O O O O O O O O o o X X o X o X X o X X                 ",
"                . . . . . . . . . . . . . . . . . . . . . . . . . . . . . . . . . . . . . . . . . . . . . . . .                 ",
"                . . . . . . . . . . . . . . . . . . . . . . . . . . . . . . . . . . . . . . . . . . . . . . . .                 ",
"                . . . . . . . . . . . . . . . . . . . . . . . . . . . . . . . . . . . . . . . . . . . . . . . .                 "
};
