/* XPM */
static char *_a446da8948342c2e95ed54d6769678eeBmx0do4aZGdofU0[] = {
/* columns rows colors chars-per-pixel */
"64 64 217 2 ",
"   c None",
".  c #1D111E",
"X  c #3D0614",
"o  c #350A17",
"O  c #22101D",
"+  c #2F1019",
"@  c #2C0E1B",
"#  c #131521",
"$  c #151824",
"%  c #1B1B25",
"&  c #1A1E2A",
"*  c #251C26",
"=  c #3B1320",
"-  c #1D212D",
";  c #2D282D",
":  c #252329",
">  c #302529",
",  c #35292C",
"<  c #3A2C2C",
"1  c #3E362D",
"2  c #39332D",
"3  c #222631",
"4  c #252A35",
"5  c #2A2F3A",
"6  c #282D37",
"7  c #362D34",
"8  c #2A313B",
"9  c #2F3236",
"0  c #3A3937",
"q  c #5A030D",
"w  c #52030F",
"e  c #470612",
"r  c #66070A",
"t  c #740206",
"y  c #483F2F",
"u  c #42392F",
"i  c #433B31",
"p  c #493533",
"a  c #553B35",
"s  c #412D29",
"d  c #4A402E",
"f  c #4B4535",
"g  c #494538",
"h  c #534034",
"j  c #55463A",
"k  c #6B453A",
"l  c #744B3C",
"z  c #605136",
"x  c #2E3540",
"c  c #2F3A44",
"v  c #313741",
"b  c #343B45",
"n  c #383C47",
"m  c #3C434D",
"M  c #38424B",
"N  c #3F4952",
"B  c #3C4751",
"V  c #4A4A46",
"C  c #41444E",
"Z  c #4C4C49",
"A  c #444244",
"S  c #584C43",
"D  c #55564B",
"F  c #434D56",
"G  c #454F57",
"H  c #45515B",
"J  c #4B545C",
"K  c #585759",
"L  c #654F45",
"P  c #6C5549",
"I  c #7E6845",
"U  c #666452",
"Y  c #6B6C5B",
"T  c #68685A",
"R  c #797159",
"E  c #4D5A63",
"W  c #515D65",
"Q  c #525C65",
"!  c #615D61",
"~  c #56646D",
"^  c #5B666D",
"/  c #586064",
"(  c #5D6A72",
")  c #656866",
"_  c #6D7164",
"`  c #7B7968",
"'  c #636D73",
"]  c #686C74",
"[  c #657076",
"{  c #637179",
"}  c #69757C",
"|  c #6D787D",
" . c #787D72",
".. c #90773E",
"X. c #895843",
"o. c #805F53",
"O. c #876A46",
"+. c #8A714B",
"@. c #96724D",
"#. c #A8704E",
"$. c #B17A7E",
"%. c #7B8275",
"&. c #998045",
"*. c #988A57",
"=. c #A6884E",
"-. c #A0824F",
";. c #B99748",
":. c #BA9D4E",
">. c #B3924A",
",. c #A68854",
"<. c #B79957",
"1. c #B08B58",
"2. c #BBA65D",
"3. c #84846D",
"4. c #868B79",
"5. c #85887A",
"6. c #999573",
"7. c #A99B67",
"8. c #BDAC64",
"9. c #B0A56E",
"0. c #B5AB74",
"q. c #BDB277",
"w. c #ACA471",
"e. c #C3A454",
"r. c #C9AB5D",
"t. c #D7AE5C",
"y. c #E8BC57",
"u. c #C69C64",
"i. c #D0A560",
"p. c #CAB268",
"a. c #DAB76A",
"s. c #C9B974",
"d. c #CAAE70",
"f. c #E1B678",
"g. c #C6975A",
"h. c #D1C27A",
"j. c #EACA71",
"k. c #F2CA5E",
"l. c #6E7C83",
"z. c #727D82",
"x. c #768389",
"c. c #79858A",
"v. c #7D8A90",
"b. c #89928A",
"n. c #999983",
"m. c #828C92",
"M. c #8B9599",
"N. c #8D999D",
"B. c #869295",
"V. c #8F9791",
"C. c #9CA397",
"Z. c #A7AA98",
"A. c #B1AE92",
"S. c #B2B49D",
"D. c #BFBB99",
"F. c #BCBB97",
"G. c #B3AC8A",
"H. c #939CA2",
"J. c #9BA5A9",
"K. c #9DA9AC",
"L. c #97A2A6",
"P. c #A3A9AC",
"I. c #A3AEB1",
"U. c #A6B1B5",
"Y. c #ACB5BA",
"T. c #B3BABB",
"R. c #B5B8A3",
"E. c #B98F8D",
"W. c #DD9997",
"Q. c #D88A8C",
"!. c #CAAC90",
"~. c #E5AE99",
"^. c #CDB3B0",
"/. c #E6B5A2",
"(. c #E6B8B6",
"). c #E4ABA6",
"_. c #AAC0B9",
"`. c #D7C986",
"'. c #DFD086",
"]. c #DCD089",
"[. c #CBC599",
"{. c #DBCE91",
"}. c #ECD784",
"|. c #ECD088",
" X c #D5D2A8",
".X c #DAD6B4",
"XX c #CFC8A8",
"oX c #EBCDB1",
"OX c #F5E7A6",
"+X c #EBE3B1",
"@X c #90BBD0",
"#X c #B4BDC2",
"$X c #B8BDC0",
"%X c #A5B8C8",
"&X c #BFC8CD",
"*X c #BAC3C7",
"=X c #A8C3D0",
"-X c #C5C7C4",
";X c #C5CBD1",
":X c #D6CCD6",
">X c #CDD4D8",
",X c #CCD1D5",
"<X c #D4D8D9",
"1X c #D4CFC4",
"2X c #E9C7C8",
"3X c #E9D2DC",
"4X c #F1D9CD",
"5X c #E8E7C6",
"6X c #F3ECC6",
"7X c #F6F1C2",
"8X c #D9DEE3",
"9X c #DFE3E5",
"0X c #E4E7EA",
"qX c #F6E8E9",
"wX c #F5F7F8",
"eX c #F8F5F7",
"rX c #F6F2EE",
/* pixels */
"                                                                                                                                ",
"                                                                                                                                ",
"                                                                                                                                ",
"                                                                                                                                ",
"                                            $ $ # $                 # # # #                                                     ",
"                                            V G Z V                 Z Z Z V                                                     ",
"                                        $ V n.!.D.n.Z #         # V n.D.[.6.V #                                                 ",
"                                        g R [.+XXX6.V $         # V n.XX+XXXR g                                                 ",
"                                    $ g *.s.+X[.` V                 V ` [.+Xh.*.g #                                             ",
"                                    # g 8.}.OXF.S %                 % Z !.OX}.2.g #                                             ",
"                                    # i ,.j.}.d.L * % # $ # # # . % > L d.}.f.,.i .                                             ",
"                                    # u @.i.j.r.+.j 7 4 n C C n 3 7 j +.r.j.i.#.0 $                                             ",
"                                    # < X.g.i.a.p.7.D J m.J.J.m.J D *.s.a.r.g.X.2 .                                             ",
"                                    # , l X.1.i.d.9. .z.U.&X#XL.( ) 7.p.g.1.X.L , #                                             ",
"                                        < a X.#.R  .H.U.U.J.B.x.{ ~ ) R #.X.k ,                                                 ",
"                                        . > L o.! l.J.U.L.M.B.b.b.%./ K I L , #                                                 ",
"                                        # : A ! z.m.m.v.z.B.R..XXXS.%.Q K A : #                                                 ",
"                                        - 8 G ' c.V.4.4.4.Z..X6X6X.XZ.3.Y D 9 &                                                 ",
"                                # # # & 8 G l.v.v.b.G.h.h.`.oX4X4X4X{.s.r.-.D 5 - $ . $                     # # # #             ",
"                                m C C C B W m.N.4.6.'.|.]. X,X:X3X2X X].j.u.T m N C C N                     C C C m             ",
"                        # # # m m.P.P.m.W / m.Z.d.a.oX1X=X@X=X%X,X1X=XY.XX!.! Q B.J.J.m.M # # # # # # # # m m.J.J.m.C #         ",
"                        g V A ( P.#X;XK.^ / 6.G.f.f.oX:X%X@X@X%X:X:X%XY.^.!.T ^ K.&X-XP.Y 0 4 3 0 8 3 4 8 E M.Y.$XJ.' n         ",
"                    # g *.0.K.K.I.U.U.N.Q U 9.a.f.~.(.3X8X;X^.^.2X2X^.^.oX!.) / M.U.I.P.q.7.D N { [ F N ] z.' l.L.U.P.m.C $     ",
"                    C Y s.|.XX*XI.J.J.m.Q T d.|.~.W.(.2X2X(././.2XoX/.~./.E.) / m.J.K.S.h.s._ H } } E / | | W W l.M.T.H.n #     ",
"                # C m.S.].|.R.U.J.J.J.m.W ] XX4XW.Q.W.).~././.oX2X2XoX/.W.$.K Q v.J.J.S.'.s.Y M n m E E m m E W n J M.m.n #     ",
"                # m m.S.`.[.F.Z.H.N.H.z.E } >XqX(.W.Q.W.).(.oX4X4XqX4XoX).Q.! E x.M.N.Z.h.q.Y c - 3 N N 8 6 F G C F ] ] v #     ",
"                    n ! n.F.`.`.b.l.l.{ J } >XeXqX2XW.W.2XqXqXeXeXrXrXqXqX^.] H { x.%.b.h.h.U c - % 3 5 x x 5 M ] ] C v         ",
"                    v F [ b.0.G.6. .' ( [ M.<XwXeXqX(.(.qXeXeXeXqXqXqXeXeX8XN.] ~ { %.6.q.7.D 8 - # # & 8 8 & 5 ^ ] v .         ",
"                # v ] ] G Z ` 6.!.w._ { U.<X<X0XeXeXqXqXeXrX3X2X(.(.2X3XeXwX8XI.{ ) w.0.3.D 9 -     # $ - & # - 5 v             ",
"                # n z.v.F v F _ w.0.%.M.>X0X>X>XeXeXwXwXwXqX3X2X(.(.2X3XqXwXwX:XM.3.0.7.D 8 - $     # $ * * $ # # $             ",
"                # n z.M.' F v b D %._.<X<X>X#X&X0XeX0X8X8X8XqXqXqXqXqXqX8X8X8X8X>XT.%.D 9 -         # * 7 < * #                 ",
"                # 5 ) | ~ N 3 & 8 ( ,XrX<X#XI.T.0XeX8X>X&X>X0XwXwXwXwX0X>X;X;X8XwX,Xl.c - #         . : a a : #                 ",
"        # . $ # . - 8 c 8 - - % * Q ;X0X*XU.K._.0XwX8X;XT.#X>X0XwXwX0X>X#X%X;X8XwX,X[ v - #         # ; S k ; #                 ",
"        V Z Z G V Z Z Z Z Z V G Z _ P.T.J.N.N.K.>X9X<X&XU.K.*X>X0XrX>X#XI.U.&X<X9X#X^ 5 & #         # ; L L ; #                 ",
"    . V n.D.D.D.F.F.F.D.D.D.D.D.!.C._ K { l.x.v.K.*X;X;XU.K.I.T.>X>X#XI.K.U.&X;X*XN.C - $ #         # ; L L ; #                 ",
"    f Y A..X+X6X6X6X7X7X6X6X5X5X.XA.Y V J W ~ { v.L._.*XY.I.K.I.*X#XI.K.I.Y.Y.I.B.) 7 . # #         # ; L L ; #                 ",
"$ g *.9.n.C.&X<X<X5X6X6X5X<X<XXXC.n.9.*.g c N E { v.J.T.*X*XI.K.I.I.J.U.#X%XN.} G 7 = o . #         # ; L L ; #                 ",
". g 8.h.%.x.K._.#X*X5X5X&X_._.K.x.4.h.8.f - 8 M E { v.L._.=XI.J.J.J.J.U.*XI.z.J 3 O e e O #         # , L L ; #                 ",
"$ g 8.h.4.x.x.x.v.C..X.XL.v.v.x.} 4.h.8.g # - 4 B E { v.K.I.K.K.J.J.J.K.I.N.( M 3 + q q + #         # ; L L ; #                 ",
"$ g 8.h.%.{ } x.x.b. X Xv.x.%.x.{ 4.h.8.g # # - 8 B W { x.M.v.N.L.L.N.M.m.l.G 5 - + r r + #         # ; L L ; #                 ",
". g 8.h.%.x.v.N.N.Z.].].Z.N.N.v.l.4.h.8.f $ . $ - 4 M H E ^ l.x.N.N.c.} ^ H 8 & $ + r r + #         # ; L L ; #                 ",
"$ g 2.h.4.%.N.K.J.S.'.'.S.K.K.N.l.4.h.8.f % > ; % - 8 c c B E { c.c.{ E B 9 7 > % + r r + #         # ; L L ; #                 ",
"$ f 8.h.%.x.N.L.J.S.'.'.S.K.K.N.l.4.h.8.f > k k > $ - - - 4 M H E E H B 5 7 k k > + r r + #         # ; L L ; #                 ",
"# f 2.h.%.%.N.L.K.S.'.'.S.L.L.v.} %.s.2.f > k l h 1 d f f D T _ Y Y Y D g h l k > + r r + #         # > L L ; #                 ",
"$ d :.r.Y ~ v.K.J.S.'.'.S.J.J.B.^ Y r.:.d % > h O.=.>.:.2.s.[.[.h.8.8.:.=.+.h > % + r r + #         # ; L L ; #                 ",
"# d :.:.U H %.v.b.n.h.'.C.v.B.| J U e.;.d % > h O.=.>.:.2.8.G.F.q.2.:.>.&...a , * + r r + #         # , L L ; #                 ",
"# d ;.2.Y N E W W %.h.h.%.K E E F U e.;.f > k l f d d d f g j Z g f d d d h l k > + r r + #         # ; L L ; #                 ",
"# d ;.2.U N H N G Y 8.h._ N H G N U e.;.y , P O.j 2 3 ; u f d u 6 ; 1 d 0 j O.P , + r r + .         # ; L L ; #                 ",
"# d ;.:.U N W ~ ~ %.r.p.3.^ ~ W G U e.;.d 9 K +.*.R Z D &.:.:.@.Z D &.>.,.*.+.K 6 + r r + .         # ; L L ; #                 ",
"# d :.e.Y N ( { [ %.r.r.3.[ { ~ H U e.;.d - N Y 6.@.D D <.a.a.7.D D 1.e.1.+.^ N - + r r + $         # ; L L ; .                 ",
"# d ;.e.U N ~ { [ 3.r.t.%.%.{ ~ H U e.;.d $ 3 m ) ) v C 4.A.A.5.V 0 Y _ Z 0 5 3 - + r r + $         # ; L L ; #                 ",
"# d ;.e.U B W ~ ~ %.r.r.%.~ ~ E N z e.;.d - 3 8 F F 3 9 | N.N.l.c 3 N G v 4 4 3 - + r r + #         # ; P S ; #                 ",
"# d ;.;.f 6 B N H Y e.e.U N N B 6 f :.;.y 3 N G x 3 $ 5 ~ z.l.~ 8 % 3 c G E E N - + r r + #         . ; D L ; . . $ $ $ $ .     ",
"# d &.&.z i 9 M m U <.2.U M M c 0 z &...1 4 E Q 8 & $ 4 H ~ ~ H 4 # & x W ( W N - + r r + #         $ : j j : : 0 f f f Z V     ",
"    d z +.I 0 6 b U <.1.U M 4 0 I +.z 2 * 4 E ~ N 8 & - m H G M - & 8 B / / M - - + r r + . # . # . # . : ; % 1 *.8.h.8.F.n.Z . ",
"    - 1 O.O.f 2 x D &.*.Z 0 2 f O.I 2 % 3 c F H m 8 * * 5 c c 8 - & 8 M G G M 9 - + r r + % 2 d f 1 % - 1 0 - f 8.j.j.}.OXF.Z # ",
"        u a l k 7 i X.X.a < k l a 2 % 3 B G v 3 & * + o * - & & $ $ - - 4 M ] ^ 5 o r r + 1 @.;.;...1 1 *.*.i d :.k.k.j.OXR.D $ ",
"        # , k l p a X.X.a a l k > $ - 5 F F v 3 & * e e o @ . . # # # $ 3 M ' ) 5 @ q q @ f >.y.y.>.d g 2.2.g y ;.y.y.j.OX!.Z $ ",
"            < p l X.#.X.X.l p = % & 8 x 5 v G N 3 O X w q q e o . # # 3 N J m 5 & O e e O i =.t.t.=.1 f ;.:.f i =.t.t.j.+XD.Z # ",
"            # < k X.X.X.X.k > $ & 8 G H c x G N - O X q t t q X . # & 5 F F v 5 v 7 = o @ < O.&.&.I 2 d >.>.i 1 &.e.g.d.OXF.Z # ",
"                , , , , , > * % 8 G l.x.^ F c 3 % . e w t t q X . & 8 x 5 x G ~ z.) 7 @ X = < i i 2 % i -.=.u < X.#.#.u. X!.Z $ ",
"                $ # $ # # # & 5 F ( v.v.l.E x & $ . X q t t q X . & 8 x 3 x E l.m.z.J 7 = o @ . $ # # u O.I 2 > L X.X.@.G.6.V $ ",
"                        # & 5 G l.v.l.l.{ W B 5 & O X q t t q X . $ & 3 x B ~ { l.l.x.) 7 @ o o . #     p 7 % % < s < 1 A V     ",
"                        # - c W v.N.l.l.( ( H c - O X q t t q X O # # & c G ~ { { l.N.z.v . X X O #     # # # # # . # # # #     "
};
