/* XPM */
static char *_6bfc58619c14eaad85d6d86e18afa229BYrQXXWqKfUYEf8[] = {
/* columns rows colors chars-per-pixel */
"64 64 218 2 ",
"   c None",
".  c #1D111E",
"X  c #3D0614",
"o  c #350A17",
"O  c #22101D",
"+  c #2E1019",
"@  c #2C0E1B",
"#  c #131521",
"$  c #151824",
"%  c #1B1A25",
"&  c #1A1E2A",
"*  c #251C26",
"=  c #3B1320",
"-  c #1D212D",
";  c #2D282D",
":  c #252329",
">  c #302529",
",  c #35292B",
"<  c #3A2C2C",
"1  c #3E362C",
"2  c #3A342D",
"3  c #222631",
"4  c #252A35",
"5  c #2A2F3A",
"6  c #262D38",
"7  c #362D34",
"8  c #2A313B",
"9  c #2F3236",
"0  c #393837",
"q  c #5A030D",
"w  c #52030F",
"e  c #470612",
"r  c #66070A",
"t  c #740206",
"y  c #483F2F",
"u  c #42392F",
"i  c #433B31",
"p  c #493533",
"a  c #553B35",
"s  c #412D29",
"d  c #4A402E",
"f  c #464436",
"g  c #4B4535",
"h  c #4A463C",
"j  c #534034",
"k  c #54463A",
"l  c #6B453A",
"z  c #744C3C",
"x  c #605136",
"c  c #2F3A44",
"v  c #2E3641",
"b  c #313741",
"n  c #343C46",
"m  c #3C434D",
"M  c #37424C",
"N  c #3E4952",
"B  c #3C4751",
"V  c #4A4A46",
"C  c #42444E",
"Z  c #4C4C49",
"A  c #464143",
"S  c #55554B",
"D  c #545447",
"F  c #434C56",
"G  c #444F58",
"H  c #494E50",
"J  c #45515B",
"K  c #4B535A",
"L  c #57504D",
"P  c #654F45",
"I  c #695549",
"U  c #7E6845",
"Y  c #666452",
"T  c #6B6C5C",
"R  c #6A6958",
"E  c #797159",
"W  c #4D5A63",
"Q  c #515D66",
"!  c #525C65",
"~  c #615D61",
"^  c #56646D",
"/  c #5C666D",
"(  c #586064",
")  c #5D6A72",
"_  c #656867",
"`  c #7A7B69",
"'  c #636D73",
"]  c #686C74",
"[  c #657076",
"{  c #637179",
"}  c #69757C",
"|  c #6D777B",
" . c #717669",
".. c #90773E",
"X. c #8A5742",
"o. c #805F53",
"O. c #866A46",
"+. c #89714B",
"@. c #987A48",
"#. c #96664A",
"$. c #A8704E",
"%. c #B17A7E",
"&. c #798279",
"*. c #7E826F",
"=. c #998045",
"-. c #998C57",
";. c #A6884E",
":. c #A0824F",
">. c #B99748",
",. c #BA9D4E",
"<. c #B3924A",
"1. c #A58754",
"2. c #B79957",
"3. c #AF8C58",
"4. c #BBA65D",
"5. c #85856D",
"6. c #868B79",
"7. c #84887A",
"8. c #989878",
"9. c #A69B6A",
"0. c #BDAC64",
"q. c #B0A56E",
"w. c #B5AB74",
"e. c #BDB277",
"r. c #ADA572",
"t. c #C3A454",
"y. c #CAAD5D",
"u. c #D7AE5C",
"i. c #E8BC57",
"p. c #C69C64",
"a. c #D0A560",
"s. c #C9B268",
"d. c #C9B974",
"f. c #CFB16D",
"g. c #E1B678",
"h. c #C6975A",
"j. c #D1C27A",
"k. c #E6C472",
"l. c #EECE71",
"z. c #F2CA5E",
"x. c #6E7C83",
"c. c #727D82",
"v. c #768389",
"b. c #79858A",
"n. c #7D8A90",
"m. c #89928A",
"M. c #999983",
"N. c #828C92",
"B. c #8B9599",
"V. c #8D999D",
"C. c #869295",
"Z. c #8F9793",
"A. c #9CA397",
"S. c #A6A998",
"D. c #B2B49D",
"F. c #BFBB99",
"G. c #BCBB97",
"H. c #B2AD8B",
"J. c #939CA2",
"K. c #9BA5A9",
"L. c #9DA9AC",
"P. c #96A2A6",
"I. c #A4AAAC",
"U. c #A3AEB1",
"Y. c #A6B1B5",
"T. c #ACB5BA",
"R. c #B2BABC",
"E. c #BABCA5",
"W. c #B98F8D",
"Q. c #DD9997",
"!. c #D88A8C",
"~. c #CAAC90",
"^. c #E5AE99",
"/. c #CDB3B0",
"(. c #E6B5A2",
"). c #E6B8B6",
"_. c #E4ABA6",
"`. c #AAC0B9",
"'. c #D7C986",
"]. c #DFD086",
"[. c #DCD089",
"{. c #CBC599",
"}. c #DBCE91",
"|. c #EBD685",
" X c #EBD189",
".X c #D5D2A8",
"XX c #DAD6B4",
"oX c #CFC8AB",
"OX c #EBCDB1",
"+X c #F5E7A6",
"@X c #EBE3B1",
"#X c #90BBD0",
"$X c #B4BDC2",
"%X c #B8BDC0",
"&X c #A5B8C8",
"*X c #BFC8CD",
"=X c #BAC3C7",
"-X c #A8C3D0",
";X c #C4C6C5",
":X c #C4CBD2",
">X c #D6CCD6",
",X c #CCD3D8",
"<X c #CCD1D5",
"1X c #D4D8D9",
"2X c #D4CFC4",
"3X c #E9C7C8",
"4X c #E9D2DC",
"5X c #F1D9CD",
"6X c #E8E7C6",
"7X c #F3ECC6",
"8X c #F6F1C2",
"9X c #D9DEE3",
"0X c #DFE3E5",
"qX c #E4E7EA",
"wX c #F6E8E9",
"eX c #F5F7F8",
"rX c #F8F5F7",
"tX c #F8F2ED",
/* pixels */
"                                                                                                                                ",
"                                                                                                                                ",
"                                                                                                                                ",
"                                                                                                                                ",
"                                                                                                                                ",
"                                                                                                                                ",
"                                            # # # #                 # # # #                                                     ",
"                                            V H Z V                 V Z Z V                                                     ",
"                                        # V 8.F.~.M.Z #         # V M.~.G.M.V #                                                 ",
"                                        f E .X@XoXM.V $         $ V M.oX@X{.E f                                                 ",
"                                    $ f -.d.@X{.` V                 Z ` .X+Xd.-.f $                                             ",
"                                    # g 0.|.+X~.D %                 $ D ~.+X|.4.g #                                             ",
"                                    # i 1.k.|.f.P * * # $ $ # # # % * x d.|.g.3.f .                                             ",
"                                    # u @.a.k.s.+.k 7 4 n C C n 4 7 k +.f.k.a.@.2 #                                             ",
"                                    # s X.3.a.a.s.9.S K N.K.K.N.K S 9.s.u.a.h.X.2 #                                             ",
"                                    # , z #.3.p.s.r.` v.T.%X$XP.) _ 9.s.p.3.X.z , #                                             ",
"                                        , a #.$.E ` P.Y.Y.L.B.v.[ / _ E $.#.a ,                                                 ",
"                                        # , P E ( } K.Y.P.B.C.m.m.v.( L o.P , #                                                 ",
"                                        # * A ~ &.C.n.N.c.m.E.oX.XD.&.! L A * $                             # # $ #             ",
"                                        & 5 F ] n.Z.6.6.6.S.XX7X7XXXA.5.T S 5 &                             n C C C             ",
"                                # # # & 8 G x.n.c.m.e.~.d.}.5X4X5XXX}.d.y.-.D v - # # # # # # # # # $ . # M N.K.K.N.n .         ",
"                                n C C C N Q n.A.6.8.'. X}..X2X>X4X3X.X].k.4.Y m N H B V B f 4 3 8 8 3 3 8 K B.T.$XI.] n         ",
"                        # # # m N.I.K.N.! ! N.S.s.g.OX2X=X#X#X&X>X>X-X`.).~._ Q N.L.K.S.w.-.D N } ] F F } c.[ c.P.Y.I.N.C #     ",
"                        f h C _ L.:X*XI.' ! 8.H.f. XOX1X-X#X#X&X>X>X&XT./.~._ ) L.*X*XoX|.d.T J } | ! W | | Q Q x.B.R.P.n $     ",
"                    # f -.r.S.U.U.Y.Y.B.( Y 9.f.g.^.OX4X4X;X/./.3X3X/.~.OX~.~ ! V.Y.Y.E.[.j.T M n m W W m m W ! n ! B.N.b #     ",
"                    C T j.|.oX-XU.K.K.N.! R f. XQ.Q.).3X3X).^._.3X3X(.^.^.~._ ! n.P.L.D.].0.T c - 3 N F 5 6 F J C C ] ] b .     ",
"                . C N.D.].].E.U.L.K.K.N.! ] oX5XQ.!.Q.^._.(.(.).3X3XOX(.!.%.~ ! n.L.K.D.].j.Y c - $ 3 5 v v 8 m ] ] F b         ",
"                # n N.D.{.'.G.D.J.V.J.c.W } <XwX).Q.Q.Q.(.OXOX5X5XwX5XOX_.W.~ W v.V.V.S.].e.Y 8 - # # & 8 8 & 8 / ] b #         ",
"                    n _ M.F.'.~.m.c.x.[ J } <XrXwX3XQ.Q.3XwXwXrXrXrXtXwXwX/.x.G { v.&.8.j.s.D -     # $ - & $ % 5 b             ",
"                    b F ] m.H.d.8.` [ ) [ B.,XeXrXwX).).wXrXrXwXwXwXwXrXrX9XB.] ) { &.6.w.-.0 #     # $ & * $ # $ $             ",
"                $ b ] [ F H  .8.H.q.T [ T.1X1XqXrXrXwXwXrXrX4X3X).).3X4XeXwX9XT.{ T r.w.5.D ; #     # * < < * #                 ",
"                # 5 / _ 5 3 C _ 9.9.7.B.<XqX,X1XrXrXrXrXrXwX4X3X).).3X4XqXeXeX>XV.*.r.9.S 8 - #     . : a a : #                 ",
"        # # # # . - 8 8 - - 4 9 p T Y.1X1X<X=X=XqXeXqX9X9X0XwXtXwXwXtXqXqX9X9X9X<XT.7.S 9 -         # ; P k > #                 ",
"        V Z Z H V Z Z Z V Z Z Z Z T I.;X*X=XU.R.qXeX9X,X*X,XqXeXrXrXrXqX,X:X:X9XrX<X] c - $         # ; P P ; #                 ",
"    . V M.G.G.G.G.G.G.G.G.G.G.G./.M._ _ V.U.L.R.qXeX9X*X$X$X,XqXrXrXqX,X$X$X:X9XrX<X} c - #         # ; P P ; #                 ",
"    g R D.XX@X7X7X7X8X8X8X6X7X6XXXH.R D | b.C.Y.,X0X1X*XU.U.=X,XqXqX1X=XL.U.*X9X0X%X/ 5 & #         # ; P P ; #                 ",
"# f -.w.M.A.*X1X1X6X6X7X6X1X1X;XS.M.r.-.S F ) N.U.=X:X*XY.L.U.`.,X,X$XU.K.Y.:X:X=XB.C & $ .         # ; P P ; #                 ",
"# g 0.j.&.v.L.=X$X;X@X6X=X`.`.L.v.6.j.0.g 4 J { n.K.$X=XT.L.L.U.$X$XU.L.U.Y.$XU.C._ 7 % $ $         # ; P P ; #                 ",
". g 0.j.6.x.v.b.n.P.XXXXA.n.n.v.x.6.j.0.g 3 M W { n.P.T.=X=XU.L.U.U.L.U.%X&XB.x.H 7 = + . #         # ; P P , #                 ",
"# h 0.j.&.{ x.&.v.Z..X.Xn.v.v.&.{ 6.j.0.g - 8 B W { n.K.=X`.U.K.K.K.K.U.%XY.x.F 4 O e e . #         # ; P P ; #                 ",
"# g 0.j.*.&.n.n.V.S.[.[.S.V.V.n.x.&.j.0.g $ - 6 M W { n.P.Y.L.K.K.K.K.L.U.V.) M - + q q O .         # ; P P ; #                 ",
". h 0.j.6.v.V.L.L.D.[.].D.L.L.V.v.6.j.0.g # # - 8 M Q { b.n.B.J.P.P.V.B.N.x.J 5 - + r r + $         # ; P P ; #                 ",
"$ g 0.j.&.v.V.L.P.D.].].D.L.L.V.v.6.j.4.h . # # - 4 M J Q ^ { b.J.V.n.} / G 6 - $ + r r + .         # ; P P ; #                 ",
"# f 4.j.*.v.n.L.L.D.].].D.P.P.C.{ *.j.4.g . > : % - 8 c M M W { v.v.[ W B 8 2 > % + r r + $         # ; P P ; #                 ",
"# d ,.y.T ^ n.L.L.G.].].D.L.L.n./ T y.,.g > x l > $ - - - 6 B N W W K B 6 2 l l > + r r + .         # ; P P ; #                 ",
"# d ,.t.Y W &.n.n.M.j.].A.n.n.&.K Y t.>.d ; l z g u d d g D ( T T T Y D g j z l > + r r + #         # ; P P , #                 ",
"# d >.,.T N W Q Q *.j.j.*.Q ( W N Y t.>.d - > j O.;.>.,.4.e.'.{.j.s.4.4.;.O.j > % + r r + $         # ; P P ; #                 ",
"# d >.4.Y N J N N T 0.j. .N J N N Y t.>.d . > j O.;.>.,.4.e.G.G.w.4.,.<.;.+.j ; % + r r + .         # , P P ; #                 ",
"# d >.,.Y N Q ^ ^ *.y.s.5.^ / Q G Y t.>.d , l z j i f d g h Z Z h g d d u j z l ; + r r + #         # ; P P ; #                 ",
"# d ,.t.R N ) { { *.y.y.5.[ { ^ G Y t.>.d > l z j 2 3 ; u d d u ; 4 1 2 : > l l > + r r + #         # ; P P ; #                 ",
"# d >.t.R J ^ { { 5.y.y.*.{ { ^ G Y t.>.d % > g O.+.Z D =.>.,.=.D h =...1 . > > % + r r + $         # ; P P ; #                 ",
"# d >.t.S B W ) ^ *.y.y.*.^ ^ W B D t.>.d % : f U +.Z D 1.s.y.1.S D =.=.h 6 4 3 $ + r r + .         # ; P P ; #                 ",
"# d >.,.g 9 M N J T t.y.T G G M 5 k ,.>.y 3 N K h 2 3 0 _ 5.5.T 0 : 1 h K W K N 3 + r r + #         # ; P P ; . # $ # $ $ .     ",
"# d =.=.x 0 0 M M Y 2.2.Y M M 0 1 x =...1 4 W W 8 - $ 4 J / / J 6 - - c W ) ^ N 3 + r r + #         . : k h : - i g g g Z V     ",
"    g x +.U 0 4 n Y 3.2.Y M 4 0 U +.x 1 * 4 W ^ B 8 - - M J J M - - 6 B ^ ( M - - + r r + . # . # # # . : > % 1 -.0.s.d.G.M.Z . ",
"    . 1 ..U g 2 v S 1.@.D 8 2 g O.U 2 $ 3 b G G M 8 % * 8 c c 8 - - 6 M J G M 9 % + r r + - 2 y d 1 : - 0 0 : g 4.l.l.|.+XG.Z $ ",
"        1 a z l 7 i #.X.p < l z j 2 % 3 C G b 4 3 * o + * - - $ # $ - - 3 m ' _ 5 + r r + u @.>.>...1 0 -.-.i d ,.z.z.l.+XG.Z $ ",
"        $ , z z p a X.X.a a z l > # & 8 F G c 3 $ O X e o + O . . # # - - M ' / 5 @ q q + y <.i.i.<.d g 4.4.g y <.i.i.l.+X/.Z # ",
"            , p z X.#.#.X.P p = % & 8 v 5 v G C 3 O X w q q e o . # # - N K M 9 & O e e O i ;.u.u.;.i d >.,.d i ;.u.u.k.+XG.Z # ",
"            # , l X.X.X.X.l > $ & 8 G G b c G N 3 O X q t t q X . $ - 6 F J 8 8 v 7 = o @ s O.@.=.U 2 i <.<.f 1 =.2.h.f.@XG.Z # ",
"                , , < < s * * & 8 G x.v./ G c 3 $ O X q t t q X . - 8 c 8 M F ^ | _ 7 @ X = < i i 2 % i ;.;.i < #.$.$.p.OX~.H $ ",
"                $ # # # . # & v G ) n.n.x.W v & $ O X q t t q X . - 8 8 - 8 Q | N.v.K 7 = o @ . # # # u O.U , ; P X.X.#.r.M.V . ",
"                        # & 6 G x.n.x.x.{ Q N 8 & O X q t t q X . . $ 3 8 B ^ { x.c.c.] 7 @ o o . #     1 < * % > < 2 2 h Z     ",
"                        # - c ! n.V.x.x.) ) G c & . X q t t q o . # # - M J ^ { { c.B.c.b . X X O #     # # # # # # # # # $     "
};
