/* XPM */
static char *c9033bdfedf24c96a894048d197ad4b7KBwZAh6zWLBKOIX2[] = {
/* columns rows colors chars-per-pixel */
"64 64 229 2 ",
"   c None",
".  c #1D121E",
"X  c #2A0D1A",
"o  c #3D0614",
"O  c #370A17",
"+  c #21101D",
"@  c #2E1019",
"#  c #3E101A",
"$  c #131521",
"%  c #161925",
"&  c #1A1B25",
"*  c #1A1E29",
"=  c #181320",
"-  c #241D26",
";  c #261723",
":  c #3A1723",
">  c #1D212D",
",  c #1F2530",
"<  c #2C242A",
"1  c #2D282D",
"2  c #272328",
"3  c #3B2C2D",
"4  c #34282A",
"5  c #3C332E",
"6  c #212631",
"7  c #252A35",
"8  c #292D38",
"9  c #2B333D",
"0  c #2B3139",
"q  c #373639",
"w  c #372F39",
"e  c #59020D",
"r  c #55050E",
"t  c #450612",
"y  c #66070A",
"u  c #740206",
"i  c #463B2E",
"p  c #433B31",
"a  c #493633",
"s  c #553A35",
"d  c #402927",
"f  c #613F36",
"g  c #4A402E",
"h  c #4C4535",
"j  c #444135",
"k  c #564A39",
"l  c #59533D",
"z  c #654439",
"x  c #7A4D3E",
"c  c #69583A",
"v  c #78543E",
"b  c #79643C",
"n  c #2E3641",
"m  c #2F3A44",
"M  c #323641",
"N  c #343B45",
"B  c #383E48",
"V  c #413A43",
"C  c #3B434D",
"Z  c #374149",
"A  c #3B4751",
"S  c #3D4953",
"D  c #4C4C48",
"F  c #464746",
"G  c #5B4A43",
"H  c #424C54",
"J  c #444D56",
"K  c #45515A",
"L  c #4B555D",
"P  c #4D595D",
"I  c #5A5954",
"U  c #575348",
"Y  c #654F45",
"T  c #645C45",
"R  c #6F5B4F",
"E  c #5C6157",
"W  c #67634E",
"Q  c #776645",
"!  c #666552",
"~  c #686959",
"^  c #716D57",
"/  c #4D5A63",
"(  c #525E65",
")  c #565A64",
"_  c #56646C",
"`  c #5C656D",
"'  c #5C666A",
"]  c #5E6B72",
"[  c #666766",
"{  c #787964",
"}  c #626C73",
"|  c #646972",
" . c #637179",
".. c #6A757B",
"X. c #6A787D",
"o. c #697376",
"O. c #6F756B",
"+. c #625C66",
"@. c #80503F",
"#. c #846E3E",
"$. c #855340",
"%. c #8B5C46",
"&. c #965D45",
"*. c #967A4C",
"=. c #8A714E",
"-. c #AD724D",
";. c #AF757C",
":. c #7E8679",
">. c #9C804F",
",. c #968959",
"<. c #8F835B",
"1. c #A4864B",
"2. c #B99748",
"3. c #B7964B",
"4. c #AC965B",
"5. c #BA9D54",
"6. c #AF8B59",
"7. c #BBA259",
"8. c #85846C",
"9. c #868B7A",
"0. c #888975",
"q. c #989579",
"w. c #9A946A",
"e. c #A59867",
"r. c #A99E72",
"t. c #BDAC64",
"y. c #B7AA69",
"u. c #B3A873",
"i. c #B2AC78",
"p. c #C5955A",
"a. c #C3A454",
"s. c #CCAD5D",
"d. c #D4AB5C",
"f. c #D3AC4E",
"g. c #E5BA58",
"h. c #C9B368",
"j. c #D6B366",
"k. c #C6B875",
"l. c #D1B06F",
"z. c #D8A870",
"x. c #F0C65C",
"c. c #D1C27A",
"v. c #D8C575",
"b. c #CEC17A",
"n. c #E9CB74",
"m. c #EFD473",
"M. c #6C7B81",
"N. c #737C83",
"B. c #787C85",
"V. c #748186",
"C. c #7A858A",
"Z. c #7B878C",
"A. c #7E8B91",
"S. c #8B938A",
"D. c #828E92",
"F. c #859296",
"G. c #869299",
"H. c #8C989C",
"J. c #8B9498",
"K. c #8F978E",
"L. c #A99988",
"P. c #A5A998",
"I. c #BAB695",
"U. c #B6B69A",
"Y. c #B1B093",
"T. c #939DA2",
"R. c #989DA6",
"E. c #8D99A0",
"W. c #95A1A4",
"Q. c #9AA6A8",
"!. c #9EAAAD",
"~. c #98A4A7",
"^. c #9EA9B0",
"/. c #A1AAAC",
"(. c #A3ADB2",
"). c #A8AEB2",
"_. c #A6B1B4",
"`. c #ABB4B9",
"'. c #B1B9BD",
"]. c #B9BBA6",
"[. c #9CA399",
"{. c #DD9997",
"}. c #D7878A",
"|. c #C5B490",
" X c #E5AE97",
".X c #D6B5AB",
"XX c #E7B8B6",
"oX c #E7B6A7",
"OX c #DE9CA1",
"+X c #D8CA87",
"@X c #DFD086",
"#X c #D0C896",
"$X c #E4D48B",
"%X c #F2DD8A",
"&X c #E8CD8A",
"*X c #C8CBAD",
"=X c #DED9B7",
"-X c #CFCDAE",
";X c #E5D8A4",
":X c #EBC6B8",
">X c #EECFB8",
",X c #F5E8AA",
"<X c #EEE9BA",
"1X c #F5E08A",
"2X c #93BAD1",
"3X c #B4BDC2",
"4X c #AEB7C5",
"5X c #C6BBC0",
"6X c #BBC3C9",
"7X c #BBC3C8",
"8X c #B2C5D9",
"9X c #9CC1D1",
"0X c #C5CAC6",
"qX c #C5CCD3",
"wX c #D7CCD5",
"eX c #CDD3D7",
"rX c #D5D9DA",
"tX c #D6C8CB",
"yX c #EAC8C9",
"uX c #ECD3DA",
"iX c #EED9D1",
"pX c #EAE8C6",
"aX c #F2EBC7",
"sX c #F7F1C2",
"dX c #DADFE4",
"fX c #E6E8EB",
"gX c #F6E8E9",
"hX c #F8F6F7",
"jX c #F8F0F0",
/* pixels */
"                                                                                                                                ",
"                                                                                                                                ",
"                                                                                                                                ",
"                                                                                                                                ",
"                                                                                                                                ",
"                                                                                                                                ",
"                                              $ $                     $ .                                                       ",
"                                            0 0 0 0                 0 0 0 0                                                     ",
"                                          F 0.L.L.0.F             F 0.L.L.0.F                                                   ",
"                                        1 I #X<X<XY.D $         $ D Y.<X<X#XI 1                                                 ",
"                                      j =.u.;X-Xq.~ q             q ~ q.-X;Xu.=.j                                               ",
"                                    $ h t.1X,X|.D $                 $ D |.,X1Xt.h $                                             ",
"                                    $ j 4.n.%Xk.G - & $ $ $ $ $ $ & - G k.%Xn.4.j $                                             ",
"                                    $ p >.j.n.h.R 4 - % & * * & % - 4 R h.n.j.>.p $                                             ",
"                                    $ 5 =.p.j.j.4.=.F C | N.N.| C F =.4.j.j.p.=.5 $                                             ",
"                                    $ 3 $.-.p.j.n.k.~ ] _.eXeX).] ~ k.n.j.p.-.$.3 $                                             ",
"                                      4 s v -.6.e.q.S.H.).`.^.G.} [ 8.e.6.-.v s 4                                               ",
"                                        $ 3 $.&.I } ).6X_.H.V. . ._ K I &.$.3 $                             $ $ $ $             ",
"                                      $ $ 1 G R | N.E.R.G.J.[.P.P.K.} P R G 1 $ $                         N ' o.o.' N           ",
"                                $ $ $ $ $ > N ( A.J.V... .S.-X<X<X-XD._ K N > $ $ $ $ $ $ $ $ $ $ $ $ $ $ H R.qXqXR.F $         ",
"                              N ) | | ) N N ( X.Z.S.K.r.r.Y.=XaXaX=XY.w.<.W q N ) | | [ ^ T q 9 H H 9 9 H ` Z.~.`./.N.) N       ",
"                        $ $ $ H T.6X6X~._ / Z.F.M.9.k.m.m.$X>XiXiX>X$Xn.g.5.T _ ~.6X6X*X+Xy.! / Z.Z./ / C.Z._ ] J._.3XT.H $     ",
"                      5 T W [ N./.7X7X~._ ( D.[.q.u.+X;X-X*X7XqXwXyX-X#X&Xl.~ _ ~.7X7X*X$Xk.~ K _ ` ( ( ` ` ( ( ` V.(.H.C $     ",
"                    $ h 4.+X].'._././.F.( ( D.P.l.n.>XtX9X2X2X2XwXwX9X2X.X|.[ ( F././.].$Xk.~ N 8 M / / M M / / M H D.Z.N $     ",
"                  M L =.k.$X*X3X(.Q.Q.D.( E q.|.z. X>XwX8X2X2X4XwXwX4X'.:X|.[ ( D.Q.Q.U.@Xk.~ m > > Z C 9 9 C J H P ` ' 9       ",
"                $ C J.*X$X$X].!.Q.Q.Q.D.( ! 5.j.z. XyXuXuXtX.X.XyXyX.X X:X|.[ ( D.Q.Q.U.@Xk.~ m > % * 7 n n 7 B ....C 7         ",
"                  B B.P.|.#X|.Y.H.G.G.V./ [ k.&X{.{.XX:X:XXXoXoXyXyXoX X XL.+./ V.G.G.P.+Xh.E 8 > $ $ * 8 8 * 8 ( ' 9           ",
"                    M P S.U.+X|.S.M.M.} K o.-XiX{.}.{. X X XoX:XyXyX:XoX{.;.+.K ] M.M.q.c.t.k *     $ $ & & $ & 7 8             ",
"                    B J } 9.i.i.q.9..._ K X.eXgXXXOX{.{.oX:X>XiXiXiXiX>XXXL.+.J _ ..9.q.u.,.q $     $ & - - & $ $ $             ",
"                $ M o.o.H F O.q.k.i.:._ K X.eXhXgXyX{.{.yXgXjXjXhXhXjXjXgX5Xo.A     b.u.{ D 7 $     $ - 3 3 - $                 ",
"                $ 0 ' ' 0 6 A [ w.e.O.] X.E.eXhXhXgXXXXXgXhXjXgXgXgXgXjXhXrXT...    k.r.I 9 > $     $ 2 s s 2 $                 ",
"        $ $ $ $ $ * 0 0 * & 6 0 p F H o.`.eXdXfXhXhXgXgXhXjXuXyXXXXXyXuXjXhXrX'.o.P O.O.q >         $ 1 G G 1 $                 ",
"        F D D D D D D D D D D D D F B } 0XfXeXeXjXhXhXhXhXgXuXyXXXXXyXuXgXhXhXeXG.o.] K 7 $         $ 1 Y Y 1 $                 ",
"    $ D q.I.I.I.I.I.I.I.I.I.I.I.I.q.F L `.eX3X6XfXhXfXdXdXfXgXgXgXgXgXgXfXdXdXdXeX).o.C > $         $ 1 Y Y 1 $                 ",
"    5 ! Y.=XpXaXaXaXsXsXaXaXaXpX=XY.! I J.(.Q.'.fXhXdXeXqXeXfXhXhXhXhXfXeXqXeXdXhXeXX.m > $         $ 1 Y Y 1 $                 ",
"$ j ,.r.K.P.0XrXrXpXaXaXpXrXrX0XP.K.r.,.~ ` F.'.fXhXdXqX3X3XeXfXhXhXfXeX3X3XqXdXhXeX..m > $         $ 1 Y Y 1 $                 ",
"$ h t.c.9.C.(.6X6X0XpXpX0X7X7X(.C.9.c.t.h M N._.rXfXrX7X_.(.6XeXfXfXrX6X_._.7XrXfX7X} 9 * $         $ 1 Y Y 1 $                 ",
"$ h t.c.9.M.A.G.G./.=X=X/.G.G.A.M.9.c.t.h 9 ` F.`.0XqX7X_.!._.7XrXeX7X_.!._.7XqX0XT.J > % $         $ 1 Y Y 1 $                 ",
"$ h t.c.9. ...X.X.K.-X-XK.X.X... .9.c.t.h 7 L X.F.!.7X7X`.!.Q._.6X7X_.Q.!.`.3X'.T.o.w . $ $         $ 1 Y Y 1 $                 ",
"$ h t.c.9.M.A.F.F.P.$X$XP.F.F.A.M.9.c.t.h 6 C _ X.F.!.'.3X3X(.!._._.!.(.3X'.W.C.( V : X . $         $ 1 Y Y 1 $                 ",
"$ h t.c.9.M.H.Q.Q.U.@X@XU.Q.Q.H.M.9.c.t.h > n S _ X.F./.6X7X_.Q.Q.Q.Q.).7X'.C./ 7 + t t + $         $ 1 Y Y 1 $                 ",
"$ h t.c.9.M.H.Q.Q.U.@X@XU.Q.Q.H.M.9.c.t.h % > 9 S _ M.F.(.`.!.Q.Q.Q.Q.!.`.W. .A 6 @ r r @ $         $ 1 Y Y 1 $                 ",
"$ h t.b.0.M.H.Q.Q.U.@X@XU.Q.Q.H.M.0.b.t.h $ & 6 M S _ M.F.T.W.W.Q.Q.W.T.T.A.( B > @ y y @ $         $ 1 Y Y 1 $                 ",
"$ h 7.h.{ ] F.Q.Q.U.@X@XU.Q.Q.F.] { h.7.h < s s w n H ( ] X.V.D.T.T.D.V.X.[ R Y 1 @ y y @ $         $ 1 Y Y 1 $                 ",
"$ g 2.a.! ( A.W.W.Y.@X@XY.W.W.A.( ! a.2.g 4 @.$.3 7 Z H H P } V.H.H.V.] L U %.@.4 @ y y @ $         $ 1 Y Y 1 $                 ",
"$ g 2.a.! K ` o.o.9.c.c.9.o.o._ K ! a.2.g - a z c =.>.,.w.r.Y.U.#X|.u.e.<.Q z a - @ y y @ $         $ 1 Y Y 1 $                 ",
"$ g 2.a.! A A A A ~ k.k.~ A A A A ! a.2.g $ $ p >.d.g.x.m.%X,X,X%Xm.x.g.d.>.p $ $ @ y y @ $         $ 1 Y Y 1 $                 ",
"$ g 2.a.! S L / / { h.h.{ / / L S ! a.2.g 2 a z c b b #.=.=.8.8.=.=.#.b b c z a 2 @ y y @ $         $ 1 Y Y 1 $                 ",
"$ g 2.a.! K _  . .8.s.s.8. . ._ K ! a.2.g 3 $.$.3 $ $ $ $ $ $ $ $ $ $ $ $ 3 $.$.3 @ y y @ $         $ 1 Y Y 1 $                 ",
"$ g 2.a.! K _  . .8.s.s.8. . ._ K ! a.2.g 2 a z c l q q c b b c q q c c 1 2 a a 2 @ y y @ $         $ 1 Y Y 1 $                 ",
"$ g 2.a.! K _  . .8.s.s.8. . ._ K ! a.2.g $ $ p *.6.I W 5.g.g.5.W W 5.3.i $ $ $ $ @ y y @ $         $ 1 Y Y 1 $                 ",
"$ g 2.5.U N K / / { s.s.{ / / K N U 5.2.g * 9 F T T q D <.y.y.<.D j b Q D B B 9 * @ y y @ $         $ 1 Y Y 1 $ $               ",
"$ i 2.2.h , N A A ! a.a.! A A N , h 2.2.g 7 L P 0 & & 9 ) o.o.) 9 & & 0 P ] ] L 7 @ y y @ $         $ 1 Y Y 1 $ $ $ $ $ $ $     ",
"$ i #.#.c k q n Z ! 5.5.! Z n q k c #.b 4 7 / ( N , % 6 H _ ( H 6 % , N ( _ L B > @ y y @ $ $     $ $ 2 p p 2 1 l Q Q ^ ^ ~ q   ",
"    2 h *.*.p , N I 4.4.E N , p *.*.h 2 & 7 / _ H n > > N S S N > > n H _ / 9 * $ @ y y @ $ $ $ $ $ $ $ & & $ j 4.n.v.@X;XY.D $ ",
"      5 Q Q k a q D *.*.D q a k Q c 1 * 8 B A A N 8 ; ; 8 9 9 7 * * 7 N A J J B 6 @ y y @ 2 h c c h 2 1 k k 1 h 7.m.m.%X,XI.D $ ",
"        1 a x x 3 5 %.%.5 3 x x a 2 & 7 K L 9 > * ; O O ; & & % $ $ % * > B ..o.9 @ y y @ i 1.f.f.1.i j 4.4.j g 2.x.x.m.,XI.D $ ",
"          4 z z s z &.&.z s z s < % > 9 C H B 8 * + o t o O X + = $ $ * 8 C ' ) 8 @ r r @ i 3.g.g.3.i h 7.7.h i 3.g.g.n.,XI.D $ ",
"            < a x &.-.-.&.x a - & * 9 n 7 9 K K 6 + o r y y t O . $ $ 6 K L N 6 & + t t + p 1.d.d.1.p h 3.3.h p 1.d.d.l.,XI.D $ ",
"            $ 4 z x x x x f < % > 9 L / B N H C 6 + o e u u e o + % > 9 A H N M B q : O X d v *.*.Q 1 i 3.3.i 5 *.p.p.l.;XI.D $ ",
"                < 4 4 4 4 < & * 9 K N.Z.] K 9 > % + o e u u e o + * 9 n 7 9 K ] N.} w X O # 4 5 5 1 & p 1.1.p 3 %.-.-.p.;X|.D $ ",
"                $ $ $ $ $ % * 9 K } A.A.M.( n > % + o e u u e o + * 8 9 6 n ( M.A.V.P w : O X . . $ $ 5 Q Q 4 < z @.@.=.r.q.F $ ",
"                        $ * 9 K M.A.V.M.o._ A 9 * + o e u u e o + % * 6 9 A _ o.M.N.C.| w X O O . $     5 4 & & < 4 4 5 p F     ",
"                        $ > m ( D.H.M. . ._ K m > + o e u u e o + $ $ > m K _  . .M.H.V.N + o o + $     $ $ $ $ $ $ $ $ $ $     "
};
