/* XPM */
static char *_d4ec28bb8e844e2dce3629f33454434HBB0rgbPTpirh1jG[] = {
/* columns rows colors chars-per-pixel */
"64 64 217 2 ",
"   c None",
".  c #1D111E",
"X  c #3D0614",
"o  c #350A17",
"O  c #22101D",
"+  c #2E1019",
"@  c #2C0E1B",
"#  c #131521",
"$  c #151824",
"%  c #1B1A25",
"&  c #1A1E2A",
"*  c #251C26",
"=  c #3B1320",
"-  c #1D222E",
";  c #2D282D",
":  c #252329",
">  c #302529",
",  c #35292B",
"<  c #3A2C2C",
"1  c #3E362D",
"2  c #3B352E",
"3  c #222631",
"4  c #252A35",
"5  c #2A2F3A",
"6  c #262D38",
"7  c #362D34",
"8  c #2A313B",
"9  c #2F3236",
"0  c #3E3B34",
"q  c #35373B",
"w  c #5A030D",
"e  c #52030F",
"r  c #470612",
"t  c #66070A",
"y  c #740206",
"u  c #463D2F",
"i  c #433B31",
"p  c #493533",
"a  c #553B35",
"s  c #412D29",
"d  c #4A402E",
"f  c #4B4535",
"g  c #494539",
"h  c #534034",
"j  c #54463A",
"k  c #6B453A",
"l  c #744B3C",
"z  c #605136",
"x  c #2E3842",
"c  c #313741",
"v  c #343C45",
"b  c #383C47",
"n  c #3C424C",
"m  c #38424C",
"M  c #3E4953",
"N  c #3C4751",
"B  c #4A4A46",
"V  c #42444E",
"C  c #4C4C49",
"Z  c #464143",
"A  c #55554B",
"S  c #545245",
"D  c #434D56",
"F  c #444E56",
"G  c #45515B",
"H  c #4B535A",
"J  c #54575A",
"K  c #5A4C44",
"L  c #654F45",
"P  c #635747",
"I  c #725349",
"U  c #7E6946",
"Y  c #666452",
"T  c #6B6C5B",
"R  c #6E6A55",
"E  c #797159",
"W  c #4D5A63",
"Q  c #515D65",
"!  c #525C65",
"~  c #615D61",
"^  c #56646D",
"/  c #5B666D",
"(  c #586064",
")  c #5D6A72",
"_  c #656769",
"`  c #6E7364",
"'  c #797B69",
"]  c #636D73",
"[  c #686C74",
"{  c #657076",
"}  c #637179",
"|  c #69757C",
" . c #6D777B",
".. c #767D71",
"X. c #90773E",
"o. c #8A5742",
"O. c #805F53",
"+. c #866A46",
"@. c #8A724C",
"#. c #987A47",
"$. c #96664A",
"%. c #A8704E",
"&. c #B17A7E",
"*. c #7B847C",
"=. c #7E826F",
"-. c #998045",
";. c #998C57",
":. c #A5874E",
">. c #B99748",
",. c #B7984C",
"<. c #A58754",
"1. c #B69958",
"2. c #AF8C58",
"3. c #BBA65D",
"4. c #85856D",
"5. c #868B79",
"6. c #8A8D7D",
"7. c #969779",
"8. c #A99D6D",
"9. c #BDAC64",
"0. c #B0A56E",
"q. c #B4AB75",
"w. c #BDB277",
"e. c #AAA26F",
"r. c #C3A454",
"t. c #CAAC5D",
"y. c #D7AE5C",
"u. c #E8BC57",
"i. c #C69C64",
"p. c #D0A560",
"a. c #C9B268",
"s. c #D7B56A",
"d. c #CABA74",
"f. c #C8AE6F",
"g. c #E1B678",
"h. c #C6975A",
"j. c #D1C27A",
"k. c #DAC77C",
"l. c #EACA71",
"z. c #F2CA5E",
"x. c #6E7C83",
"c. c #727D83",
"v. c #77848A",
"b. c #7D8A90",
"n. c #89928A",
"m. c #989984",
"M. c #828C92",
"N. c #8B9599",
"B. c #8D999D",
"V. c #869295",
"C. c #8F9793",
"Z. c #9CA397",
"A. c #A6A997",
"S. c #B2B49D",
"D. c #BFBB99",
"F. c #BCBB97",
"G. c #B2AD8B",
"H. c #939CA2",
"J. c #9BA5A9",
"K. c #9DA9AC",
"L. c #96A2A6",
"P. c #A3A9AC",
"I. c #A3AEB1",
"U. c #A6B1B5",
"Y. c #ACB5BA",
"T. c #B1BABD",
"R. c #BABCA5",
"E. c #B98F8D",
"W. c #DD9997",
"Q. c #D88A8C",
"!. c #CAAE8E",
"~. c #E5AE99",
"^. c #CDB3B0",
"/. c #E6B5A2",
"(. c #E6B8B6",
"). c #E4ABA6",
"_. c #AAC0B9",
"`. c #D7C986",
"'. c #DFD086",
"]. c #DCD089",
"[. c #DCD291",
"{. c #D2C898",
"}. c #EBD685",
"|. c #EBD189",
" X c #D5D2A8",
".X c #DAD6B4",
"XX c #CFC8AB",
"oX c #EBCDB1",
"OX c #F5E7A6",
"+X c #EBE3B1",
"@X c #90BBD0",
"#X c #B4BDC2",
"$X c #B8BDC0",
"%X c #A5B8C8",
"&X c #BFC8CD",
"*X c #BAC3C7",
"=X c #A8C3D0",
"-X c #C4C6C5",
";X c #C4CBD2",
":X c #D6CCD6",
">X c #CCD3D8",
",X c #CCD1D5",
"<X c #D4D8D9",
"1X c #D4CFC4",
"2X c #E9C7C8",
"3X c #E9D2DC",
"4X c #F1D9CD",
"5X c #E8E7C6",
"6X c #F3ECC6",
"7X c #F6F1C2",
"8X c #D9DEE3",
"9X c #DFE3E5",
"0X c #E4E7EA",
"qX c #F6E8E9",
"wX c #F5F7F8",
"eX c #F8F5F7",
"rX c #F8F2ED",
/* pixels */
"                                                                                                                                ",
"                                                                                                                                ",
"                                                                                                                                ",
"                                                                                                                                ",
"                                                                                                                                ",
"                                                                                                                                ",
"                                                                                                                                ",
"                                                                                                                                ",
"                                            # # # #                 # # # #                                                     ",
"                                            B C C B                 B C C B                                                     ",
"                                        # B m.D.D.m.B #         # B m.D.D.m.B #                                                 ",
"                                        g E {.+XXXm.B #         # B m.XX+X{.E g                                                 ",
"                                    # g ;.d.+XXX' B                 B ' XX+Xd.;.g #                                             ",
"                                    # f 3.}.OX!.S %                 % S !.OX}.3.f #                                             ",
"                                    # i <.l.}.f.L * % # # # # # # % * L f.}.l.<.i #                                             ",
"                                    # i #.p.l.a.@.j 7 4 b V V b 4 7 j @.a.l.p.#.i #                                             ",
"                                    # < o.2.p.s.a.;.A H M.J.J.M.H A ;.a.s.p.2.o.< #                                             ",
"                                    # , k $.2.i.a.e...v.Y.*X#XL.) _ 8.a.i.2.$.k , #                                             ",
"                                        , a $.%.E ..H.U.U.K.V.c.} / _ E %.$.a ,                             # # # #             ",
"                                        # , I O.~ | J.Y.L.N.n.n.n.*.( J I I , #                             n V V n             ",
"                                # # # # # : Z ~ c.M.b.v.c.V.R. X XS.*.( J Z : # # # # # # # # # # # # # # n M.J.J.M.n #         ",
"                                n V V b 4 8 F ] b.N.n.5.5.Z..X6X6X.XZ.=.T S 9 4 b V V V g i 4 3 8 8 3 3 8 W N.Y.*XP._ n         ",
"                        # # # n M.J.J.M.H F  .b.v.n.w.j.j.`.oX4X4XoX`.d.t.;.S H M.J.J.A.q.;.A D { { D D ] c.] c.H.I.P.M.n #     ",
"                        g g V _ P.&X&XK./ Q M.H.6.7.`.|.[. X1X:X3X2X X].l.i.Y / K.&X&XXX|.d.T H |  .Q Q  . .Q Q  .N.Y.H.n #     ",
"                    # f ;.q.A.P.I.U.U.N.^ Q M.A.f.g.oX1X=X@X@X=X:X:X=X_.{.!._ ^ N.U.U.R.|.d.T m v n W W n n W W n J N.M.b #     ",
"                    n R d.|.XX#XI.J.J.M.Q ! m.G.s.|.oX:X=X@X@X%X:X:X%X%X(.!._ Q M.J.J.S.'.d.T x - 3 M D 5 5 D G n D { ] c #     ",
"                # n M.S.'.|.R.I.K.J.J.M.Q Y 3.s.g.~.2X3X:X-X^.^.2X2X^.^.oX!._ Q M.J.J.S.'.d.T x - % 3 5 x x 5 n ] { D c         ",
"                # n M.P.{.`.F.A.H.B.B.v.W T f.|.W.W.(.2X2X(././.2X2X/.~./.E._ W v.B.B.A.`.a.Y 8 - # # & 8 8 & 8 / ] c #         ",
"                    n ( m.F.`.!.n.x.x.} H [ XX4XW.Q.W.~.~././.oX2X2XoX/.W.&.~ H } x.x.m.j.a.S -     # $ & & $ & 8 c             ",
"                    q D { n.w.w.7.*. .^ G | ,XqX(.W.W.W.).oXoX4X4X4X4XoX).E.~ D ^  .*.7.q.;.i #     # $ * * $ # # #             ",
"                # c ] { D F ' 7.w.q.*.^ G | ,XeXqX2XW.W.2XqXrXrXrXrXrXqXqX^.[ M     d.q.4.A ; #     # * < < * #                 ",
"                c H v.c.M c F ` q.q...) } N.>XwXeXqX(.(.qXeXeXqXqXqXqXeXeX<XB.}     d.e.J 8 - #     # : a a : #                 ",
"            # c ] v.c.| ^ F c n ` ..! } U.>X<X0XwXeXqXqXeXeX3X2X(.(.2X3XeXwX<XY.} J ..` v -         # > K K > #                 ",
"            # 8 /  .^ W W M 3 3 D ^ ] N.>X0X>X>XwXeXwXwXwXqX3X2X(.(.2X3XqXwXwX>XN.} ) G 4 #         # ; L L ; #                 ",
"        # # # & 8 c 5 6 6 3 % % 3 J P.>X<X>X#X*X0XwX0X8X8X0XqXqXqXqXqXqX0X8X8X<X>XU.} m - #         # ; L L ; #                 ",
"        B C C C C C C C C C C C C _ P.-X;X#XI.T.0XwX8X,X;X>X0XwXeXeXwX0X>X;X,X8XwX,X| x - #         # ; L L ; #                 ",
"    # B m.D.D.D.D.D.D.D.D.D.D.D.D.m._ ] B.I.K.T.0XwX8X;XT.#X>X0XwXwX0X>X#XT.;X8XwX,X| x - #         # ; L L ; #                 ",
"    g R G..X5X6X6X6X7X7X6X6X6X5X.XG.R A  .b.V.I.>X9X<X&XU.I.#X>X0X0X>X*XI.U.&X<X9X$X/ 8 & #         # ; L L ; #                 ",
"# g ;.0.m.Z.-X<X<X5X6X6X5X<X<X-XZ.m.0.;.A D ] M.I.*X;X&XU.K.I.#X>X>X#XI.K.U.&X;X*XN.D & $ #         # ; L L ; #                 ",
"# f 9.j.5.v.K.#X#X-X5X5X-X#X#XK.v.5.j.9.f 4 G } b.J.#X*XY.I.K.I.#X#XI.K.I.Y.T.I.V._ 7 . # #         # ; L L ; #                 ",
"# f 9.j.5.| v.b.b.Z..X.XZ.b.b.v.| 5.j.9.f - m W } b.J.Y.*X#XI.K.I.I.K.I.#XT.B.| F 7 = o . #         # ; L L ; #                 ",
"# f 9.j.5.} x.x.x.C. X XC.x.x.x.} 5.j.9.f & 8 m W } b.J.#X#XI.J.J.J.J.I.#XI.c.G 4 O r r O #         # ; L L ; #                 ",
"# f 9.j.5.x.M.B.B.A.[.[.A.B.B.M.x.5.j.9.f $ & 6 m W } b.J.I.K.J.J.J.J.K.I.B.) m - + w w + #         # ; L L ; #                 ",
"# f 9.j.5.x.B.J.J.S.'.'.S.J.J.B.x.5.j.9.f % > 7 q m W } v.V.N.B.L.L.B.N.V.c.~ Z : + t t + #         # ; L L ; #                 ",
"# f 9.j.5.x.B.J.J.S.'.'.S.J.J.B.x.5.j.9.f > k k 7 6 m H W /  .b.B.B.b.| / ~ O.I , + t t + #         # ; L L ; #                 ",
"# f 3.d.=. .N.J.J.S.'.'.S.J.J.N.| =.d.3.f > k l h g A Y T ` *.C.A.A.6.' T P I k > + t t + #         # ; L L ; #                 ",
"# f ,.t.T / V.J.J.S.'.'.S.J.J.V./ T t.,.f % > h +.<.1.t.a.`.{. X[.k.s.t.1.@.j > % + t t + #         # ; L L ; #                 ",
"# d >.r.Y W c.M.M.Z.`.`.Z.M.M.c.W Y r.>.d % > h +.:.,.,.3.w.F.F.w.3.,.,.:.+.h > % + t t + #         # ; L L ; #                 ",
"# d >.r.Y M W Q Q ' d.d.' Q Q W M Y r.>.d > k l h i u f f g B B g f f u i h l k > + t t + #         # ; L L ; #                 ",
"# d >.r.Y N D G G ` a.a.` G G D N Y r.>.d > k l h 2 3 ; 1 d d 1 ; ; 1 1 : > k k > + t t + #         # ; L L ; #                 ",
"# d >.r.Y D W ^ ^ ' a.a.=./ ^ W D Y r.>.d % > h +.@.C S -.>.>.-.S S -.X.1 % > > % + t t + #         # ; L L ; #                 ",
"# d >.r.Y G ^ } } 4.t.t.4.} } ^ G Y r.>.d % 3 g +.@.C A <.t.t.<.A S -.#.g 6 6 3 % + t t + #         # ; L L ; #                 ",
"# d >.r.Y G ^ } } 4.t.t.4.} } ^ G Y r.>.d 3 M H g 2 3 q T 4.4.T q ; 1 g H W W M 3 + t t + #         # ; L L ; # # # # # # #     ",
"# d >.r.P m W ^ ^ ' t.t.' ^ ^ W m P r.>.d 6 W Q x & $ 4 G ^ ^ G 4 $ & x W ) Q M 3 + t t + #         # : j j : : 0 f f g B B     ",
"# d >.,.j 6 m G G T r.r.T G G m 6 j ,.>.d 6 W ^ M 8 & - m G G m - & 8 M ^ Q v 3 % + t t + # # # # # # % : : % 0 ;.9.9.w.F.m.B # ",
"# u #.-.z 0 q v m Y 1.1.Y m v q 0 z -.#.g c F G m 5 * * 5 x x 8 & & 8 m G G n 8 & + t t + : 1 u d 1 * : 0 0 : f 3.l.l.}.OXD.C # ",
"    u z @.U 0 4 v Y 1.1.Y v 4 0 U @.z g H F c 4 - * o o * - - & $ $ & - 4 n ] / 8 + t t + 1 X.>.>.X.1 0 ;.;.0 f ,.z.z.l.OXD.C # ",
"    # 1 +.+.h 7 q A <.<.A q 7 h +.U 0 5 D F c 3 % O X r o + O . # # # % 3 n ] / 8 + w w + u ,.u.u.,.u f 3.3.f u ,.u.u.l.OXD.C # ",
"        1 h l k 7 i $.$.i 7 k l h 0 q x 5 c F M 3 O X e w w r o . # # 3 M G n 8 & O r r O i :.y.y.:.i f ,.,.f i :.y.y.g.OXD.C # ",
"        # , k l p a o.o.a p l k 7 8 G G c c F M 3 O X w y y w X O $ & 5 D F c 5 c 7 = o @ s +.:.:.U < u ,.,.u i #.h.h.f.+XD.C # ",
"            , p l o.$.$.o.l p 7 q F  .v./ F c 3 % O X w y y w X O & 8 x 5 c F ^  ._ 7 @ o = s i i < % i :.:.i < o.%.%.i.oX!.C # ",
"            # , k o.o.o.o.k 7 5 F ] b.M.x.Q x & $ O X w y y w X O & 8 8 3 x W x.M.v.H 7 = o @ . # # # 1 +.U < > k o.o.$.G.m.B # ",
"                , , , , , 7 q F  .b.v.x.} ^ M 8 & O X w y y w X O $ & 3 8 M ^ } x.c.v._ 7 @ o o . #     1 < % % > , , 2 Z B     ",
"                # # # # # - c Q M.B.x.} } ^ G x - O X w y y w X O # # - x G ^ } } x.B.v.v O X X O #     # # # # # # # # # #     "
};
