/* XPM */
static char *a162b0b94aff41d7a18bee2d407c5f0cYy6IHVSMuVhorqwd[] = {
/* columns rows colors chars-per-pixel */
"64 64 217 2 ",
"   c None",
".  c #1D111E",
"X  c #3D0614",
"o  c #340916",
"O  c #350D1A",
"+  c #22101D",
"@  c #2E1019",
"#  c #280D1B",
"$  c #131521",
"%  c #151824",
"&  c #1B1A25",
"*  c #1A1E2A",
"=  c #251C26",
"-  c #3B1320",
";  c #1D222E",
":  c #1F2430",
">  c #2D282D",
",  c #252329",
"<  c #302529",
"1  c #35292B",
"2  c #3A2C2C",
"3  c #3E362D",
"4  c #3A342D",
"5  c #222631",
"6  c #252A35",
"7  c #2A2F3A",
"8  c #262D38",
"9  c #362D34",
"0  c #2A313B",
"q  c #2F3236",
"w  c #3E3B34",
"e  c #35373B",
"r  c #5A030D",
"t  c #52030F",
"y  c #470612",
"u  c #66070A",
"i  c #740206",
"p  c #463D2F",
"a  c #433B31",
"s  c #493533",
"d  c #553B35",
"f  c #4A402E",
"g  c #4B4535",
"h  c #494539",
"j  c #534034",
"k  c #54463A",
"l  c #6B453A",
"z  c #744B3C",
"x  c #605136",
"c  c #2E3842",
"v  c #313641",
"b  c #333B45",
"n  c #383C47",
"m  c #37424C",
"M  c #3C424C",
"N  c #3E4447",
"B  c #3E4953",
"V  c #3C4751",
"C  c #4A4A46",
"Z  c #42444E",
"A  c #4C4C49",
"S  c #464143",
"D  c #55554B",
"F  c #545245",
"G  c #434D56",
"H  c #444E56",
"J  c #45515B",
"K  c #4B535A",
"L  c #54575A",
"P  c #5A4C44",
"I  c #654F45",
"U  c #635747",
"Y  c #725349",
"T  c #7E6946",
"R  c #666452",
"E  c #6B6C5B",
"W  c #6E6A55",
"Q  c #797159",
"!  c #4D5A63",
"~  c #515D65",
"^  c #525C65",
"/  c #615D61",
"(  c #56646D",
")  c #5B666D",
"_  c #586064",
"`  c #5D6A72",
"'  c #656769",
"]  c #6E7364",
"[  c #797B69",
"{  c #636C73",
"}  c #686C74",
"|  c #657076",
" . c #637179",
".. c #69757C",
"X. c #6D777B",
"o. c #767D71",
"O. c #90773E",
"+. c #8A5742",
"@. c #805F53",
"#. c #876A46",
"$. c #8A724C",
"%. c #987A47",
"&. c #96664A",
"*. c #A8704E",
"=. c #B17A7E",
"-. c #7B847C",
";. c #7E826F",
":. c #998045",
">. c #998C57",
",. c #A5874E",
"<. c #B99748",
"1. c #B7984C",
"2. c #A58754",
"3. c #B69958",
"4. c #AF8C58",
"5. c #BBA65D",
"6. c #85856D",
"7. c #868B79",
"8. c #8A8D7D",
"9. c #969779",
"0. c #A99D6D",
"q. c #BDAC64",
"w. c #B0A56E",
"e. c #B4AB75",
"r. c #BDB277",
"t. c #AAA26F",
"y. c #C3A454",
"u. c #CAAC5D",
"i. c #D7AE5C",
"p. c #E8BC57",
"a. c #C69C64",
"s. c #D0A560",
"d. c #C9B268",
"f. c #D7B56A",
"g. c #CABA74",
"h. c #C8AE6F",
"j. c #D3A769",
"k. c #D1C27A",
"l. c #DAC77C",
"z. c #EACA71",
"x. c #F2CA5E",
"c. c #6E7C83",
"v. c #727D83",
"b. c #77848A",
"n. c #7D8A90",
"m. c #89928A",
"M. c #989984",
"N. c #828C92",
"B. c #8B9599",
"V. c #8D999D",
"C. c #869295",
"Z. c #8F9793",
"A. c #9CA397",
"S. c #A6A997",
"D. c #B2B49D",
"F. c #BFBB99",
"G. c #BCBB97",
"H. c #B2AD8B",
"J. c #939CA2",
"K. c #9BA5A9",
"L. c #9DA9AC",
"P. c #96A2A6",
"I. c #A3A9AC",
"U. c #A3AEB1",
"Y. c #A6B1B5",
"T. c #ACB5BA",
"R. c #B1BABD",
"E. c #BABCA5",
"W. c #B98F8D",
"Q. c #DD9997",
"!. c #D88A8C",
"~. c #CAAE8E",
"^. c #E5AE99",
"/. c #CDB3B0",
"(. c #E6B5A2",
"). c #E6B8B6",
"_. c #E4ABA6",
"`. c #AAC0B9",
"'. c #D7C986",
"]. c #DFD086",
"[. c #DCD089",
"{. c #D6CC95",
"}. c #EBD685",
"|. c #EBD189",
" X c #D5D2A8",
".X c #DAD6B4",
"XX c #CFC8AB",
"oX c #EBCDB1",
"OX c #F5E7A6",
"+X c #EBE3B1",
"@X c #90BBD0",
"#X c #B4BDC2",
"$X c #B8BDC0",
"%X c #A5B8C8",
"&X c #BFC8CD",
"*X c #BAC3C7",
"=X c #A8C3D0",
"-X c #C4C6C5",
";X c #C4CBD2",
":X c #D6CCD6",
">X c #CCD3D8",
",X c #CCD1D5",
"<X c #D4D8D9",
"1X c #D4CFC4",
"2X c #E9C7C8",
"3X c #E9D2DC",
"4X c #F1D9CD",
"5X c #E8E7C6",
"6X c #F3ECC6",
"7X c #F6F1C2",
"8X c #D9DEE3",
"9X c #DFE3E5",
"0X c #E4E7EA",
"qX c #F6E8E9",
"wX c #F5F7F8",
"eX c #F8F5F7",
"rX c #F8F2ED",
/* pixels */
"                                                                                                                                ",
"                                                                                                                                ",
"                                                                                                                                ",
"                                                                                                                                ",
"                                                                                                                                ",
"                                                                                                                                ",
"                                                                                                                                ",
"                                                                                                                                ",
"                                            % $ $ $                 $ $ $ $                                                     ",
"                                            Z A A A                 C A A C                                                     ",
"                                        $ C M.F.F.M.S %         % C M.~.F.M.C $                                                 ",
"                                        h Q {.+XXXM.A %         . A M.XX+XXXQ h                                                 ",
"                                    $ h >.k.+XXX[ C                 C [ XX+Xg.>.g $                                             ",
"                                    $ g q.z.OX~.P &                 & F g.OX}.q.g $                                             ",
"                                    . p 2.l.z.g.I = & $ $ $ $ $ % . < I h.}.z.2.a $                                             ",
"                                    $ a %.s.z.d.$.k 9 6 n Z Z n 8 q k $.d.f.s.%.3 $                                             ",
"                                    $ 2 +.4.s.f.d.4.D J n.K.I.N.K D 4.s.f.i.3.+.4 $                         % $ $ $             ",
"                                    % 1 z &.4.a.h.t.-.b.Y.&X#XP.{ ) t.h.s.*.&.l 4 ;                         Z Z Z Z             ",
"                                        1 d &.*.Q o.P.Y.Y.K.B.v. .( ] Q *.&.d 2                 % $ $ $ . n N.K.K.N.M .         ",
"                                        . 1 z @./ ..K.Y.P.B.N.m.m.-.^ L Y Y 1 $                 v v 5 5 7 ! B.T.#XU.) Z         ",
"                                % $ $ $ . 5 S L -.n.n.b.b.Z.E..X XD.b._ L S , $ $ . $ $ % % $ c } { G G  .v. .v.J.U.I.N.M $     ",
"                                n Z M n 6 8 J | n.C.m.7.7.M..X6X6X.XM.;.E F q 6 m Z M N h h 5 c { ..~ ! X...^ ^ ..B.T.J.M %     ",
"                        $ $ $ M N.I.K.N.K G X.n.b.7.H.k.k.'.oX3X4XoX{.g.a.>.A ! N.L.L.S.e.>.D m v M ! ! M M ! ! Z ! B.N.n $     ",
"                        h h S ) K.;X&XL.` ( n.A.m.0.].|.{. X:X8X3X4X X].z.a.E ( U.&X&XXX[.r.E c ; 5 Z G 7 7 G J n G { } v %     ",
"                    $ h >.w.A.L.U.Y.Y.B._ ^ N.S.h.z.{.1X=X@X@X%X,X:X=X`.XXW.E _ V.Y.Y.E.].k.E c ; % 5 0 c v 0 n } } G v         ",
"                    M W k.}..X=XU.K.K.N.^ ^ M.H.f.^.oX:X=X@X@X%X:X:X%X%X).~.' ! n.K.K.D.l.d.R m : $ . * 0 0 * 7 ' } v %         ",
"                $ Z N.D.[.[.E.U.L.K.K.N.^ R w.f.f.^.2X3X:X-X/.).2X2X/.~.oX~.' _ n.K.P.D.[.g.E m     $ % * * % * 7 v             ",
"                $ n N.D.{.[.G.S.J.V.V.b.! ' j.z.^.Q.).2X2X).^.(.2X2X(.^.^.W.' ! b.V.V.S.l.g.R c     $ % = & % % $ $             ",
"                    Z ^ M.~.[.~.m.v.c. .J | XX4XQ.!.Q._._.(.(.oX4X2XoX(.Q.=.L J ` b.b.8.'.q.F ;     $ , 2 2 = $                 ",
"                    v H ..m.H.r.9.-.X.( J X.,XqX).Q.!.Q.(.).oX4X3X4X4XoX_.W./ G ( -.-.9.e.>.w $     . , d d , %                 ",
"                % v } } H A o.9.r.e.-.( J ..,XeXqX2XQ.Q.2XqXrXrXeXrXeXqX3X/.} B     k.e.6.F > $     $ , I k < $                 ",
"                v K v.v.Z v G ] e.e.o.` | B.>XeXeXqX).).qXeXrXrXqXqXrXeXeX8XB.c.    r.t.D 0 ; $     $ > I I > $                 ",
"            $ e ) b.b...( J e m ] o.^ } T.<X<X0XeXeXqXqXeXeX3X2X).).2X3XeXwX<XT...L o.] n *         $ > I I > $                 ",
"            $ q ) ..( ! K B : ; B _ { B.,X0X>X<XeXeXwXwXwXqX3X2X).).2X3XqXwXwX:XB. .` J 5 .         $ > I I > $                 ",
"        $ $ $ ; q e 0 8 8 5 ; ; 5 ! I.,X8X>XR.*X0XeX0X8X8X8X0XrXqXrXrXqX8X8X8X8X,XY. .m : $         $ > I I > $                 ",
"        C A A A A A A A A A A A A ' I.-X;X#XY.R.0XwX8X>X;X>X0XwXeXeXeX0X>X;X;X8XeX,X..c ; $         $ > I I > $                 ",
"    % C 9.F.F.F.G.G.F.F.G.G.G.G.~.A.] ' J.I.I.R.0XeX8X;X`.*X,X9XwXwX0X>X#X#X;X8XwX,X .b ; $         $ > I I > $                 ",
"    h W D..X5X6X6X6X7X7X6X6X6X5X.XD.W F } n.C.U.>X8X8X&XY.U.*X,X0X0X>X#XU.Y.&X<X9X#X) 7 * $         $ > I I > $                 ",
". h >.w.9.A.-X<X>X5X6X6X5X<X<X*XA.M.w.>.D G { N.Y.#X;X#XY.L.Y.`.>X>XR.U.I.U.&X;X*XB.V ; % $         $ 1 I I > $                 ",
"$ g q.k.-.b.L.#XR.-X5X5X-X`.`.L.b.7.'.q.h 6 J  .N.L.#X#XT.U.L.U.#X#XU.L.U.T.%XU.C.' 9 . . $         $ > I I > $                 ",
"$ g q.k.7.c.b.n.b.A..X.XA.n.b.b. .7.k.q.h 5 m !  .n.K.T.*X*XU.L.U.U.L.U.#X%XV.c.G 9 - o . $         $ > I I > $                 ",
"$ g q.k.7. .c.c.b.Z. X XZ.b.b.b. .7.k.q.h * 8 V !  .n.K.R.*XU.K.L.L.K.U.#XY.v.J 5 # y y + $         $ > I I > $                 ",
"$ g q.k.-. .n.V.V.S.[.[.S.V.n.n.c.7.k.q.g % ; 8 m ~  .n.P.Y.L.K.K.K.K.L.U.V.` m 5 @ r r @ $         $ > I I > $                 ",
"$ h q.k.7.b.V.K.L.E.[.].D.P.L.V.c.7.k.q.g & < 9 e V !  .b.n.V.V.P.P.V.B.B.o.' S 5 @ u u O $         $ > I I > $                 ",
"$ g q.k.7.b.B.K.K.D.l.].D.K.K.V.c.7.k.d.g < l l 4 8 V K ! ( -.n.V.J.b. .) / @.z 1 @ u u @ $         $ > I I > $                 ",
"$ g 5.k.;...C.K.P.D.].].D.K.K.B...;.g.5.g < l z g g D W E ] -.M.S.S.9.;.R R Y l < @ u u @ $         $ 1 I I > $                 ",
"$ f 1.u.E ( n.L.L.G.].].D.K.K.C.) E u.1.f & > j #.,.1.q.q.'.{. X[.l.f.5.3.$.k < & @ u u @ $         $ > I I > $                 ",
"$ f <.y.R ! b.n.n.A.].l.M.n.n.b.K R y.<.f & < j #.,.1.1.5.e.H.G.r.5.1.<.,.#.j < & @ u u @ $         $ > I I 1 $                 ",
"$ f <.5.R B ~ ~ ~ ;.k.k.;.~ ~ ! B W 5.<.f < l z j f f f g g F C h g f f 3 d z l > @ u u @ $         $ > I I > $                 ",
"$ f <.y.R B J J m ;.k.d.R B J B B R y.<.f < l z j 4 , 5 w f f w 6 , w 3 , < l l < @ u u @ $         $ > I I > $                 ",
"$ f <.y.R B ~ ( ( ;.d.d.;.( ( ~ B R y.<.f & < g $.T A F :.1.1.:.F F :.O.3 & < < & @ u u @ %         $ > I I > $ $ % $ % $ %     ",
"$ f <.y.E B (  .` ;.u.u.;.` ;.( J R y.<.f & , h T $.A D 4.u.u.2.D F :.:.h 6 8 5 % @ u u @ .         $ , g g , , w g g h C C     ",
"$ f <.y.R A (  .] 6.u.u.;.-.( ~ J R y.<.p 5 V K h e 5 e ] 6.6.] e > w g K ! ! B 5 @ u u @ . $ $ $ $ . . , , & w >.k.q.k.~.M.A % ",
"$ f <.y.R N ~ ( ( ;.u.u.;.( ( ! V U y.<.f 6 ! ! 0 ; $ 5 J ) ( J 6 % ; 0 ! ` _ V 5 @ u u @ , 4 f f 3 ; , w w ; g 5.z.z.}.OXG.A . ",
"$ f <.<.g 8 m B B ] 5.5.E J J m 8 g <.<.f 8 ! ( V 0 ; ; m J J m ; ; 0 V ( _ b ; & @ u u @ 3 O.<.<.O.4 w >.>.4 f <.x.x.z.OXG.A % ",
"$ f :.:.x w e m m R 1.5.R m c m 3 x ,.%.h v J J m 0 = = 0 v c 0 ; ; 0 m J J M q ; @ u u @ p 1.p.p.<.p g 5.5.g f <.p.p.z.OXG.A $ ",
"    f x $.T a 6 m R 4.3.L n 8 w T $.x h L H c 5 : = o @ = ; * * $ $ % ; 6 m { ) 7 O u u @ a 2.i.i.,.p f 1.1.f a ,.i.s.z.+XXXC $ ",
"    % 3 #.#.d 9 0 F 2.%.D v 9 j #.T w 8 B H e 5 & + X y @ @ # . $ $ $ ; : m { ' v # r r @ 1 T :.:.T 4 p 1.1.f 3 %.y.a.f.oX~.C $ ",
"        3 j z l 4 a &.&.a 9 l z d w e c 0 v J G 5 . X t r r y o . $ $ : B J N 0 ; # y y + = 1 w a 1 ; a ,.,.3 4 #.*.*.a.+XF.C $ ",
"        $ 1 l z a d +.+.d s z l 9 0 J H c c H V 5 + y r i i r X . . ; 8 J B e 0 v 9 - o # & . $ $ $ $ 3 #.T 4 < l +.+.&.e.9.C $ ",
"            1 s z +.&.&.+.z s 9 v H c.b.) G c : & . X r i i r X . * 8 c 8 c G ( c.' 9 # o o . $         s 1 ; & < 1 1 w S S     ",
"            $ 2 l +.+.+.+.l 9 7 J ` n.N.c.^ c * % + X r i i t X . ; 8 c 6 c ! X.N.v.J 9 - o # +         $ % . $ $ $ $ $ $ $     ",
"                - s 1 2 2 9 v H c.n.b.c. .( V 7 * + X r i i t X . % ; : 0 V ( ..c.v.b.' 9 # o o + %                             ",
"                $ $ $ $ $ : v ^ n.V.c. .` ( J b * . X r i i r X . . $ : c J (  . .c.V.v.b + X X + $                             "
};
