/* XPM */
static char *_afbfdfc037c46a3fe228029a0a0f051Y8bY8TfN5txPTZJU[] = {
/* columns rows colors chars-per-pixel */
"64 64 217 2 ",
"   c None",
".  c #1D111E",
"X  c #3D0614",
"o  c #350A17",
"O  c #22101D",
"+  c #2E1019",
"@  c #2C0E1B",
"#  c #131521",
"$  c #151824",
"%  c #1B1A25",
"&  c #1A1E2A",
"*  c #251C26",
"=  c #3B1320",
"-  c #1D222E",
";  c #2D282D",
":  c #252329",
">  c #302529",
",  c #35292B",
"<  c #3A2C2C",
"1  c #3E362D",
"2  c #3B352E",
"3  c #222631",
"4  c #252A35",
"5  c #2A2F3A",
"6  c #262D38",
"7  c #362D34",
"8  c #2A313B",
"9  c #2F3236",
"0  c #3E3B34",
"q  c #35373B",
"w  c #5A030D",
"e  c #52030F",
"r  c #470612",
"t  c #66070A",
"y  c #740206",
"u  c #463D2F",
"i  c #433B31",
"p  c #493533",
"a  c #553B35",
"s  c #412D29",
"d  c #4A402E",
"f  c #4B4535",
"g  c #494539",
"h  c #534034",
"j  c #54463A",
"k  c #6B453A",
"l  c #744B3C",
"z  c #605136",
"x  c #2E3842",
"c  c #313741",
"v  c #343C45",
"b  c #383C47",
"n  c #3C424C",
"m  c #38424C",
"M  c #3E4953",
"N  c #3C4751",
"B  c #4A4A46",
"V  c #42444E",
"C  c #4C4C49",
"Z  c #464143",
"A  c #55554B",
"S  c #545245",
"D  c #434D56",
"F  c #444E56",
"G  c #45515B",
"H  c #4B535A",
"J  c #54575A",
"K  c #5A4C44",
"L  c #654F45",
"P  c #635747",
"I  c #725349",
"U  c #7E6946",
"Y  c #666452",
"T  c #6B6C5B",
"R  c #6E6A55",
"E  c #797159",
"W  c #4D5A63",
"Q  c #515D65",
"!  c #525C65",
"~  c #615D61",
"^  c #56646D",
"/  c #5B666D",
"(  c #586064",
")  c #5D6A72",
"_  c #656769",
"`  c #6E7364",
"'  c #797B69",
"]  c #636D73",
"[  c #686C74",
"{  c #657076",
"}  c #637179",
"|  c #69757C",
" . c #6D777B",
".. c #767D71",
"X. c #90773E",
"o. c #8A5742",
"O. c #805F53",
"+. c #866A46",
"@. c #8A724C",
"#. c #987A47",
"$. c #96664A",
"%. c #A8704E",
"&. c #B17A7E",
"*. c #7B847C",
"=. c #7E826F",
"-. c #998045",
";. c #998C57",
":. c #A5874E",
">. c #B99748",
",. c #B7984C",
"<. c #A58754",
"1. c #B69958",
"2. c #AF8C58",
"3. c #BBA65D",
"4. c #85856D",
"5. c #868B79",
"6. c #8A8D7D",
"7. c #969779",
"8. c #A99D6D",
"9. c #BDAC64",
"0. c #B0A56E",
"q. c #B4AB75",
"w. c #BDB277",
"e. c #AAA26F",
"r. c #C3A454",
"t. c #CAAC5D",
"y. c #D7AE5C",
"u. c #E8BC57",
"i. c #C69C64",
"p. c #D0A560",
"a. c #C9B268",
"s. c #D7B56A",
"d. c #CABA74",
"f. c #C8AE6F",
"g. c #E1B678",
"h. c #C6975A",
"j. c #D1C27A",
"k. c #DAC77C",
"l. c #EACA71",
"z. c #F2CA5E",
"x. c #6E7C83",
"c. c #727D83",
"v. c #77848A",
"b. c #7D8A90",
"n. c #89928A",
"m. c #989984",
"M. c #828C92",
"N. c #8B9599",
"B. c #8D999D",
"V. c #869295",
"C. c #8F9793",
"Z. c #9CA397",
"A. c #A6A997",
"S. c #B2B49D",
"D. c #BFBB99",
"F. c #BCBB97",
"G. c #B2AD8B",
"H. c #939CA2",
"J. c #9BA5A9",
"K. c #9DA9AC",
"L. c #96A2A6",
"P. c #A3A9AC",
"I. c #A3AEB1",
"U. c #A6B1B5",
"Y. c #ACB5BA",
"T. c #B1BABD",
"R. c #BABCA5",
"E. c #B98F8D",
"W. c #DD9997",
"Q. c #D88A8C",
"!. c #CAAE8E",
"~. c #E5AE99",
"^. c #CDB3B0",
"/. c #E6B5A2",
"(. c #E6B8B6",
"). c #E4ABA6",
"_. c #AAC0B9",
"`. c #D7C986",
"'. c #DFD086",
"]. c #DCD089",
"[. c #DCD291",
"{. c #D2C898",
"}. c #EBD685",
"|. c #EBD189",
" X c #D5D2A8",
".X c #DAD6B4",
"XX c #CFC8AB",
"oX c #EBCDB1",
"OX c #F5E7A6",
"+X c #EBE3B1",
"@X c #90BBD0",
"#X c #B4BDC2",
"$X c #B8BDC0",
"%X c #A5B8C8",
"&X c #BFC8CD",
"*X c #BAC3C7",
"=X c #A8C3D0",
"-X c #C4C6C5",
";X c #C4CBD2",
":X c #D6CCD6",
">X c #CCD3D8",
",X c #CCD1D5",
"<X c #D4D8D9",
"1X c #D4CFC4",
"2X c #E9C7C8",
"3X c #E9D2DC",
"4X c #F1D9CD",
"5X c #E8E7C6",
"6X c #F3ECC6",
"7X c #F6F1C2",
"8X c #D9DEE3",
"9X c #DFE3E5",
"0X c #E4E7EA",
"qX c #F6E8E9",
"wX c #F5F7F8",
"eX c #F8F5F7",
"rX c #F8F2ED",
/* pixels */
"                                                                                                                                ",
"                                                                                                                                ",
"                                                                                                                                ",
"                                                                                                                                ",
"                                                                                                                                ",
"                                                                                                                                ",
"                                                                                                                                ",
"                                                                                                                                ",
"                                            # # # #                 $ # $ #                                                     ",
"                                            C C C C                 C C C C                                                     ",
"                                        # B m.D.D.m.B #         # B m.D.D.m.B $                                                 ",
"                                        g E {.+XXXm.C $         # B 7.XX+X{.E g                                                 ",
"                                    # g ;.j.+XXX' B                 B ' XX+Xd.<.g #                                             ",
"                                    # f 9.l.OX!.K %                 % K d.OX}.0.f #                                             ",
"                                    . u <.k.l.d.L * % # # # # # # % * I f.}.l.<.i #                                             ",
"                                    # i #.p.l.a.@.j 7 4 b V V b 4 7 j @.a.s.p.#.1 #                                             ",
"                                    # < $.2.p.s.a.;.J H M.K.K.M.H A 2.a.s.p.h.o.2 #                                             ",
"                                    # , k $.2.h.f.0.=.v.U.&X#XL.} ( e.d.t.%.$.k , -                                             ",
"                                        , a $.%.O.=.L.U.U.K.V.c.} / T O.%.$.a <                             # # $ $             ",
"                                        # , l O.! | J.Y.L.N.V.n.n.*.! J I I , #                             V V V b             ",
"                                # # # # # : Z ~ ..M.b.v.c.V.R..X XS.*.Q J Z : # # . # # $ $ # $ # # # # # n M.J.J.M.n $         ",
"                                b V V b 4 5 F ] b.V.n.5.6.m..X6X6X.XZ.=.T S 9 4 m V N n g g 3 3 8 c 3 3 q W N.Y.#XP._ b         ",
"                        # # # n M.P.J.M.W G x.b.v.5.G.k.j.{.oX4X4XoX`.d.t.;.A H M.K.K.A.w.;.A M } [ D D [ c.[ x.L.U.P.M.n #     ",
"                        g g Z ] P.&X&XK./ ( M.C.n.8.`.|.[. X:X8X3X4X X].l.i.~ ) K.&X&XXX[.w.T G |  .W ! | | W ! x.N.Y.H.V $     ",
"                    # g ;.q.A.I.I.U.U.N.( Q M.A.9.g.oX.X%X@X@X=X>X:X=X_.{.!.~ ! B.I.U.R.'.j.T m m n W W n n W W b W N.M.b #     ",
"                    n R d.}.XX=XI.J.J.M.! ! n.!.g.l.2X:X=X@X@X%X:X:X%XU.(.G._ ! b.J.K.S.'.a.Y m - 3 M M 8 8 M G V V [ [ c #     ",
"                # V M.S.'.'.R.I.K.J.J.M.! Y 3.g.g.~.2X:X:X-X^.).2X2X^.^.(.!._ ! b.J.J.S.'.d.T x - $ 3 6 x 8 6 m [ [ D c         ",
"                # b M.S.{.].F.A.H.B.B.c.! T f.g.~.W.(.2X2X(.)./.2X2X~.~.~.!.~ ! v.B.B.A.k.d.Y 6 - # # - 8 8 - 6 / [ c .         ",
"                    V ~ m.F.].!.n.c.x.} G { XX4XW.i.W.).).).oXoX4X2XoX/.W.&.~ G } v.x.6.k.9.S -     # $ - & # - 5 c             ",
"                    c F [ n.G.w.7.*. .^ G  .,XqX(.W.Q.W.).(.oX4X3X4X4XoX).&.~ G Q *.*.7.q.;.0 #     # $ * * $ . # $             ",
"                $ c [ [ F F ' 7.d.q.v.^ G | ,XeXqX2XW.W.4XqXqXrXeXrXeXqX3X$X[ M     j.w.=.A ; #     # * 7 < * #                 ",
"                c H c.c.V c D ` q.q...^ } N.>XeXeXqX(.(.qXeXrXqXqXqXqXeXeX8XN.x.    w.e.A 8 - #     . : a a : #                 ",
"            . q ] v.v.| ^ G x m ` ..Q [ U.>X8X0XeXeXqXqXeXeX3X2X(.(.2X3XeXwX8XY.{ J ..` b -         # ; K k ; #                 ",
"            # 8 / | ( W W M 3 - M ( ] N.>X0X>X<XwXeXwXwXeX0X3X2X(.(.2X3XqXwXwX:XN.| ) G 3 .         # ; L L ; #                 ",
"        $ # $ - 8 q 9 6 4 - - . 3 W P.:X<X>XT.-X0XeX9X8X8X0XqXqXqXrXrXqX8X8X8X<X,XU.} m - #         # ; L L ; #                 ",
"        B C C C C C C C C C C C C _ P.-X;X*XU.T.0XwX8X>X;X>X0XwXeXeXeX0X>X;X;X8XeX,X| x - #         # ; L L ; #                 ",
"    $ B m.D.D.F.F.F.F.F.F.F.R.F.!.Z.` _ B.I.P.T.0XwX8X;XT._.>X0XwXwX0X>X#X#X;X8XeX,X| c - #         # ; L L ; #                 ",
"    g R G..X5X6X6X6X7X7X6X6X6X5X.XS.R A [ b.V.P.>X9X8X#XU.I.*X>X0X0X>X#XI.U.&X<X0XT./ 5 - #         # ; L L ; #                 ",
". f ;.0.m.L.XX<X<X5X6X6X5X<X<X*XZ.m.0.;.A D ] M.I.#X;X;XU.K.U._.>X>XT.I.P.I.&X;X*XN.N - $ .         # ; L L , #                 ",
"# g 9.j.*.v.K.%XT.-X5X5X-X_._.K.v.5.j.9.g 4 G } M.J.#X#XY.I.K.I.#X#XI.K.I.Y.%XI.M./ 9 . . #         # ; L L ; #                 ",
"# g 9.j.*.} v.v.b.Z..X.XZ.b.b.v.x.*.j.9.g - n W } b.J.Y.*X*XI.K.I.I.K.I.#X#XB.x.V 7 = o . #         # ; L L ; #                 ",
". g 9.j.5.*.| v.*.C. X Xn.v.v.v.} 5.j.9.g - 8 m W } b.J.T.*XI.J.K.K.J.I.#XU.x.W 3 O r r O #         # ; L L ; #                 ",
"# f 9.j.*.*.b.B.B.A.[.[.A.b.L.b.x.5.j.9.f $ - 6 N W } b.L.I.K.K.J.J.J.K.I.B.) m - O w w + #         # ; L L , #                 ",
"# g 9.j.*.v.B.J.K.S.'.'.S.K.K.b.x.5.j.9.f % ; , q N W } v.b.B.B.L.L.B.N.V..._ Z 3 = t t + #         # ; L L ; #                 ",
"# f 9.j.*.v.b.J.J.S.k.'.S.J.K.B.v.5.j.a.f > k k 2 5 m H Q ) } b.B.H.v.} / ~ O.l , @ t t + #         # ; L L ; #                 ",
"# f 3.j.=.*.b.J.J.S.].'.S.L.J.B.} =.d.3.f > k l f g A R T ` *.C.A.A.7.=.Y Y I k > @ t t o #         # ; L L ; #                 ",
"# d >.t.` ^ b.K.J.S.'.'.S.J.K.b./ T t.,.d % ; h +.:.3.t.a.j.{.[.].k.s.3.1.@.j > % + t t + #         # ; L L ; #                 ",
"# d >.3.Y W v.b.n.Z.k.k.Z.b.b.*.H Y r.>.d % > h +.-.>.,.3.q.F.F.w.3.,.>.:.+.h > % + t t + #         # ; L L ; #                 ",
"# d >.3.T M W Q Q =.j.j.=.Q Q W M Y 3.>.d > k l h d d d f g C S g f d d i a l k > + t t + #         # ; L L ; #                 ",
"# d >.r.Y M M G N =.9.j.R M G M N R r.>.d > k l h 1 3 3 0 d d 1 ; : 0 1 - > k k > + t t + #         # , L L ; #                 ",
"# d >.r.Y M W ^ Q =.9.t.=.^ ^ Q M Y r.>.d % > f +.@.B S -.,.,.-.S S -.X.1 . > > % + t t + #         # ; L L ; #                 ",
"# d >.r.T M ^ ^ *.=.9.9.=.^ *.^ F Y r.>.d % : g U @.B A 2.t.t.<.A S -.-.g 6 4 3 % + t t + #         # ; L L ; #                 ",
"# d >.r.Y C ^ *.` 4.y.t.=.} ) ^ M R 3.>.d 3 D H g 2 3 q T 4.4.` q 3 1 g H W W N 3 + t t + #         # ; K P > . $ $ $ $ # #     ",
"# d >.r.Y m Q ^ ^ =.t.t.=.^ ^ W N P r.>.d 6 H W x - $ 4 G ) ^ G 6 $ - q Q ) Q D 3 + t t + #         . : j j : - 0 f f g C B     ",
"# d >.>.f 6 m M M T t.3.T G G N 6 j ,.>.d 6 W ^ N 8 - - m G G m - - 8 N ( Q v 3 % + t t + . # # # # # . : : % 0 ;.9.j.9.!.m.B # ",
"# d -.-.z u q m m Y ,.3.Y m v x i z -.#.g c D G m 6 % * 8 x x 8 $ - 8 m G G n 9 - + t t + : 1 d d 1 : - 0 0 : f 9.z.l.}.OXD.C # ",
"    u z @.+.i 4 m Y 2.1.J v 6 0 U @.z g H F c 3 - * o @ * & & & $ $ - - - m ] _ 5 o t t + i X.>.>.X.1 0 ;.;.i d ,.z.z.l.OXXXC # ",
"    # i +.+.a 7 x S <.%.A q 7 h +.U 0 8 D F c 3 $ * X r o @ O . # # # - 3 m ] / 5 @ w w + u ,.u.u.>.d g 3.3.f u ,.u.u.l.OX!.C # ",
"        0 h l k 9 i +.$.i 7 k l h 0 c x 8 c G D 3 O X e t w r @ . # # - N G n 9 & O r r O i :.p.t.:.u d ,.,.f u :.y.y.k.OXD.C # ",
"        # > k l u a o.o.a p l k 7 8 F F c c D N 3 O X w y y w X . $ - 6 D G q 8 c 7 = o @ s +.-.:.U , i ,.,.u 1 -.h.h.d.+XF.C # ",
"            < p l o.$.$.o.l p < q G x.v./ D x 3 $ O X w y y w X # & 6 x 6 x D ^ x._ 7 @ o = < i 1 , - u :.:.i < $.%.%.i. X!.C # ",
"            $ , k o.o.o.o.k 7 5 G ) v.M.x.! x & $ O X w y y w X O - 6 x 3 c W x.b.v.G 7 = o @ . . # # 1 +.U 2 > L o.o.$.q.m.C # ",
"                = s < , < 7 c F x.b.x.x.} ! N 5 & . X w y y w X O # & 3 x M ( | x.x.c._ < @ o o . #     i , % % , < < 7 Z C     ",
"                # # # # # & v Q b.B.x.x.) ) G x - O X w y y w X O # $ - x M ^ } } c.N.v.c O X X O #     # # # # # . # # # #     "
};
