/* XPM */
static char *_33c74414f2a429ef13ab8997eedb460WiIkXaimHaZmg8qT[] = {
/* columns rows colors chars-per-pixel */
"64 64 220 2 ",
"   c None",
".  c #1D111E",
"X  c #3D0614",
"o  c #350A17",
"O  c #22101D",
"+  c #2E1019",
"@  c #2C0E1B",
"#  c #131521",
"$  c #151824",
"%  c #1B1A25",
"&  c #1A1E2A",
"*  c #251C26",
"=  c #3B1320",
"-  c #1D222E",
";  c #2D282D",
":  c #252329",
">  c #302529",
",  c #35292B",
"<  c #3A2C2C",
"1  c #3E362C",
"2  c #3A342D",
"3  c #222631",
"4  c #252A35",
"5  c #2A2F3A",
"6  c #262D38",
"7  c #362D34",
"8  c #2A313B",
"9  c #2F3236",
"0  c #393837",
"q  c #5A030D",
"w  c #52030F",
"e  c #470612",
"r  c #66070A",
"t  c #740206",
"y  c #483F2F",
"u  c #42392F",
"i  c #433B31",
"p  c #493533",
"a  c #553B35",
"s  c #412D29",
"d  c #4A402E",
"f  c #464436",
"g  c #4B4535",
"h  c #4A463C",
"j  c #534034",
"k  c #54463A",
"l  c #6B453A",
"z  c #744B3C",
"x  c #605136",
"c  c #2E3842",
"v  c #313741",
"b  c #343C45",
"n  c #383C47",
"m  c #3C424C",
"M  c #37424C",
"N  c #3E4953",
"B  c #3C4751",
"V  c #4A4A46",
"C  c #42444E",
"Z  c #4C4C49",
"A  c #464345",
"S  c #55554B",
"D  c #545245",
"F  c #434D56",
"G  c #454F57",
"H  c #45515B",
"J  c #4B535B",
"K  c #545859",
"L  c #5A4C44",
"P  c #654F45",
"I  c #635747",
"U  c #6D564C",
"Y  c #7E6845",
"T  c #666452",
"R  c #6B6C5B",
"E  c #6E6A55",
"W  c #797159",
"Q  c #4D5A63",
"!  c #515D66",
"~  c #525C65",
"^  c #615D61",
"/  c #56646D",
"(  c #5C666D",
")  c #586064",
"_  c #5D6A72",
"`  c #646767",
"'  c #797B69",
"]  c #636C73",
"[  c #686C74",
"{  c #657076",
"}  c #637179",
"|  c #69757C",
" . c #6D777C",
".. c #73786A",
"X. c #90773E",
"o. c #8A5742",
"O. c #805F53",
"+. c #866A46",
"@. c #8A724C",
"#. c #987A48",
"$. c #96664A",
"%. c #A8704E",
"&. c #B17A7E",
"*. c #7B847C",
"=. c #7E826F",
"-. c #998045",
";. c #998B56",
":. c #9E925F",
">. c #A5874E",
",. c #B99748",
"<. c #B7984C",
"1. c #A58754",
"2. c #B69958",
"3. c #AF8C58",
"4. c #BBA65D",
"5. c #85856D",
"6. c #868B79",
"7. c #8A8D7D",
"8. c #96967A",
"9. c #A69B6A",
"0. c #BDAC64",
"q. c #B0A56E",
"w. c #B6AC75",
"e. c #BDB277",
"r. c #AAA26F",
"t. c #C3A454",
"y. c #CAAC5D",
"u. c #D7AE5C",
"i. c #E8BC57",
"p. c #C69C64",
"a. c #D0A560",
"s. c #C9B268",
"d. c #D7B56A",
"f. c #CABA74",
"g. c #C8AE6F",
"h. c #E1B678",
"j. c #C6975A",
"k. c #D1C27A",
"l. c #DAC77C",
"z. c #E6C472",
"x. c #EECE71",
"c. c #F2CA5E",
"v. c #6E7C83",
"b. c #727D82",
"n. c #77848A",
"m. c #7D8A90",
"M. c #89928A",
"N. c #989984",
"B. c #828C92",
"V. c #8A9599",
"C. c #8D999D",
"Z. c #859295",
"A. c #8E9591",
"S. c #9CA397",
"D. c #A6A997",
"F. c #B2B49D",
"G. c #BFBB99",
"H. c #BCBB97",
"J. c #B4AE8C",
"K. c #939CA2",
"L. c #9BA5A9",
"P. c #9DA9AC",
"I. c #96A2A6",
"U. c #A3AAAD",
"Y. c #A3AEB1",
"T. c #AAAFB6",
"R. c #A6B1B5",
"E. c #ACB5BA",
"W. c #B1BABD",
"Q. c #BABCA5",
"!. c #B98F8D",
"~. c #DD9997",
"^. c #D88A8C",
"/. c #CAAE8E",
"(. c #E5AE99",
"). c #CDB3B0",
"_. c #E6B5A2",
"`. c #E6B8B6",
"'. c #E4ABA6",
"]. c #AAC0B9",
"[. c #D7C986",
"{. c #DFD086",
"}. c #DCD089",
"|. c #DCD291",
" X c #D2C898",
".X c #EBD685",
"XX c #EBD189",
"oX c #D5D2A8",
"OX c #DAD6B4",
"+X c #CFC8AB",
"@X c #EBCDB1",
"#X c #F5E7A6",
"$X c #EBE3B1",
"%X c #90BBD0",
"&X c #B4BDC2",
"*X c #B8BDC0",
"=X c #A5B8C8",
"-X c #BFC8CD",
";X c #BAC3C7",
":X c #A8C3D0",
">X c #C4C6C4",
",X c #C4CBD2",
"<X c #D6CCD6",
"1X c #CCD3D8",
"2X c #CCD1D5",
"3X c #D5D9D9",
"4X c #D4CFC4",
"5X c #E9C7C8",
"6X c #E9D2DC",
"7X c #F1D9CD",
"8X c #E8E7C6",
"9X c #F3ECC6",
"0X c #F6F1C2",
"qX c #D9DEE3",
"wX c #DFE3E5",
"eX c #E4E7EA",
"rX c #F6E8E9",
"tX c #F5F7F8",
"yX c #F8F5F7",
"uX c #F8F2ED",
/* pixels */
"                                                                                                                                ",
"                                                                                                                                ",
"                                                                                                                                ",
"                                                                                                                                ",
"                                                                                                                                ",
"                                                                                                                                ",
"                                                                                                                                ",
"                                                                                                                                ",
"                                            $ $ # #                 $ # . #                                                     ",
"                                            Z Z Z Z                 V Z Z V                                                     ",
"                                        # Z N.G.G.N.V #         $ V N./.H.N.V #                                                 ",
"                                        f W  X$X+XN.V $         # V N.+X$X+XW g                                                 ",
"                                    # f ;.k.$X+X' V                 V ' +X$Xf.:.f #                                             ",
"                                    # g q.x.#X/.L %                 % D /.#X.X4.g #                                             ",
"                                    # i 1.z.x.f.P * % # # # # # # % * z s.x.l.1.i #                                             ",
"                                    # 1 #.y.z.d.@.k 7 4 n C C n 6 9 k @.s.z.y.#.i #                                             ",
"                                    # < $.3.a.d.s.:.S Q B.L.L.B.J S :.s.d.u.3.$.2 #                                             ",
"                                    # , l $.3.j.g.r.=.n.T.*X&XI.] ` 9.g.a.%.$.l , -                                             ",
"                                        < a $.%.W ' I.R.T.P.Z.n.} ( ` @.%.$.a ,                             # # $ $             ",
"                                        # , z O.^ | L.R.I.C.Z.B.M.*.~ S O.P > #                             C C C n             ",
"                                # # # # # : A ^ *.m.m.n.n.M.Q.OX+XF.n.) K A : # # . # # # # # # # # # # # m B.L.L.B.C #         ",
"                                n C C n 4 5 F ] m.A.M.6.6.S.OX0X9XOXS.=.W D 9 4 M C B m h f 6 3 8 8 3 3 8 K V.E.*XU.( n         ",
"                        $ # # n B.L.L.B.J G v.m.n.7.J.k.k.[.5X7X7X@X[.f.y.;.S J B.P.L.D.w.:.S N | [ F F | b.[ v.I.T.U.B.C #     ",
"                        g h C ] U.,X,XU.( ~ B.C.7.8.[.XX|.oX<X<X6X7XoX{.z.p.^ _ P.-X,X+X|.f.R H |  .! Q  .| Q ~ v.V.&XK.n $     ",
"                    # f :.w.D.U.Y.T.T.V./ Q Z.D.0.d.@XOX:X%X%X:X2X<X:X].+X!.R / C.R.R.Q.{.k.R M n m Q Q m m J ~ n J V.B.n #     ",
"                    C R f..X+X:XY.L.L.m.Q ) M./.d.XX@X<X:X%X%X=X<X<X=XR.`./.` Q m.L.L.F.{.0.T c - 3 N N 8 8 F G m F [ [ v #     ",
"                . m B.F.}.}.Q.Y.P.I.L.B.) T 2.h.h.(.5X6X<X>X).`.5X5X).).@X/.` ~ m.L.L.F.{.f.T M - & 3 6 c c 6 M [ [ F v         ",
"                # n B.F.[.[.H.D.K.C.C.n.! ` g.z.~.~.`.5X5X`.(._.5X@X'.(.(.!.` Q n.C.C.D.l.k.T 8 - # # & 8 8 - 6 ( [ v .         ",
"                    C ~ N./. XH.M. .n._ H { +X7X~.^.~.'.'._._.@X5X7X@X'.~.&.K J } n.v.7.k.0.D -     # $ & & $ - 8 v             ",
"                    v F { M.e.f.8.6.| / G  .2XrX`.~.^.~.(.`.@X7XrX7X7X@X'.!.^ F ! *.*.8.w.:.0 #     # $ - * $ . # #             ",
"                $ v [ } G Z ..8.e.w.*./ G | 2XyXrX5X~.~.7XrXuXuXuXuXuXrXrX).[ B     k.e.5.D ; #     # * < < * #                 ",
"                # 5 ( ` 8 3 F ` 9.9..._ } V.1XtXyXrX`.`.rXyXuXrXrXrXrXyXyXqXC.}     e.r.S 8 - #     . : a a : #                 ",
"        # # # # # - 8 8 - - 4 9 f V F } T.3X3XeXyXyXrXrXyXyX6X5X`.`.5X6XyXyXqXT.| K ' ` b -         # ; L l ; #                 ",
"        V Z Z Z Z Z Z S V Z Z Z V V n ` >XeX1X1XyXyXtXtXyXeX6X5X`.`.5X6XrXtXyX1XV.{ _ Q 3 .         # ; P P ; #                 ",
"    . V N. XQ.H.H.G.G.G.H.H.Q.H.H.8.V J T.1XW.>XeXtXeXqXqXeXrXrXrXrXuXrXwXqXqXqX1XT.} M - #         # ; P P ; #                 ",
"    f E D.OX$X9X8X9X0X$X9X9X9X$XOXJ.E ^ B.L.U.W.eXtXqX,X,X1XeXtXyXyXyXeX1X,X,XqXyX2X| c - #         # ; P P ; #                 ",
"# f :.q.N.I.>X3X3X8X8X9X8X1X3X-XI.N.r.:.^ ~ B.W.eXyXqX,XW.].1XeXtXtXeX1X&X&X-XqXtX,X .v - #         # ; P P ; #                 ",
"# g 0.k.6.n.P.].;X>X8X$X>X].].P.n.6.k.0.g v  .Y.1XwXqX-XR.Y.;X1XeXeX1X*XT.Y.&XqXeX*X( 5 & #         # ; P P ; #                 ",
"# g 0.k.*. .n.n.m.I.OXOXI.m.m.n.| 6.k.0.g 5 / B.Y.&X,X-XR.P.R.].1X1XW.Y.P.T.,X,X;XV.F & $ #         # ; P P , #                 ",
"# g 0.k.*.} v.*.n.A.oXoXm.*.n.*.} 6.k.0.g 4 H } B.L.&X&XE.Y.P.Y.&X;XY.P.Y.T.=XY.B.` 7 O # #         # ; P P ; #                 ",
"# g 0.k.6.| m.C.C.D.}.|.F.C.C.m.v.6.k.0.g 3 M Q } m.L.E.;X;XY.P.Y.R.P.Y.&X&XV.v.F 7 = o . #         # ; P P ; #                 ",
"# g 0.k.6.n.C.L.P.F.}.l.F.I.P.C.v.6.k.0.g - 8 M Q } m.L.W.;XY.L.L.L.P.P.&XT.v.H 3 @ e e O #         # ; P P ; #                 ",
"# g 0.k.6.n.C.L.I.F.{.{.F.I.P.C.v.6.k.0.g $ - 6 B ! } m.I.R.P.L.L.L.L.P.T.C.( n 3 @ q q + #         # ; P P , #                 ",
"# g 4.k.=.} C.I.P.F.{.{.F.P.P.m.| =.f.4.g % > 7 8 B Q } n.m.C.C.I.I.C.V.Z.b.^ A 3 @ r r + #         # ; P P ; #                 ",
". g <.y.R ( m.P.P.F.{.{.F.P.P.m./ W y.<.d > l l 2 8 M J J / *.m.C.K.n.} ( ^ Y P > + r r + #         # ; P P ; #                 ",
"# g ,.t.T J *.m.m.N.l.}.S.m.m.*.J T t.,.d > l z g g S E R ..*.A.D.D.8.=.T T Y l > + r r + #         # ; P P ; #                 ",
"# d ,.t.R N Q ! ) =.s.k.=.Q / J N R t.,.d % ; j +.>.<.0.0.k.|.oX}.l.d.4.2.@.k > * + r r + #         # ; P P ; #                 ",
"# d ,.4.T N N N N ..0.k...N H N B T t.,.d % > j @.>.<.<.4.e.J.H.e.4.<.<.>.+.j ; % @ r r + #         # ; P P ; #                 ",
"# d ,.4.T N / / / =.y.s.5.( ( Q N E t.,.d ; l z j i y d g g Z V h f d d i y z l ; + r r + #         # , P P ; #                 ",
"# d ,.,.R N / } } =.y.y.5.{ } / G T t.,.d > x z j 2 3 ; d d d u 4 ; 1 1 * > l l > + r r + #         # ; P P ; .                 ",
"$ d ,.t.T N / } } 5.y.y.=.} } / G T t.,.d % > j +.@.Z D -.,.,.-.D D -.X.1 % > > % + r r + $         # ; P P ; #                 ",
"$ d ,.t.T M Q _ / =.y.y.=./ / Q B I t.,.d % - h Y @.Z S :.y.y.3.S D -.#.g 6 6 3 $ + r r + .         # ; P I ; #                 ",
"$ d ,.,.x 6 B N H R t.t.E N H B 4 k ,.,.y 3 C J h 2 3 0 ` 5.5.` 0 3 u g J J ! N 3 + r r + #         # ; L I ; . # $ $ $ # $     ",
"# d -.-.x 0 8 M M E 2.4.T M M b 0 x -.X.1 6 Q ~ c & $ 4 H ( / H 6 $ - 8 ~ _ ) N 3 + r r + #         . : k k : : i g g h Z V     ",
"    d x @.Y i 4 n T 2.3.T M 4 0 Y @.x 1 : 4 Q ! B 8 & - M H H M - - 8 B / ~ M - % + r r + . # # # # # . : > $ 1 ;.0.s.f./.N.V # ",
"    $ 1 +.+.g 2 v S #.;.Z 0 2 d +.Y 2 $ 3 c G H M 6 * * 8 b c 8 - - 8 M H G M 9 - + r r + * 1 y d 1 : - 0 0 : g 4.x.x..X#XG.Z # ",
"        u a z l 7 u $.$.p < l z a 2 % 3 N F v 4 3 * o + * & & & # # - - 3 m ] ( 5 + r r + u X.,.,.X.1 0 ;.;.i d <.c.c.x.#XH.Z . ",
"        # < l z p a o.o.a p z l > $ & 8 F G v 3 $ O X e o @ O . # # # - - m ] ` 5 @ q q @ y <.i.i.,.d g 4.4.g y <.i.i.x.#X).V # ",
"            , p l o.%.o.o.z p = % & 8 8 5 c G N 3 O X w r q e @ . # # - C H m 9 & O e e O i >.u.u.>.i d <.<.d u >.u.u.l.#XH.Z # ",
"            $ , l o.o.o.o.l > $ & 8 H H c v F N 3 O X q t t q X . $ - 6 F G c 6 v 7 = o @ s +.#.-.Y , u <.<.f 1 -.2.j.d.$XH.Z # ",
"                , < < , , > * & 5 G v.n.( F c 3 & O X q t t q X # $ 8 c 8 c F / v.` 7 @ X = < u i 2 % i >.>.u < $.%.%.p.oX/.Z $ ",
"                # # # $ # # & 5 H _ m.m.v.~ c & $ . X q t t q X O - 8 8 3 c Q  .B.b.J 7 = o @ . # # # i +.Y < > P o.o.$.w.N.Z $ ",
"                        # & 5 H v.m.v.v.} ! N 5 & . X q t t q X O $ - 3 8 B / | v.b.b.` 7 @ o o . #     u 7 % % > < , u A Z     ",
"                        # - c ~ m.C.v.v._ _ H c & . X q t t q X O # # - c H / } } v.C.n.v . X X O #     # # # # # . # # # #     "
};
