
/* XPM */
static const char *YmxvY2tzMV82NHg2NA__[] = {
/* columns rows colors chars-per-pixel */
"64 64 139 2 ",
"   c #56554B",
".  c #5F5C54",
"X  c #615E56",
"o  c #636057",
"O  c #65645D",
"+  c #69665E",
"@  c #6A685F",
"#  c #676661",
"$  c #696761",
"%  c #676863",
"&  c #6C6B64",
"*  c #6E6E69",
"=  c #716E65",
"-  c #716F69",
";  c #6F706B",
":  c #737067",
">  c #76736C",
",  c #74736E",
"<  c #74736F",
"1  c #76716D",
"2  c #73746E",
"3  c #73746F",
"4  c #74746C",
"5  c #75756D",
"6  c #77746D",
"7  c #76766C",
"8  c #77776D",
"9  c #75746F",
"0  c #74756F",
"q  c #77746F",
"w  c #76766E",
"e  c #76776F",
"r  c #77776F",
"t  c #74726C",
"y  c #78756C",
"u  c #79766D",
"i  c #78756E",
"p  c #79766F",
"a  c #7A776E",
"s  c #78756E",
"d  c #78786E",
"f  c #79796F",
"g  c #7B786F",
"h  c #78786E",
"j  c #737570",
"k  c #757470",
"l  c #747570",
"z  c #767570",
"x  c #767571",
"c  c #757670",
"v  c #757671",
"b  c #777671",
"n  c #757573",
"m  c #757772",
"M  c #777672",
"N  c #767772",
"B  c #767674",
"V  c #777775",
"C  c #767571",
"Z  c #787570",
"A  c #797671",
"S  c #7A7770",
"D  c #787772",
"F  c #787773",
"G  c #7A7772",
"H  c #7B7774",
"J  c #797771",
"K  c #777872",
"L  c #767873",
"P  c #777873",
"I  c #777974",
"U  c #777873",
"Y  c #787870",
"T  c #787971",
"R  c #797971",
"E  c #7B7871",
"W  c #7A7A70",
"Q  c #7B7B71",
"!  c #797873",
"~  c #787973",
"^  c #7B7873",
"/  c #7A7A72",
"(  c #7A7B73",
")  c #7B7B73",
"_  c #7C7970",
"`  c #7C7972",
"'  c #7D7A73",
"]  c #797874",
"[  c #787974",
"{  c #7A7974",
"}  c #7A7975",
"|  c #797A74",
" . c #787A75",
".. c #797A75",
"X. c #7B7A75",
"o. c #7A7B75",
"O. c #797B76",
"+. c #7B7A76",
"@. c #7A7B76",
"#. c #7E7B74",
"$. c #7C7B76",
"%. c #7C7B77",
"&. c #7B7C74",
"*. c #7A7C77",
"=. c #7B7C77",
"-. c #7D7C77",
";. c #7A7974",
":. c #7D7C78",
">. c #7C7D78",
",. c #7E7D78",
"<. c #7E7D79",
"1. c #7D7E78",
"2. c #7C7E79",
"3. c #7D7E79",
"4. c #7F7E79",
"5. c #7E7F79",
"6. c #7D7F7A",
"7. c #7F7E7A",
"8. c #7E7F7A",
"9. c #7E7E79",
"0. c #807F7A",
"q. c #807F7B",
"w. c #807F7A",
"e. c #7F807A",
"r. c #7F807B",
"t. c #7F807B",
"y. c #80817B",
"u. c #81807C",
"i. c #80817C",
"p. c #81827C",
"a. c #81827D",
"s. c #83827D",
"d. c #82837D",
"f. c #81837E",
"g. c #82837E",
"h. c #83847E",
"j. c #83847F",
"k. c #81827D",
"l. c #828481",
/* pixels */
"- - - t : = > + = q 2 : t > q t - - t : = & & . & t 4 4 : : : : = = : : : = 4 + = q q : : q q 4 - t t : = & & . & t 4 4 : : * : ",
"A A A E A > p O & q q q q q z > - - t t t = & . = y 4 4 4 4 : q p p f f p t p O & q q q q q r q : - t t t = & . = p 4 4 4 4 4 : ",
"A A p A p > p O = A E q z z E z > : t > p t = o & t : 4 q q q q p p A A p > p O = p E q q q E q q : : > p t = o & t 4 q q q q q ",
"A q p p p p #.= = p q : t t z z q - - : t = = O & t 4 f q q q : p p p p p p #.& = p q : : t q q q : - : t = = O & t 4 f q q q : ",
"t > q z q q E & * q q t > q A A p t t t > - = O & > q E q q t : t > z z z t { & * z > t > q z A p t t t t = = O & > q E q q t : ",
"z A { { E : q O % : : : q z z z t t t t t & & X & > q L q E z E q A { { z t z # % : : t q q z z t t t t t & & X & > q E q E z A ",
"E { #.#.{ q A % * > > z E A E z t t q > > : : O % : : L L { E E A { { { { z E & * > > z E z A z t t p > t : : O % : : E A { { E ",
"& & & & & & - O % & & & & & & # + + % + % % & . O % % & * * & & & & & & & & t O % & & & & & & # + + & + % % & . O & % & * * & % ",
"t 2 ; * : * & & & & & & : & & # & t p q t - = & & % & - t : : # ; 2 ; * - * & & & & & & : & & O & t p q t - = & & & & : : t t # ",
"t q 2 t t t * : * * * t A : & % & p p p q t t : > > z q z z z % * 2 2 t t t * : * * t t z : * O & p p p q t t : t t > z z z q & ",
"t 2 t t t t ; t t t t t z : & % + t t t > t > > q z A q z A A % ; t t t t t ; ; t t t t z * * & % t t t > t > > A z z E z E z * ",
"t ; * * ; t ; ; t t - - q & & & & 4 p p p p A A z z z z A E { * ; * * * t t : : t t : : t & * & & 4 p p p p A A q q > z z A A * ",
"; ; ; t 2 z z 2 - > t t z * % & = 4 q t > > z q z > z z z k z & ; * t t t z z z t > t t q & & & = 4 p t t t z q z z z z z z F * ",
"* ; 2 z t t t ; - z t * > & % & & : : t > p { E { A { F z t t & * * j z t t t t t z t * q & & & @ : t t t p { E F F A z t t t & ",
"L z I *.V V z t * > * & : & & & = t t 4 A ' :.:.:.:.q.:.{ z { * z j I *.L z z t * t : & : & & & & t t y p ' :.-.:.:.q.:.{ { { t ",
"* % % & & * & # # * * & q : & % & : = & = = : * & t z t t - t # & # # & & & & O # & & & q : & % & : = & = = - & * : > q - - t & ",
"& & & % % % O . & = 4 : & & & & @ @ & & & + & X + = & % & & * & & & & % % O O . % = : : & & & & % @ & & % % & . + & & & & & - & ",
"t - t t t t = + = t 4 4 q q q q p p ' g f 4 p + = p q q q E E q t t t > t t = + : y q 4 q q 2 q r r E E E q q O = p p p p A E p ",
"> t : t t t & + : 4 q 4 q q q q p p p p p > p + = p q q q q E q > : : > t t & + = t 4 4 q q q q r q E E q q q # & q p p p p p p ",
"p t : t t : = @ = t r r r q q : q q q p q q ' & = p q : q q r r p t t t t : = @ = t 4 q E q q q q q q q q q E & & q q t > > p p ",
"p t t t t : = & & : q q q q t - t > z z q t E & & t t t > q A E q : : t : - = & & t q q p q t t q q z q q > A & & > t t > q A A ",
"> t t > : = & @ & : q E q E z z > z { { z t z # & t t > z z z z > t t t : = & @ & : q q E q q z q q { { z > z # & t t > z z A A ",
"> q p q t : = & & : q q z A A z A E #.-.{ z E & & t t q z z z > > q p q t t = & & : q f { { E { z { -.-.E z A & & t t q z z z > ",
"+ + + + + % % O O % & & * * & % % % & & % % * o # & & & & % % # O + % % + & % O O % % & : & & % & # & % % % & o # & % & & & % # ",
"& t p t : = = & & & * - t - : # & z t t t t * * * * t t * & - & & t p t t = - & & & * - t - : # % z j t 2 ; : t t t : : : & * & ",
"= 4 p p t t t : t t z z z z z # t *.{ { { { z z q z { A E z z % & y A p > t t : t t q z z z z # t :.:.:.g.t.:.:.:.:.:.-.y.-.z & ",
"& = > t t > q > z z { E z E { % 2 { { z { L L L z E E z E A z % + : t t t t q > z z { A z E { % t :.:.:.g.:.:.:.:.e.q.:.g.:.E & ",
"= t p q q p A z z > z z q z { & 2 { z z z z L E z A { A E > z : & 4 q q p p A z z > z q > z { & L :.:.:.:.:.e.e.:.:.:.:.g.{ z : ",
"= t q t t > q > z k z z z z { * z { { { { { { { q E { { E : q : = 4 > t > t q q A > z z z z { * z { :.:.e.t.g.g.:.g.g.g.h.E 2 * ",
"& = t t > A { E A z A z z t t % t L I { { { { z q { { q E q q & & : : t q p E { A z A z z t t # 2 { :.g.h.g.g.:.:.h.e.{ :.{ q & ",
"= t 4 4 A #.:.:.:.g.g.:.:.A z * *.:.:.g.g.g.e.{ z { E 4 E E E : & t t p E ' :.:.:.g.g.:.:.A z * { :.:.h.h.g.y.{ E e.*.q *.E q : ",
"& = = & & = * & & z z * t - ; & ; ; * t 2 t t & & : q q E 2 : * & = & & = & * * & z z * t t - & t - * ; t t t & & 2 q q ( 4 ; : ",
"% % & & & % & X O & & & & & * & % % % % % O O   + = = : & & % % O @ & % % @ & . O & & & & & - & % % & % % O O   O : : : & & & & ",
"A ' ' ' E p p + & p z z A A E z t t t t 4 t = X = p y p q p q q f E E f r q E + = p A A A E F A > > > > q t = X = p q q q q q t ",
"p p p p p q p O = p z q z z A z > - : t 4 : = X & t t q q q z q r r f q q q q O & p A q A A A A > - : t q t = X & t : q q q z q ",
"p q q q p p #.& - p q t t > z z q - - : t : = O & t > p q q > t q 4 4 q q q *.& = p q > > > A A q - - : > : = O & t q f q q q > ",
"> q z z z q { & * q t t t > z z p t t t t = = O & > q E z q t : 4 q q q q q E & = q > t > > A A p t t t t = = O & > q E q q t t ",
"q A { { z t z # & t t t z z A z q t > > t = & o % t : f z z z z q f E E q : q + & t t > p p A p q t > > t = & o % t t E f r z z ",
"E { #.#.E z E % * > > q A z z q t t q > > : - O & t t E E { E { E E #.#.E q A & & : t q p p p > t t q > > : - O % : : f E E E { ",
"& & & % & & : O & * & & & & & % + + % + % % & . O & % * * * & & & & & & & & - O % & & & & & & % + + % + % % & . O % % & * * & & ",
"t j ; * : * & & & & & & - & & # & q p q > - - & & & * t : : q # * t t - * & & * % & & & & & & + @ t p p t = = & & & * t * t t # ",
"t j 2 t t t * t * * - t z - & # & q p p q > > > t : q q q q z # : z > t t t t t : : 4 q q q = + & y p p p t t : > t q E q z z & ",
"t 2 t t t t ; t t t : t z - * & % : t > > > q > A A { A E { { & * t t t q q t q q t : : q : & % + : t t > t > > A z z { z A E & ",
"t ; * * t t ; ; t t - - q & * * = p p p A A A z q > z q z z E & * t t : t t t q q t : : 4 : & & & 4 y p p p A A z > t q > z E - ",
"; ; ; t 2 z z j - > t t z & & & = 4 q q q q z > z t q z E q q & * > q q q z z z t > > q q : & & = 4 4 t > > z q z z t z > z A - ",
"* ; 2 z t t t ; - z t * > & & & & : : t q q A z z t t t q : : % * t t t t t t t t z q t q : & & & : : t > p { { z A z z > t t % ",
"I V I *.L z z t * > * & t & & & & 4 q q E E #.{ { { { z E q q * q z z z A A z > t z > : t t * * & 4 t 4 A ' :.:.%.q.:.:.#.{ L ; ",
"* % % & & & & O # : * & z t & % % = & & & & * & * : t * : : : % % & % % & & & O # & * & t : & % & : = & = = - * & t t t t * * & ",
"& & & % % % O . % = : : & & & & & % & & % % & X + & & & & & * & & & & & % + O . & = : : & & & & & % & & % % & X O * & & & & * & ",
"t - t > t t = + : 4 q q q q q q f p ' ' A p p + = p z z z A E z t t t > t t & + = t q 4 : q q q E p ' ' A p p + & q z z z E E z ",
"> : : > t t & + = t 4 4 q q q q p p p p p q p + = q z q z z z z > : : > t : & + : t q 4 q q E q p p A A q q q O & q z z z z z z ",
"A t : t t t = @ = t r r q q q 4 p q p p q p ' = = p q t > > z z p t : t t : = @ = t r r q q q : p q p p q q E & & q q t q q z z ",
"p t t t : = = & & t q E q q t - > > z z q > A & & > t t > q A z p t : t : - = & & : q r q q t - > > z z q > A & & > t t > q z z ",
"> t > t : = & @ & - q q q q z > q z { { z > q # & t t > z z A z > t > t : = = @ & : q E E q z z q z { { z > q # & t t > z z A z ",
"> q p q t : = & & : q L E { E A A E -.#.E z A & & t t q z z z > > q p q t : = & & : q q A A z z A E -.#.E z E & & t t q z z z > ",
"+ + % + + % % O O % & & * * & % & % & % % % & o # & % & & & % # O + % % + % % O O % & & * * & % & % & % % % & o # & % & & & % # ",
"& t p q : = = & & & * - t t : O & z t ; t : * - : : t : : & * % & t p q t = = = & & * - t t : O & z t ; t : * : t : t t t & * & ",
"= 4 A p > > t : t : q z z z z % t :.g.e.g.:.:.q.#.-.:.:.y.{ q % & p p p q t t : t : q z z z z % t :.g.e.g.:.:.q.#.:.:.-.:.{ z % ",
"& = t t t q z > E q E E A z { & t :.:.:.e.:.:.:.q.q.:.q.j.:.A & % : t t > > q > E q E E A z { & t :.:.:.e.:.:.:.:.y.q.:.g.:.E & ",
"= t p q q A A z z t z z z z { & L :.*.*.e.:.e.:.:.q.q.:.g.{ A : & 4 q q p p E A z t z z z z { & L :.*.*.t.:.e.:.:.:.:.q.g.{ z : ",
"= t p t t t q > z > z z z z { & V *.{ :.t.t.g.e.:.g.g.q.g.E q & & 4 p t t t q q z t z z z z { & V *.{ :.t.t.g.e.:.g.g.g.g.A > * ",
"& = t t t p E E A A { z z t t % j { :.g.g.t.g.:.g.j.q.#.y.E q & % : t t t p E E A A { z z t t % j { :.g.g.t.g.:.:.j.y.{ q.{ z * ",
"= : 4 4 p #.q.-.:.g.g.#.#.A z * { :.t.l.l.g.g.*.{ :.{ z :.E z : & t t y p ' -.-.:.g.g.#.#.A z * { :.t.l.l.t.g.*.{ e.{ z -.{ A t ",
"& = = & = = - & & t t * t * * & ; * & * t t t & & t > t E t - & & = = = = = - & & t t * t * * & ; * & * t t t & & t t > { t - : "
};
